G75*
%MOIN*%
%OFA0B0*%
%FSLAX24Y24*%
%IPPOS*%
%LPD*%
%AMOC8*
5,1,8,0,0,1.08239X$1,22.5*
%
%ADD10C,0.0160*%
%ADD11C,0.0060*%
%ADD12C,0.0030*%
%ADD13C,0.0050*%
%ADD14C,0.0000*%
%ADD15C,0.0080*%
%ADD16C,0.0040*%
%ADD17C,0.0020*%
%ADD18R,0.1455X0.0013*%
%ADD19R,0.1573X0.0013*%
%ADD20R,0.1665X0.0013*%
%ADD21R,0.1731X0.0013*%
%ADD22R,0.1796X0.0013*%
%ADD23R,0.1849X0.0013*%
%ADD24R,0.1888X0.0013*%
%ADD25R,0.1927X0.0013*%
%ADD26R,0.1967X0.0013*%
%ADD27R,0.2006X0.0013*%
%ADD28R,0.2045X0.0013*%
%ADD29R,0.2071X0.0013*%
%ADD30R,0.2098X0.0013*%
%ADD31R,0.2137X0.0013*%
%ADD32R,0.2150X0.0013*%
%ADD33R,0.2176X0.0013*%
%ADD34R,0.2203X0.0013*%
%ADD35R,0.2229X0.0013*%
%ADD36R,0.2242X0.0013*%
%ADD37R,0.2268X0.0013*%
%ADD38R,0.2281X0.0013*%
%ADD39R,0.2307X0.0013*%
%ADD40R,0.2321X0.0013*%
%ADD41R,0.2334X0.0013*%
%ADD42R,0.2360X0.0013*%
%ADD43R,0.2373X0.0013*%
%ADD44R,0.2386X0.0013*%
%ADD45R,0.2399X0.0013*%
%ADD46R,0.2412X0.0013*%
%ADD47R,0.2439X0.0013*%
%ADD48R,0.2452X0.0013*%
%ADD49R,0.2465X0.0013*%
%ADD50R,0.2478X0.0013*%
%ADD51R,0.2491X0.0013*%
%ADD52R,0.2504X0.0013*%
%ADD53R,0.2517X0.0013*%
%ADD54R,0.2530X0.0013*%
%ADD55R,0.2543X0.0013*%
%ADD56R,0.2556X0.0013*%
%ADD57R,0.2570X0.0013*%
%ADD58R,0.2583X0.0013*%
%ADD59R,0.2596X0.0013*%
%ADD60R,0.2609X0.0013*%
%ADD61R,0.2622X0.0013*%
%ADD62R,0.2635X0.0013*%
%ADD63R,0.2648X0.0013*%
%ADD64R,0.2661X0.0013*%
%ADD65R,0.2674X0.0013*%
%ADD66R,0.2688X0.0013*%
%ADD67R,0.2701X0.0013*%
%ADD68R,0.2714X0.0013*%
%ADD69R,0.2727X0.0013*%
%ADD70R,0.2740X0.0013*%
%ADD71R,0.2753X0.0013*%
%ADD72R,0.2766X0.0013*%
%ADD73R,0.2779X0.0013*%
%ADD74R,0.2792X0.0013*%
%ADD75R,0.2806X0.0013*%
%ADD76R,0.3081X0.0013*%
%ADD77R,0.3146X0.0013*%
%ADD78R,0.3186X0.0013*%
%ADD79R,0.3225X0.0013*%
%ADD80R,0.3251X0.0013*%
%ADD81R,0.3264X0.0013*%
%ADD82R,0.3278X0.0013*%
%ADD83R,0.3238X0.0013*%
%ADD84R,0.3199X0.0013*%
%ADD85R,0.3160X0.0013*%
%ADD86R,0.3107X0.0013*%
%ADD87R,0.0774X0.0013*%
%ADD88R,0.0760X0.0013*%
%ADD89R,0.1822X0.0013*%
%ADD90R,0.0747X0.0013*%
%ADD91R,0.0734X0.0013*%
%ADD92R,0.1783X0.0013*%
%ADD93R,0.1770X0.0013*%
%ADD94R,0.1757X0.0013*%
%ADD95R,0.1704X0.0013*%
%ADD96R,0.1678X0.0013*%
%ADD97R,0.1639X0.0013*%
%ADD98R,0.1613X0.0013*%
%ADD99R,0.1586X0.0013*%
%ADD100R,0.1560X0.0013*%
%ADD101R,0.1508X0.0013*%
%ADD102R,0.1232X0.0013*%
%ADD103R,0.0184X0.0013*%
%ADD104R,0.1193X0.0013*%
%ADD105R,0.1180X0.0013*%
%ADD106R,0.1141X0.0013*%
%ADD107R,0.1101X0.0013*%
%ADD108R,0.1075X0.0013*%
%ADD109R,0.1036X0.0013*%
%ADD110R,0.1023X0.0013*%
%ADD111R,0.1009X0.0013*%
%ADD112R,0.0249X0.0013*%
%ADD113R,0.0446X0.0013*%
%ADD114R,0.1495X0.0013*%
%ADD115R,0.1481X0.0013*%
%ADD116R,0.1468X0.0013*%
%ADD117R,0.1442X0.0013*%
%ADD118R,0.1206X0.0013*%
%ADD119R,0.0197X0.0013*%
%ADD120R,0.0118X0.0013*%
%ADD121R,0.0052X0.0013*%
%ADD122R,0.1154X0.0013*%
%ADD123R,0.0210X0.0013*%
%ADD124R,0.0616X0.0013*%
%ADD125R,0.0144X0.0013*%
%ADD126R,0.0564X0.0013*%
%ADD127R,0.0026X0.0013*%
%ADD128R,0.0498X0.0013*%
%ADD129R,0.0170X0.0013*%
%ADD130R,0.0420X0.0013*%
%ADD131R,0.0341X0.0013*%
%ADD132R,0.0105X0.0013*%
%ADD133R,0.0066X0.0013*%
%ADD134R,0.0039X0.0013*%
%ADD135R,0.0013X0.0013*%
%ADD136R,0.0092X0.0013*%
%ADD137R,0.0223X0.0013*%
%ADD138R,0.0275X0.0013*%
%ADD139R,0.0302X0.0013*%
%ADD140R,0.0328X0.0013*%
%ADD141R,0.0354X0.0013*%
%ADD142R,0.0367X0.0013*%
%ADD143R,0.0380X0.0013*%
%ADD144R,0.0406X0.0013*%
%ADD145R,0.0433X0.0013*%
%ADD146R,0.0459X0.0013*%
%ADD147R,0.0485X0.0013*%
%ADD148R,0.0511X0.0013*%
%ADD149R,0.0538X0.0013*%
%ADD150R,0.0590X0.0013*%
%ADD151R,0.0642X0.0013*%
%ADD152R,0.0669X0.0013*%
%ADD153R,0.0695X0.0013*%
%ADD154R,0.0721X0.0013*%
%ADD155R,0.0800X0.0013*%
%ADD156R,0.0813X0.0013*%
%ADD157R,0.0826X0.0013*%
%ADD158R,0.0852X0.0013*%
%ADD159R,0.0878X0.0013*%
%ADD160R,0.0891X0.0013*%
%ADD161R,0.0905X0.0013*%
%ADD162R,0.0931X0.0013*%
%ADD163R,0.0957X0.0013*%
%ADD164R,0.0970X0.0013*%
%ADD165R,0.0983X0.0013*%
%ADD166R,0.0551X0.0013*%
%ADD167R,0.0524X0.0013*%
%ADD168R,0.0472X0.0013*%
%ADD169R,0.0629X0.0013*%
%ADD170R,0.1219X0.0013*%
%ADD171R,0.1245X0.0013*%
%ADD172R,0.1259X0.0013*%
%ADD173R,0.1272X0.0013*%
%ADD174R,0.1298X0.0013*%
%ADD175R,0.1324X0.0013*%
%ADD176R,0.1337X0.0013*%
%ADD177R,0.1350X0.0013*%
%ADD178R,0.1377X0.0013*%
%ADD179R,0.1403X0.0013*%
%ADD180R,0.1416X0.0013*%
%ADD181R,0.1429X0.0013*%
%ADD182R,0.1534X0.0013*%
%ADD183R,0.1547X0.0013*%
%ADD184R,0.1626X0.0013*%
%ADD185R,0.1652X0.0013*%
%ADD186R,0.1691X0.0013*%
%ADD187R,0.1744X0.0013*%
%ADD188R,0.1809X0.0013*%
%ADD189R,0.1862X0.0013*%
%ADD190R,0.1901X0.0013*%
%ADD191R,0.1940X0.0013*%
%ADD192R,0.1363X0.0013*%
%ADD193R,0.0577X0.0013*%
%ADD194R,0.0603X0.0013*%
%ADD195R,0.2111X0.0013*%
%ADD196R,0.2189X0.0013*%
%ADD197R,0.2216X0.0013*%
%ADD198R,0.2255X0.0013*%
%ADD199R,0.2294X0.0013*%
%ADD200R,0.1521X0.0013*%
%ADD201R,0.0839X0.0013*%
%ADD202R,0.2425X0.0013*%
%ADD203R,0.0315X0.0013*%
%ADD204R,0.2085X0.0013*%
%ADD205R,0.0787X0.0013*%
%ADD206R,0.2163X0.0013*%
%ADD207R,0.2124X0.0013*%
%ADD208R,0.2019X0.0013*%
%ADD209R,0.1953X0.0013*%
%ADD210R,0.1717X0.0013*%
%ADD211R,0.1599X0.0013*%
%ADD212R,0.1114X0.0013*%
D10*
X003629Y003256D02*
X019770Y003256D01*
X019770Y022941D01*
X003629Y022941D01*
X003629Y003256D01*
X005794Y003256D02*
X017605Y003256D01*
X017605Y022941D02*
X005794Y022941D01*
D11*
X003499Y021061D02*
X003499Y003561D01*
X003501Y003531D01*
X003506Y003501D01*
X003515Y003472D01*
X003528Y003445D01*
X003543Y003419D01*
X003562Y003395D01*
X003583Y003374D01*
X003607Y003355D01*
X003633Y003340D01*
X003660Y003327D01*
X003689Y003318D01*
X003719Y003313D01*
X003749Y003311D01*
X005649Y003311D01*
X005679Y003313D01*
X005709Y003318D01*
X005738Y003327D01*
X005765Y003340D01*
X005791Y003355D01*
X005815Y003374D01*
X005836Y003395D01*
X005855Y003419D01*
X005870Y003445D01*
X005883Y003472D01*
X005892Y003501D01*
X005897Y003531D01*
X005899Y003561D01*
X005899Y021061D01*
X005897Y021091D01*
X005892Y021121D01*
X005883Y021150D01*
X005870Y021177D01*
X005855Y021203D01*
X005836Y021227D01*
X005815Y021248D01*
X005791Y021267D01*
X005765Y021282D01*
X005738Y021295D01*
X005709Y021304D01*
X005679Y021309D01*
X005649Y021311D01*
X003749Y021311D01*
X003719Y021309D01*
X003689Y021304D01*
X003660Y021295D01*
X003633Y021282D01*
X003607Y021267D01*
X003583Y021248D01*
X003562Y021227D01*
X003543Y021203D01*
X003528Y021177D01*
X003515Y021150D01*
X003506Y021121D01*
X003501Y021091D01*
X003499Y021061D01*
X004183Y021461D02*
X004403Y021461D01*
X004477Y021534D01*
X004477Y021828D01*
X004403Y021901D01*
X004183Y021901D01*
X004183Y021461D01*
X004644Y021461D02*
X004790Y021461D01*
X004717Y021461D02*
X004717Y021901D01*
X004644Y021901D02*
X004790Y021901D01*
X004950Y021901D02*
X004950Y021461D01*
X004950Y021608D02*
X005171Y021608D01*
X005244Y021681D01*
X005244Y021828D01*
X005171Y021901D01*
X004950Y021901D01*
X004864Y022211D02*
X004717Y022211D01*
X004644Y022284D01*
X004644Y022651D01*
X004477Y022578D02*
X004403Y022651D01*
X004257Y022651D01*
X004183Y022578D01*
X004183Y022284D01*
X004257Y022211D01*
X004403Y022211D01*
X004477Y022284D01*
X004477Y022431D01*
X004330Y022431D01*
X004864Y022211D02*
X004937Y022284D01*
X004937Y022651D01*
X005104Y022504D02*
X005104Y022211D01*
X005104Y022431D02*
X005398Y022431D01*
X005398Y022504D02*
X005398Y022211D01*
X005564Y022284D02*
X005564Y022578D01*
X005638Y022651D01*
X005785Y022651D01*
X005858Y022578D01*
X005858Y022284D02*
X005785Y022211D01*
X005638Y022211D01*
X005564Y022284D01*
X005398Y022504D02*
X005251Y022651D01*
X005104Y022504D01*
X010554Y017521D02*
X010554Y014900D01*
X010693Y014761D01*
X013314Y014761D01*
X013314Y017521D01*
X010554Y017521D01*
X010713Y015061D02*
X010715Y015084D01*
X010721Y015107D01*
X010730Y015128D01*
X010743Y015148D01*
X010759Y015165D01*
X010777Y015179D01*
X010797Y015190D01*
X010819Y015198D01*
X010842Y015202D01*
X010866Y015202D01*
X010889Y015198D01*
X010911Y015190D01*
X010931Y015179D01*
X010949Y015165D01*
X010965Y015148D01*
X010978Y015128D01*
X010987Y015107D01*
X010993Y015084D01*
X010995Y015061D01*
X010993Y015038D01*
X010987Y015015D01*
X010978Y014994D01*
X010965Y014974D01*
X010949Y014957D01*
X010931Y014943D01*
X010911Y014932D01*
X010889Y014924D01*
X010866Y014920D01*
X010842Y014920D01*
X010819Y014924D01*
X010797Y014932D01*
X010777Y014943D01*
X010759Y014957D01*
X010743Y014974D01*
X010730Y014994D01*
X010721Y015015D01*
X010715Y015038D01*
X010713Y015061D01*
X015339Y013141D02*
X015339Y017441D01*
X015341Y017458D01*
X015345Y017475D01*
X015352Y017491D01*
X015362Y017505D01*
X015375Y017518D01*
X015389Y017528D01*
X015405Y017535D01*
X015422Y017539D01*
X015439Y017541D01*
X015839Y017541D01*
X016739Y017541D02*
X017139Y017541D01*
X017156Y017539D01*
X017173Y017535D01*
X017189Y017528D01*
X017203Y017518D01*
X017216Y017505D01*
X017226Y017491D01*
X017233Y017475D01*
X017237Y017458D01*
X017239Y017441D01*
X017239Y013141D01*
X017237Y013124D01*
X017233Y013107D01*
X017226Y013091D01*
X017216Y013077D01*
X017203Y013064D01*
X017189Y013054D01*
X017173Y013047D01*
X017156Y013043D01*
X017139Y013041D01*
X016739Y013041D01*
X015839Y013041D02*
X015439Y013041D01*
X015422Y013043D01*
X015405Y013047D01*
X015389Y013054D01*
X015375Y013064D01*
X015362Y013077D01*
X015352Y013091D01*
X015345Y013107D01*
X015341Y013124D01*
X015339Y013141D01*
X016039Y015041D02*
X016289Y015041D01*
X016539Y015041D01*
X016539Y015191D02*
X016539Y015391D01*
X016039Y015391D01*
X016039Y015191D01*
X016539Y015191D01*
X016539Y015541D02*
X016289Y015541D01*
X016039Y015541D01*
X017499Y021061D02*
X017499Y003561D01*
X017501Y003531D01*
X017506Y003501D01*
X017515Y003472D01*
X017528Y003445D01*
X017543Y003419D01*
X017562Y003395D01*
X017583Y003374D01*
X017607Y003355D01*
X017633Y003340D01*
X017660Y003327D01*
X017689Y003318D01*
X017719Y003313D01*
X017749Y003311D01*
X019649Y003311D01*
X019679Y003313D01*
X019709Y003318D01*
X019738Y003327D01*
X019765Y003340D01*
X019791Y003355D01*
X019815Y003374D01*
X019836Y003395D01*
X019855Y003419D01*
X019870Y003445D01*
X019883Y003472D01*
X019892Y003501D01*
X019897Y003531D01*
X019899Y003561D01*
X019899Y021061D01*
X019897Y021091D01*
X019892Y021121D01*
X019883Y021150D01*
X019870Y021177D01*
X019855Y021203D01*
X019836Y021227D01*
X019815Y021248D01*
X019791Y021267D01*
X019765Y021282D01*
X019738Y021295D01*
X019709Y021304D01*
X019679Y021309D01*
X019649Y021311D01*
X017749Y021311D01*
X017719Y021309D01*
X017689Y021304D01*
X017660Y021295D01*
X017633Y021282D01*
X017607Y021267D01*
X017583Y021248D01*
X017562Y021227D01*
X017543Y021203D01*
X017528Y021177D01*
X017515Y021150D01*
X017506Y021121D01*
X017501Y021091D01*
X017499Y021061D01*
X011042Y007708D02*
X011042Y005957D01*
X011042Y005107D02*
X011042Y003092D01*
X009863Y003092D01*
X007463Y003092D01*
X006284Y003092D01*
X006284Y006957D01*
X006284Y007707D02*
X006284Y007708D01*
X011042Y007708D01*
X009863Y003092D02*
X009863Y002010D01*
X007463Y002010D01*
X007663Y001810D01*
X009663Y001810D01*
X009863Y002010D01*
X007463Y002010D02*
X007463Y003092D01*
D12*
X010807Y016996D02*
X010904Y016996D01*
X010952Y017044D01*
X010952Y017286D01*
X011053Y017237D02*
X011102Y017286D01*
X011198Y017286D01*
X011247Y017237D01*
X011198Y017141D02*
X011247Y017092D01*
X011247Y017044D01*
X011198Y016996D01*
X011102Y016996D01*
X011053Y017044D01*
X011102Y017141D02*
X011053Y017189D01*
X011053Y017237D01*
X011102Y017141D02*
X011198Y017141D01*
X011348Y017189D02*
X011445Y017286D01*
X011445Y016996D01*
X011541Y016996D02*
X011348Y016996D01*
X011150Y016947D02*
X011150Y017334D01*
X010759Y017286D02*
X010759Y017044D01*
X010807Y016996D01*
D13*
X016923Y012676D02*
X017374Y012676D01*
X017374Y012526D02*
X017374Y012826D01*
X017073Y012526D02*
X016923Y012676D01*
X016998Y012366D02*
X017299Y012366D01*
X017374Y012291D01*
X017374Y012141D01*
X017299Y012066D01*
X016998Y012066D01*
X016923Y012141D01*
X016923Y012291D01*
X016998Y012366D01*
X017223Y012216D02*
X017374Y012366D01*
X009603Y007174D02*
X009603Y006949D01*
X009453Y006949D02*
X009453Y007174D01*
X009528Y007249D01*
X009603Y007174D01*
X009453Y007174D02*
X009378Y007249D01*
X009303Y007249D01*
X009303Y006949D01*
X009143Y006949D02*
X009143Y007174D01*
X009068Y007249D01*
X008992Y007174D01*
X008992Y006949D01*
X008842Y006949D02*
X008842Y007249D01*
X008917Y007249D01*
X008992Y007174D01*
X008682Y007174D02*
X008682Y007024D01*
X008607Y006949D01*
X008457Y006949D01*
X008382Y007024D01*
X008382Y007174D02*
X008532Y007249D01*
X008607Y007249D01*
X008682Y007174D01*
X008682Y007399D02*
X008382Y007399D01*
X008382Y007174D01*
X008225Y007024D02*
X008150Y007024D01*
X008150Y006949D01*
X008225Y006949D01*
X008225Y007024D01*
X008225Y006949D02*
X008075Y006798D01*
X007915Y007024D02*
X007840Y006949D01*
X007690Y006949D01*
X007615Y007024D01*
X007765Y007174D02*
X007840Y007174D01*
X007915Y007099D01*
X007915Y007024D01*
X007840Y007174D02*
X007915Y007249D01*
X007915Y007324D01*
X007840Y007399D01*
X007690Y007399D01*
X007615Y007324D01*
X007713Y004778D02*
X007713Y004477D01*
X007713Y004628D02*
X007263Y004628D01*
X007413Y004477D01*
X007263Y004317D02*
X007713Y004017D01*
X007713Y004317D02*
X007263Y004017D01*
D14*
X006399Y004239D02*
X006401Y004273D01*
X006407Y004307D01*
X006417Y004340D01*
X006430Y004371D01*
X006448Y004401D01*
X006468Y004429D01*
X006492Y004454D01*
X006518Y004476D01*
X006546Y004494D01*
X006577Y004510D01*
X006609Y004522D01*
X006643Y004530D01*
X006677Y004534D01*
X006711Y004534D01*
X006745Y004530D01*
X006779Y004522D01*
X006811Y004510D01*
X006841Y004494D01*
X006870Y004476D01*
X006896Y004454D01*
X006920Y004429D01*
X006940Y004401D01*
X006958Y004371D01*
X006971Y004340D01*
X006981Y004307D01*
X006987Y004273D01*
X006989Y004239D01*
X006987Y004205D01*
X006981Y004171D01*
X006971Y004138D01*
X006958Y004107D01*
X006940Y004077D01*
X006920Y004049D01*
X006896Y004024D01*
X006870Y004002D01*
X006842Y003984D01*
X006811Y003968D01*
X006779Y003956D01*
X006745Y003948D01*
X006711Y003944D01*
X006677Y003944D01*
X006643Y003948D01*
X006609Y003956D01*
X006577Y003968D01*
X006546Y003984D01*
X006518Y004002D01*
X006492Y004024D01*
X006468Y004049D01*
X006448Y004077D01*
X006430Y004107D01*
X006417Y004138D01*
X006407Y004171D01*
X006401Y004205D01*
X006399Y004239D01*
X008368Y006207D02*
X008370Y006241D01*
X008376Y006275D01*
X008386Y006308D01*
X008399Y006339D01*
X008417Y006369D01*
X008437Y006397D01*
X008461Y006422D01*
X008487Y006444D01*
X008515Y006462D01*
X008546Y006478D01*
X008578Y006490D01*
X008612Y006498D01*
X008646Y006502D01*
X008680Y006502D01*
X008714Y006498D01*
X008748Y006490D01*
X008780Y006478D01*
X008810Y006462D01*
X008839Y006444D01*
X008865Y006422D01*
X008889Y006397D01*
X008909Y006369D01*
X008927Y006339D01*
X008940Y006308D01*
X008950Y006275D01*
X008956Y006241D01*
X008958Y006207D01*
X008956Y006173D01*
X008950Y006139D01*
X008940Y006106D01*
X008927Y006075D01*
X008909Y006045D01*
X008889Y006017D01*
X008865Y005992D01*
X008839Y005970D01*
X008811Y005952D01*
X008780Y005936D01*
X008748Y005924D01*
X008714Y005916D01*
X008680Y005912D01*
X008646Y005912D01*
X008612Y005916D01*
X008578Y005924D01*
X008546Y005936D01*
X008515Y005952D01*
X008487Y005970D01*
X008461Y005992D01*
X008437Y006017D01*
X008417Y006045D01*
X008399Y006075D01*
X008386Y006106D01*
X008376Y006139D01*
X008370Y006173D01*
X008368Y006207D01*
X010336Y004239D02*
X010338Y004273D01*
X010344Y004307D01*
X010354Y004340D01*
X010367Y004371D01*
X010385Y004401D01*
X010405Y004429D01*
X010429Y004454D01*
X010455Y004476D01*
X010483Y004494D01*
X010514Y004510D01*
X010546Y004522D01*
X010580Y004530D01*
X010614Y004534D01*
X010648Y004534D01*
X010682Y004530D01*
X010716Y004522D01*
X010748Y004510D01*
X010778Y004494D01*
X010807Y004476D01*
X010833Y004454D01*
X010857Y004429D01*
X010877Y004401D01*
X010895Y004371D01*
X010908Y004340D01*
X010918Y004307D01*
X010924Y004273D01*
X010926Y004239D01*
X010924Y004205D01*
X010918Y004171D01*
X010908Y004138D01*
X010895Y004107D01*
X010877Y004077D01*
X010857Y004049D01*
X010833Y004024D01*
X010807Y004002D01*
X010779Y003984D01*
X010748Y003968D01*
X010716Y003956D01*
X010682Y003948D01*
X010648Y003944D01*
X010614Y003944D01*
X010580Y003948D01*
X010546Y003956D01*
X010514Y003968D01*
X010483Y003984D01*
X010455Y004002D01*
X010429Y004024D01*
X010405Y004049D01*
X010385Y004077D01*
X010367Y004107D01*
X010354Y004138D01*
X010344Y004171D01*
X010338Y004205D01*
X010336Y004239D01*
X012592Y004195D02*
X012594Y004235D01*
X012600Y004276D01*
X012610Y004315D01*
X012623Y004353D01*
X012641Y004390D01*
X012662Y004424D01*
X012686Y004457D01*
X012713Y004487D01*
X012743Y004514D01*
X012776Y004538D01*
X012810Y004559D01*
X012847Y004577D01*
X012885Y004590D01*
X012924Y004600D01*
X012965Y004606D01*
X013005Y004608D01*
X013045Y004606D01*
X013086Y004600D01*
X013125Y004590D01*
X013163Y004577D01*
X013200Y004559D01*
X013234Y004538D01*
X013267Y004514D01*
X013297Y004487D01*
X013324Y004457D01*
X013348Y004424D01*
X013369Y004390D01*
X013387Y004353D01*
X013400Y004315D01*
X013410Y004276D01*
X013416Y004235D01*
X013418Y004195D01*
X013416Y004155D01*
X013410Y004114D01*
X013400Y004075D01*
X013387Y004037D01*
X013369Y004000D01*
X013348Y003966D01*
X013324Y003933D01*
X013297Y003903D01*
X013267Y003876D01*
X013234Y003852D01*
X013200Y003831D01*
X013163Y003813D01*
X013125Y003800D01*
X013086Y003790D01*
X013045Y003784D01*
X013005Y003782D01*
X012965Y003784D01*
X012924Y003790D01*
X012885Y003800D01*
X012847Y003813D01*
X012810Y003831D01*
X012776Y003852D01*
X012743Y003876D01*
X012713Y003903D01*
X012686Y003933D01*
X012662Y003966D01*
X012641Y004000D01*
X012623Y004037D01*
X012610Y004075D01*
X012600Y004114D01*
X012594Y004155D01*
X012592Y004195D01*
X015939Y004195D02*
X015941Y004235D01*
X015947Y004276D01*
X015957Y004315D01*
X015970Y004353D01*
X015988Y004390D01*
X016009Y004424D01*
X016033Y004457D01*
X016060Y004487D01*
X016090Y004514D01*
X016123Y004538D01*
X016157Y004559D01*
X016194Y004577D01*
X016232Y004590D01*
X016271Y004600D01*
X016312Y004606D01*
X016352Y004608D01*
X016392Y004606D01*
X016433Y004600D01*
X016472Y004590D01*
X016510Y004577D01*
X016547Y004559D01*
X016581Y004538D01*
X016614Y004514D01*
X016644Y004487D01*
X016671Y004457D01*
X016695Y004424D01*
X016716Y004390D01*
X016734Y004353D01*
X016747Y004315D01*
X016757Y004276D01*
X016763Y004235D01*
X016765Y004195D01*
X016763Y004155D01*
X016757Y004114D01*
X016747Y004075D01*
X016734Y004037D01*
X016716Y004000D01*
X016695Y003966D01*
X016671Y003933D01*
X016644Y003903D01*
X016614Y003876D01*
X016581Y003852D01*
X016547Y003831D01*
X016510Y003813D01*
X016472Y003800D01*
X016433Y003790D01*
X016392Y003784D01*
X016352Y003782D01*
X016312Y003784D01*
X016271Y003790D01*
X016232Y003800D01*
X016194Y003813D01*
X016157Y003831D01*
X016123Y003852D01*
X016090Y003876D01*
X016060Y003903D01*
X016033Y003933D01*
X016009Y003966D01*
X015988Y004000D01*
X015970Y004037D01*
X015957Y004075D01*
X015947Y004114D01*
X015941Y004155D01*
X015939Y004195D01*
D15*
X015860Y003841D02*
X013497Y003841D01*
X012710Y004628D02*
X012710Y006203D01*
X012710Y007699D02*
X016647Y007699D01*
X016239Y008186D02*
X017322Y008186D01*
X017322Y011434D01*
X016751Y012005D01*
X016239Y012005D01*
X015098Y012005D02*
X014586Y012005D01*
X014015Y011434D01*
X014015Y008186D01*
X015098Y008186D01*
X016220Y008659D02*
X016292Y008689D01*
X016361Y008722D01*
X016429Y008758D01*
X016496Y008798D01*
X016560Y008841D01*
X016622Y008887D01*
X016681Y008937D01*
X016738Y008989D01*
X016792Y009044D01*
X016843Y009101D01*
X016892Y009162D01*
X016937Y009224D01*
X016979Y009289D01*
X017018Y009356D01*
X017054Y009424D01*
X017086Y009495D01*
X017114Y009566D01*
X017139Y009640D01*
X017160Y009714D01*
X017177Y009789D01*
X017191Y009865D01*
X017200Y009942D01*
X017206Y010019D01*
X017208Y010096D01*
X017206Y010173D01*
X017200Y010250D01*
X017191Y010327D01*
X017177Y010403D01*
X017160Y010478D01*
X017139Y010552D01*
X017114Y010626D01*
X017086Y010697D01*
X017054Y010768D01*
X017018Y010836D01*
X016979Y010903D01*
X016937Y010968D01*
X016892Y011030D01*
X016843Y011091D01*
X016792Y011148D01*
X016738Y011203D01*
X016681Y011255D01*
X016622Y011305D01*
X016560Y011351D01*
X016496Y011394D01*
X016429Y011434D01*
X016361Y011470D01*
X016292Y011503D01*
X016220Y011533D01*
X015118Y011533D02*
X015046Y011503D01*
X014977Y011470D01*
X014909Y011434D01*
X014842Y011394D01*
X014778Y011351D01*
X014716Y011305D01*
X014657Y011255D01*
X014600Y011203D01*
X014546Y011148D01*
X014495Y011091D01*
X014446Y011030D01*
X014401Y010968D01*
X014359Y010903D01*
X014320Y010836D01*
X014284Y010768D01*
X014252Y010697D01*
X014224Y010626D01*
X014199Y010552D01*
X014178Y010478D01*
X014161Y010403D01*
X014147Y010327D01*
X014138Y010250D01*
X014132Y010173D01*
X014130Y010096D01*
X014132Y010019D01*
X014138Y009942D01*
X014147Y009865D01*
X014161Y009789D01*
X014178Y009714D01*
X014199Y009640D01*
X014224Y009566D01*
X014252Y009495D01*
X014284Y009424D01*
X014320Y009356D01*
X014359Y009289D01*
X014401Y009224D01*
X014446Y009162D01*
X014495Y009101D01*
X014546Y009044D01*
X014600Y008989D01*
X014657Y008937D01*
X014716Y008887D01*
X014778Y008841D01*
X014842Y008798D01*
X014909Y008758D01*
X014977Y008722D01*
X015046Y008689D01*
X015118Y008659D01*
X016647Y006203D02*
X016647Y004628D01*
X009357Y008176D02*
X008274Y008176D01*
X009357Y008176D02*
X009357Y011424D01*
X008786Y011995D01*
X008274Y011995D01*
X007133Y011995D02*
X006621Y011995D01*
X006050Y011424D01*
X006050Y008176D01*
X007133Y008176D01*
X008255Y008649D02*
X008327Y008679D01*
X008396Y008712D01*
X008464Y008748D01*
X008531Y008788D01*
X008595Y008831D01*
X008657Y008877D01*
X008716Y008927D01*
X008773Y008979D01*
X008827Y009034D01*
X008878Y009091D01*
X008927Y009152D01*
X008972Y009214D01*
X009014Y009279D01*
X009053Y009346D01*
X009089Y009414D01*
X009121Y009485D01*
X009149Y009556D01*
X009174Y009630D01*
X009195Y009704D01*
X009212Y009779D01*
X009226Y009855D01*
X009235Y009932D01*
X009241Y010009D01*
X009243Y010086D01*
X009241Y010163D01*
X009235Y010240D01*
X009226Y010317D01*
X009212Y010393D01*
X009195Y010468D01*
X009174Y010542D01*
X009149Y010616D01*
X009121Y010687D01*
X009089Y010758D01*
X009053Y010826D01*
X009014Y010893D01*
X008972Y010958D01*
X008927Y011020D01*
X008878Y011081D01*
X008827Y011138D01*
X008773Y011193D01*
X008716Y011245D01*
X008657Y011295D01*
X008595Y011341D01*
X008531Y011384D01*
X008464Y011424D01*
X008396Y011460D01*
X008327Y011493D01*
X008255Y011523D01*
X007153Y011523D02*
X007081Y011493D01*
X007012Y011460D01*
X006944Y011424D01*
X006877Y011384D01*
X006813Y011341D01*
X006751Y011295D01*
X006692Y011245D01*
X006635Y011193D01*
X006581Y011138D01*
X006530Y011081D01*
X006481Y011020D01*
X006436Y010958D01*
X006394Y010893D01*
X006355Y010826D01*
X006319Y010758D01*
X006287Y010687D01*
X006259Y010616D01*
X006234Y010542D01*
X006213Y010468D01*
X006196Y010393D01*
X006182Y010317D01*
X006173Y010240D01*
X006167Y010163D01*
X006165Y010086D01*
X006167Y010009D01*
X006173Y009932D01*
X006182Y009855D01*
X006196Y009779D01*
X006213Y009704D01*
X006234Y009630D01*
X006259Y009556D01*
X006287Y009485D01*
X006319Y009414D01*
X006355Y009346D01*
X006394Y009279D01*
X006436Y009214D01*
X006481Y009152D01*
X006530Y009091D01*
X006581Y009034D01*
X006635Y008979D01*
X006692Y008927D01*
X006751Y008877D01*
X006813Y008831D01*
X006877Y008788D01*
X006944Y008748D01*
X007012Y008712D01*
X007081Y008679D01*
X007153Y008649D01*
X007078Y014646D02*
X006566Y014646D01*
X005995Y015217D01*
X005995Y018465D01*
X007078Y018465D01*
X008219Y018465D02*
X009302Y018465D01*
X009302Y015217D01*
X008731Y014646D01*
X008219Y014646D01*
X007098Y015119D02*
X007026Y015149D01*
X006957Y015182D01*
X006889Y015218D01*
X006822Y015258D01*
X006758Y015301D01*
X006696Y015347D01*
X006637Y015397D01*
X006580Y015449D01*
X006526Y015504D01*
X006475Y015561D01*
X006426Y015622D01*
X006381Y015684D01*
X006339Y015749D01*
X006300Y015816D01*
X006264Y015884D01*
X006232Y015955D01*
X006204Y016026D01*
X006179Y016100D01*
X006158Y016174D01*
X006141Y016249D01*
X006127Y016325D01*
X006118Y016402D01*
X006112Y016479D01*
X006110Y016556D01*
X006112Y016633D01*
X006118Y016710D01*
X006127Y016787D01*
X006141Y016863D01*
X006158Y016938D01*
X006179Y017012D01*
X006204Y017086D01*
X006232Y017157D01*
X006264Y017228D01*
X006300Y017296D01*
X006339Y017363D01*
X006381Y017428D01*
X006426Y017490D01*
X006475Y017551D01*
X006526Y017608D01*
X006580Y017663D01*
X006637Y017715D01*
X006696Y017765D01*
X006758Y017811D01*
X006822Y017854D01*
X006889Y017894D01*
X006957Y017930D01*
X007026Y017963D01*
X007098Y017993D01*
X008200Y017993D02*
X008272Y017963D01*
X008341Y017930D01*
X008409Y017894D01*
X008476Y017854D01*
X008540Y017811D01*
X008602Y017765D01*
X008661Y017715D01*
X008718Y017663D01*
X008772Y017608D01*
X008823Y017551D01*
X008872Y017490D01*
X008917Y017428D01*
X008959Y017363D01*
X008998Y017296D01*
X009034Y017228D01*
X009066Y017157D01*
X009094Y017086D01*
X009119Y017012D01*
X009140Y016938D01*
X009157Y016863D01*
X009171Y016787D01*
X009180Y016710D01*
X009186Y016633D01*
X009188Y016556D01*
X009186Y016479D01*
X009180Y016402D01*
X009171Y016325D01*
X009157Y016249D01*
X009140Y016174D01*
X009119Y016100D01*
X009094Y016026D01*
X009066Y015955D01*
X009034Y015884D01*
X008998Y015816D01*
X008959Y015749D01*
X008917Y015684D01*
X008872Y015622D01*
X008823Y015561D01*
X008772Y015504D01*
X008718Y015449D01*
X008661Y015397D01*
X008602Y015347D01*
X008540Y015301D01*
X008476Y015258D01*
X008409Y015218D01*
X008341Y015182D01*
X008272Y015149D01*
X008200Y015119D01*
X010684Y019487D02*
X010684Y020570D01*
X010684Y019487D02*
X013932Y019487D01*
X014503Y020058D01*
X014503Y020570D01*
X014503Y021711D02*
X014503Y022223D01*
X013932Y022794D01*
X010684Y022794D01*
X010684Y021711D01*
X009702Y021938D02*
X009702Y021308D01*
X007025Y021308D01*
X007025Y021938D01*
X007025Y022961D02*
X009702Y022961D01*
X011157Y020590D02*
X011187Y020518D01*
X011220Y020449D01*
X011256Y020381D01*
X011296Y020314D01*
X011339Y020250D01*
X011385Y020188D01*
X011435Y020129D01*
X011487Y020072D01*
X011542Y020018D01*
X011599Y019967D01*
X011660Y019918D01*
X011722Y019873D01*
X011787Y019831D01*
X011854Y019792D01*
X011922Y019756D01*
X011993Y019724D01*
X012064Y019696D01*
X012138Y019671D01*
X012212Y019650D01*
X012287Y019633D01*
X012363Y019619D01*
X012440Y019610D01*
X012517Y019604D01*
X012594Y019602D01*
X012671Y019604D01*
X012748Y019610D01*
X012825Y019619D01*
X012901Y019633D01*
X012976Y019650D01*
X013050Y019671D01*
X013124Y019696D01*
X013195Y019724D01*
X013266Y019756D01*
X013334Y019792D01*
X013401Y019831D01*
X013466Y019873D01*
X013528Y019918D01*
X013589Y019967D01*
X013646Y020018D01*
X013701Y020072D01*
X013753Y020129D01*
X013803Y020188D01*
X013849Y020250D01*
X013892Y020314D01*
X013932Y020381D01*
X013968Y020449D01*
X014001Y020518D01*
X014031Y020590D01*
X014031Y021692D02*
X014001Y021764D01*
X013968Y021833D01*
X013932Y021901D01*
X013892Y021968D01*
X013849Y022032D01*
X013803Y022094D01*
X013753Y022153D01*
X013701Y022210D01*
X013646Y022264D01*
X013589Y022315D01*
X013528Y022364D01*
X013466Y022409D01*
X013401Y022451D01*
X013334Y022490D01*
X013266Y022526D01*
X013195Y022558D01*
X013124Y022586D01*
X013050Y022611D01*
X012976Y022632D01*
X012901Y022649D01*
X012825Y022663D01*
X012748Y022672D01*
X012671Y022678D01*
X012594Y022680D01*
X012517Y022678D01*
X012440Y022672D01*
X012363Y022663D01*
X012287Y022649D01*
X012212Y022632D01*
X012138Y022611D01*
X012064Y022586D01*
X011993Y022558D01*
X011922Y022526D01*
X011854Y022490D01*
X011787Y022451D01*
X011722Y022409D01*
X011660Y022364D01*
X011599Y022315D01*
X011542Y022264D01*
X011487Y022210D01*
X011435Y022153D01*
X011385Y022094D01*
X011339Y022032D01*
X011296Y021968D01*
X011256Y021901D01*
X011220Y021833D01*
X011187Y021764D01*
X011157Y021692D01*
D16*
X011873Y020398D02*
X011796Y020321D01*
X011796Y020014D01*
X011873Y019937D01*
X012026Y019937D01*
X012103Y020014D01*
X012257Y019937D02*
X012563Y019937D01*
X012410Y019937D02*
X012410Y020398D01*
X012257Y020244D01*
X012103Y020321D02*
X012026Y020398D01*
X011873Y020398D01*
X012717Y020321D02*
X012794Y020398D01*
X012947Y020398D01*
X013024Y020321D01*
X013024Y020244D01*
X012717Y019937D01*
X013024Y019937D01*
X013733Y013908D02*
X013810Y013754D01*
X013963Y013601D01*
X013963Y013831D01*
X014040Y013908D01*
X014117Y013908D01*
X014194Y013831D01*
X014194Y013678D01*
X014117Y013601D01*
X013963Y013601D01*
X013810Y013448D02*
X013733Y013371D01*
X013733Y013217D01*
X013810Y013141D01*
X014117Y013141D01*
X014194Y013217D01*
X014194Y013371D01*
X014117Y013448D01*
X013462Y013071D02*
X013462Y012611D01*
X013309Y012611D02*
X013616Y012611D01*
X013309Y012918D02*
X013462Y013071D01*
X013156Y012994D02*
X013079Y013071D01*
X012925Y013071D01*
X012849Y012994D01*
X012849Y012687D01*
X012925Y012611D01*
X013079Y012611D01*
X013156Y012687D01*
X012146Y012672D02*
X012069Y012596D01*
X011916Y012596D01*
X011839Y012672D01*
X011686Y012596D02*
X011532Y012749D01*
X011609Y012749D02*
X011379Y012749D01*
X011379Y012596D02*
X011379Y013056D01*
X011609Y013056D01*
X011686Y012979D01*
X011686Y012826D01*
X011609Y012749D01*
X011839Y012979D02*
X011916Y013056D01*
X012069Y013056D01*
X012146Y012979D01*
X012146Y012903D01*
X012069Y012826D01*
X012146Y012749D01*
X012146Y012672D01*
X012069Y012826D02*
X011992Y012826D01*
X011951Y013311D02*
X011874Y013387D01*
X011951Y013311D02*
X012104Y013311D01*
X012181Y013387D01*
X012181Y013541D01*
X012104Y013618D01*
X012027Y013618D01*
X011874Y013541D01*
X011874Y013771D01*
X012181Y013771D01*
X011721Y013694D02*
X011644Y013771D01*
X011490Y013771D01*
X011414Y013694D01*
X011414Y013387D01*
X011490Y013311D01*
X011644Y013311D01*
X011721Y013387D01*
X010486Y012949D02*
X010409Y013026D01*
X010256Y013026D01*
X010179Y012949D01*
X010026Y012949D02*
X009949Y013026D01*
X009795Y013026D01*
X009719Y012949D01*
X009719Y012642D01*
X009795Y012566D01*
X009949Y012566D01*
X010026Y012642D01*
X010179Y012566D02*
X010486Y012873D01*
X010486Y012949D01*
X010486Y012566D02*
X010179Y012566D01*
X008790Y010541D02*
X008867Y010464D01*
X008867Y010311D01*
X008790Y010234D01*
X008483Y010541D01*
X008790Y010541D01*
X008483Y010541D02*
X008406Y010464D01*
X008406Y010311D01*
X008483Y010234D01*
X008790Y010234D01*
X008867Y010080D02*
X008867Y009774D01*
X008867Y009927D02*
X008406Y009927D01*
X008560Y009774D01*
X008483Y009620D02*
X008406Y009543D01*
X008406Y009390D01*
X008483Y009313D01*
X008790Y009313D01*
X008867Y009390D01*
X008867Y009543D01*
X008790Y009620D01*
X009863Y008476D02*
X009863Y008323D01*
X009940Y008246D01*
X009940Y008093D02*
X010093Y008093D01*
X010170Y008016D01*
X010170Y007786D01*
X010170Y007939D02*
X010324Y008093D01*
X010324Y008246D02*
X010017Y008553D01*
X009940Y008553D01*
X009863Y008476D01*
X009940Y008093D02*
X009863Y008016D01*
X009863Y007786D01*
X010324Y007786D01*
X010324Y008246D02*
X010324Y008553D01*
X010758Y008841D02*
X010758Y009071D01*
X010835Y009148D01*
X010988Y009148D01*
X011065Y009071D01*
X011065Y008841D01*
X011065Y008994D02*
X011219Y009148D01*
X011219Y008841D02*
X010758Y008841D01*
X010988Y009301D02*
X010988Y009608D01*
X010758Y009531D02*
X010988Y009301D01*
X011219Y009531D02*
X010758Y009531D01*
X012208Y009494D02*
X012669Y009494D01*
X012669Y009341D02*
X012669Y009648D01*
X012669Y009188D02*
X012515Y009034D01*
X012515Y009111D02*
X012515Y008881D01*
X012669Y008881D02*
X012208Y008881D01*
X012208Y009111D01*
X012285Y009188D01*
X012438Y009188D01*
X012515Y009111D01*
X012362Y009341D02*
X012208Y009494D01*
X012186Y006311D02*
X011879Y006311D01*
X011879Y006081D01*
X012032Y006158D01*
X012109Y006158D01*
X012186Y006081D01*
X012186Y005927D01*
X012109Y005851D01*
X011956Y005851D01*
X011879Y005927D01*
X011726Y005851D02*
X011572Y006004D01*
X011649Y006004D02*
X011419Y006004D01*
X011419Y005851D02*
X011419Y006311D01*
X011649Y006311D01*
X011726Y006234D01*
X011726Y006081D01*
X011649Y006004D01*
X011634Y004031D02*
X011404Y004031D01*
X011404Y003571D01*
X011404Y003724D02*
X011634Y003724D01*
X011711Y003801D01*
X011711Y003954D01*
X011634Y004031D01*
X011557Y003724D02*
X011711Y003571D01*
X011864Y003647D02*
X011864Y003801D01*
X012094Y003801D01*
X012171Y003724D01*
X012171Y003647D01*
X012094Y003571D01*
X011941Y003571D01*
X011864Y003647D01*
X011864Y003801D02*
X012017Y003954D01*
X012171Y004031D01*
X016443Y009679D02*
X016366Y009755D01*
X016366Y009909D01*
X016443Y009985D01*
X016443Y010139D02*
X016520Y010139D01*
X016596Y010216D01*
X016596Y010446D01*
X016443Y010446D02*
X016366Y010369D01*
X016366Y010216D01*
X016443Y010139D01*
X016443Y010446D02*
X016750Y010446D01*
X016827Y010369D01*
X016827Y010216D01*
X016750Y010139D01*
X016750Y009985D02*
X016827Y009909D01*
X016827Y009755D01*
X016750Y009679D01*
X016443Y009679D01*
X008358Y016064D02*
X008051Y016064D01*
X008204Y016064D02*
X008204Y016524D01*
X008051Y016371D01*
X007897Y016064D02*
X007590Y016064D01*
X007744Y016064D02*
X007744Y016524D01*
X007590Y016371D01*
X007437Y016447D02*
X007360Y016524D01*
X007207Y016524D01*
X007130Y016447D01*
X007130Y016140D01*
X007207Y016064D01*
X007360Y016064D01*
X007437Y016140D01*
X006638Y014206D02*
X006408Y013976D01*
X006715Y013976D01*
X006638Y013746D02*
X006638Y014206D01*
X006255Y014129D02*
X006178Y014206D01*
X006025Y014206D01*
X005948Y014129D01*
X005948Y013822D01*
X006025Y013746D01*
X006178Y013746D01*
X006255Y013822D01*
X006153Y013351D02*
X006000Y013351D01*
X005923Y013274D01*
X005923Y012967D01*
X006000Y012891D01*
X006153Y012891D01*
X006230Y012967D01*
X006383Y012967D02*
X006460Y012891D01*
X006613Y012891D01*
X006690Y012967D01*
X006690Y013044D01*
X006613Y013121D01*
X006537Y013121D01*
X006613Y013121D02*
X006690Y013198D01*
X006690Y013274D01*
X006613Y013351D01*
X006460Y013351D01*
X006383Y013274D01*
X006230Y013274D02*
X006153Y013351D01*
D17*
X015489Y013941D02*
X015489Y016641D01*
X015789Y016641D02*
X015789Y013941D01*
X015790Y013903D01*
X015795Y013866D01*
X015802Y013829D01*
X015811Y013793D01*
X015824Y013757D01*
X015839Y013723D01*
X016739Y013280D02*
X016784Y013312D01*
X016826Y013348D01*
X016866Y013387D01*
X016903Y013429D01*
X016937Y013472D01*
X016968Y013519D01*
X016996Y013567D01*
X017020Y013617D01*
X017041Y013668D01*
X017058Y013721D01*
X017072Y013775D01*
X017081Y013830D01*
X017087Y013885D01*
X017089Y013941D01*
X017089Y016641D01*
X016789Y016641D02*
X016789Y013941D01*
X016788Y013903D01*
X016783Y013866D01*
X016776Y013829D01*
X016767Y013793D01*
X016754Y013757D01*
X016739Y013723D01*
X015839Y013280D02*
X015794Y013312D01*
X015752Y013348D01*
X015712Y013387D01*
X015675Y013428D01*
X015641Y013472D01*
X015610Y013519D01*
X015582Y013567D01*
X015558Y013617D01*
X015537Y013668D01*
X015520Y013721D01*
X015506Y013775D01*
X015497Y013830D01*
X015491Y013885D01*
X015489Y013941D01*
X016289Y014891D02*
X016289Y015041D01*
X016289Y015541D02*
X016289Y015691D01*
X017089Y016641D02*
X017087Y016697D01*
X017081Y016752D01*
X017072Y016807D01*
X017058Y016861D01*
X017041Y016914D01*
X017020Y016965D01*
X016996Y017015D01*
X016968Y017063D01*
X016937Y017110D01*
X016903Y017154D01*
X016866Y017195D01*
X016826Y017234D01*
X016784Y017270D01*
X016739Y017302D01*
X015839Y017302D02*
X015794Y017270D01*
X015752Y017234D01*
X015712Y017195D01*
X015675Y017153D01*
X015641Y017110D01*
X015610Y017063D01*
X015582Y017015D01*
X015558Y016965D01*
X015537Y016914D01*
X015520Y016861D01*
X015506Y016807D01*
X015497Y016752D01*
X015491Y016697D01*
X015489Y016641D01*
X015789Y016641D02*
X015790Y016679D01*
X015795Y016716D01*
X015802Y016753D01*
X015811Y016789D01*
X015824Y016825D01*
X015839Y016859D01*
X016739Y016859D02*
X016754Y016825D01*
X016767Y016789D01*
X016776Y016753D01*
X016783Y016716D01*
X016788Y016679D01*
X016789Y016641D01*
D18*
X016322Y018299D03*
X016322Y021576D03*
X016322Y022586D03*
D19*
X016329Y021655D03*
X016316Y018312D03*
D20*
X016322Y018325D03*
X016322Y021720D03*
X016322Y022546D03*
D21*
X016329Y021760D03*
X016722Y019937D03*
X016316Y018338D03*
D22*
X016322Y018351D03*
X016729Y019885D03*
X016322Y022520D03*
D23*
X016322Y022507D03*
X016322Y021838D03*
X016716Y019846D03*
X016322Y018364D03*
D24*
X016316Y018377D03*
X016329Y021865D03*
D25*
X016322Y021891D03*
X016322Y018390D03*
D26*
X016316Y018404D03*
D27*
X016322Y018417D03*
D28*
X016316Y018430D03*
D29*
X016316Y018443D03*
X016512Y022245D03*
X016526Y022258D03*
X016539Y022271D03*
X016539Y022284D03*
X016329Y022455D03*
D30*
X016526Y022337D03*
X016539Y022324D03*
X016552Y022310D03*
X016329Y022009D03*
X016316Y018456D03*
D31*
X016322Y018469D03*
X016322Y022035D03*
D32*
X016329Y022048D03*
X016316Y018482D03*
D33*
X016316Y018495D03*
X016329Y022061D03*
D34*
X016316Y018508D03*
D35*
X016316Y018522D03*
X016329Y022101D03*
D36*
X016322Y018535D03*
D37*
X016322Y018548D03*
X016322Y022127D03*
X016322Y022402D03*
D38*
X016316Y018561D03*
D39*
X016316Y018574D03*
X016329Y022153D03*
D40*
X016322Y018587D03*
D41*
X016316Y018600D03*
X016329Y022166D03*
D42*
X016316Y018613D03*
D43*
X016322Y018626D03*
D44*
X016316Y018640D03*
D45*
X016322Y018653D03*
D46*
X016316Y018666D03*
D47*
X016316Y018679D03*
D48*
X016322Y018692D03*
D49*
X016316Y018705D03*
D50*
X016322Y018718D03*
D51*
X016316Y018731D03*
D52*
X016322Y018744D03*
D53*
X016316Y018758D03*
X016316Y018771D03*
D54*
X016322Y018784D03*
D55*
X016316Y018797D03*
D56*
X016322Y018810D03*
D57*
X016316Y018823D03*
X016316Y018836D03*
D58*
X016322Y018849D03*
D59*
X016316Y018862D03*
D60*
X016322Y018876D03*
X016322Y018889D03*
D61*
X016316Y018902D03*
D62*
X016322Y018915D03*
X016322Y018928D03*
D63*
X016316Y018941D03*
X016316Y018954D03*
X016329Y019833D03*
D64*
X016322Y019819D03*
X016322Y019806D03*
X016322Y018967D03*
D65*
X016316Y018980D03*
X016316Y018994D03*
X016329Y019780D03*
X016329Y019793D03*
D66*
X016322Y019767D03*
X016322Y019754D03*
X016322Y019741D03*
X016322Y019728D03*
X016322Y019007D03*
D67*
X016316Y019020D03*
X016316Y019033D03*
D68*
X016322Y019046D03*
X016322Y019059D03*
D69*
X016316Y019072D03*
X016316Y019085D03*
D70*
X016322Y019098D03*
X016322Y019112D03*
D71*
X016316Y019125D03*
X016316Y019138D03*
X016316Y019151D03*
D72*
X016322Y019164D03*
X016322Y019177D03*
D73*
X016316Y019190D03*
X016316Y019203D03*
D74*
X016322Y019216D03*
X016322Y019230D03*
D75*
X016316Y019243D03*
D76*
X016322Y019256D03*
D77*
X016329Y019269D03*
D78*
X016322Y019282D03*
D79*
X016329Y019295D03*
X016329Y019308D03*
X016329Y019584D03*
D80*
X016329Y019557D03*
X016329Y019321D03*
D81*
X016322Y019334D03*
X016322Y019544D03*
D82*
X016329Y019531D03*
X016329Y019518D03*
X016329Y019505D03*
X016329Y019492D03*
X016329Y019479D03*
X016329Y019466D03*
X016329Y019452D03*
X016329Y019439D03*
X016329Y019426D03*
X016329Y019413D03*
X016329Y019400D03*
X016329Y019387D03*
X016329Y019374D03*
X016329Y019361D03*
X016329Y019348D03*
D83*
X016322Y019570D03*
D84*
X016329Y019597D03*
D85*
X016322Y019610D03*
D86*
X016322Y019623D03*
D87*
X015628Y020134D03*
X015601Y020121D03*
X015588Y020108D03*
X015562Y020095D03*
X015549Y020082D03*
X015536Y020069D03*
X015510Y020055D03*
X015392Y019846D03*
X016322Y021117D03*
D88*
X015660Y020147D03*
X015490Y020042D03*
X015385Y019859D03*
D89*
X016729Y019859D03*
X016729Y019872D03*
X016322Y021825D03*
D90*
X016322Y021104D03*
X015483Y020029D03*
X015470Y020016D03*
X015457Y020003D03*
X015444Y019990D03*
X015444Y019977D03*
X015431Y019964D03*
X015418Y019937D03*
X015405Y019924D03*
X015405Y019911D03*
X015392Y019885D03*
X015392Y019872D03*
D91*
X015398Y019898D03*
X015424Y019951D03*
X016329Y021091D03*
D92*
X016329Y021799D03*
X016722Y019898D03*
D93*
X016729Y019911D03*
X016322Y021786D03*
D94*
X016722Y019924D03*
D95*
X016722Y019951D03*
X016329Y021747D03*
D96*
X016735Y019964D03*
D97*
X016742Y019977D03*
D98*
X016729Y019990D03*
X016322Y021681D03*
D99*
X016322Y021668D03*
X016729Y020003D03*
D100*
X016729Y020016D03*
X015890Y022350D03*
D101*
X015903Y022376D03*
X016322Y021616D03*
X016742Y022179D03*
X016755Y022192D03*
X016729Y020029D03*
D102*
X016604Y020042D03*
D103*
X017352Y020042D03*
D104*
X016611Y020055D03*
D105*
X016617Y020069D03*
X016250Y020239D03*
X016250Y020252D03*
X016250Y020265D03*
D106*
X016257Y020291D03*
X016624Y020082D03*
D107*
X016630Y020095D03*
D108*
X016644Y020108D03*
D109*
X016650Y020121D03*
X016624Y020160D03*
X016322Y022651D03*
D110*
X016644Y020134D03*
D111*
X016637Y020147D03*
X016322Y021275D03*
D112*
X016322Y020763D03*
X015457Y020160D03*
D113*
X015844Y020160D03*
X016670Y021353D03*
X016670Y021366D03*
D114*
X016329Y021602D03*
X015923Y022389D03*
X016381Y020173D03*
D115*
X016375Y020187D03*
X016322Y021589D03*
D116*
X016368Y020200D03*
D117*
X016368Y020213D03*
D118*
X016250Y020226D03*
D119*
X016322Y020724D03*
X016716Y020318D03*
X016978Y020226D03*
D120*
X016991Y020239D03*
X016729Y020357D03*
X016322Y020672D03*
D121*
X016998Y020252D03*
D122*
X016250Y020278D03*
D123*
X016303Y020370D03*
X016709Y020305D03*
X015791Y020305D03*
D124*
X016270Y020305D03*
X016322Y021013D03*
D125*
X016322Y020698D03*
X016322Y020685D03*
X016729Y020344D03*
X015772Y020318D03*
D126*
X016270Y020318D03*
X016322Y020973D03*
X016034Y021366D03*
X017070Y021970D03*
D127*
X015752Y020331D03*
D128*
X016276Y020331D03*
D129*
X016322Y020711D03*
X016716Y020331D03*
D130*
X016290Y020344D03*
X016644Y021301D03*
X016644Y021314D03*
X016657Y021327D03*
D131*
X016290Y020357D03*
X015228Y022310D03*
X015254Y022337D03*
D132*
X016735Y020370D03*
D133*
X016742Y020383D03*
X016322Y020632D03*
X016322Y020645D03*
D134*
X016322Y020619D03*
X016742Y020396D03*
D135*
X016322Y020606D03*
D136*
X016322Y020659D03*
D137*
X016322Y020737D03*
X016322Y020750D03*
D138*
X016322Y020777D03*
D139*
X016322Y020790D03*
X016322Y020803D03*
D140*
X016322Y020816D03*
X015234Y022284D03*
X015234Y022297D03*
D141*
X015234Y022324D03*
X016322Y020829D03*
D142*
X016329Y020842D03*
D143*
X016322Y020855D03*
D144*
X016322Y020868D03*
D145*
X016322Y020881D03*
X016322Y020895D03*
X016624Y021288D03*
X016663Y021340D03*
X016322Y022704D03*
D146*
X016322Y020908D03*
D147*
X016322Y020921D03*
X016676Y021393D03*
D148*
X016322Y020947D03*
X016322Y020934D03*
D149*
X016322Y020960D03*
X016060Y021314D03*
X016047Y021327D03*
X017043Y021930D03*
X017057Y021943D03*
D150*
X016322Y020999D03*
X016322Y020986D03*
X016034Y021380D03*
X016034Y021393D03*
D151*
X016322Y021026D03*
X016322Y022691D03*
D152*
X016322Y021052D03*
X016322Y021039D03*
D153*
X016322Y021065D03*
D154*
X016322Y021078D03*
D155*
X016322Y021131D03*
X015549Y022192D03*
X017109Y022376D03*
D156*
X017116Y022363D03*
X016329Y021144D03*
X015555Y022179D03*
X015542Y022206D03*
D157*
X016322Y021157D03*
D158*
X016322Y021170D03*
X017122Y022350D03*
D159*
X016322Y021183D03*
D160*
X016329Y021196D03*
D161*
X016322Y021209D03*
X016322Y022664D03*
D162*
X016322Y021222D03*
D163*
X016322Y021235D03*
D164*
X016329Y021249D03*
D165*
X016322Y021262D03*
D166*
X016080Y021288D03*
X016041Y021340D03*
X016041Y021353D03*
X017037Y021917D03*
X017063Y021956D03*
D167*
X016670Y021406D03*
X016067Y021301D03*
D168*
X016670Y021380D03*
D169*
X016041Y021406D03*
D170*
X016322Y021419D03*
X016322Y022625D03*
D171*
X016322Y021432D03*
D172*
X016329Y021445D03*
D173*
X016322Y021458D03*
D174*
X016322Y021471D03*
X016322Y022612D03*
D175*
X016322Y021484D03*
D176*
X016329Y021498D03*
D177*
X016322Y021511D03*
X016008Y021943D03*
D178*
X015995Y021970D03*
X016322Y021524D03*
X016322Y022599D03*
D179*
X015995Y021983D03*
X016322Y021537D03*
D180*
X016329Y021550D03*
X016001Y021996D03*
D181*
X016322Y021563D03*
D182*
X016322Y021629D03*
X015890Y022363D03*
X016322Y022573D03*
D183*
X016762Y022219D03*
X016329Y021642D03*
D184*
X016329Y021694D03*
D185*
X016329Y021707D03*
D186*
X016322Y021734D03*
D187*
X016322Y021773D03*
D188*
X016329Y021812D03*
D189*
X016329Y021852D03*
D190*
X016322Y021878D03*
X016322Y022494D03*
D191*
X016329Y021904D03*
D192*
X016027Y021917D03*
X016014Y021930D03*
X016001Y021956D03*
D193*
X017063Y021983D03*
D194*
X017063Y021996D03*
D195*
X016322Y022022D03*
D196*
X016322Y022074D03*
D197*
X016322Y022088D03*
X016322Y022415D03*
D198*
X016329Y022114D03*
D199*
X016322Y022140D03*
D200*
X016762Y022206D03*
D201*
X015542Y022219D03*
D202*
X016322Y022232D03*
D203*
X015267Y022245D03*
X015254Y022258D03*
X015241Y022271D03*
D204*
X016545Y022297D03*
D205*
X016316Y022678D03*
X017089Y022389D03*
D206*
X016322Y022428D03*
D207*
X016329Y022442D03*
D208*
X016329Y022468D03*
D209*
X016322Y022481D03*
D210*
X016322Y022533D03*
D211*
X016329Y022560D03*
D212*
X016322Y022638D03*
M02*
