G75*
%MOIN*%
%OFA0B0*%
%FSLAX24Y24*%
%IPPOS*%
%LPD*%
%AMOC8*
5,1,8,0,0,1.08239X$1,22.5*
%
%ADD10C,0.0160*%
%ADD11C,0.0540*%
%ADD12OC8,0.0540*%
%ADD13R,0.0312X0.0004*%
%ADD14R,0.0344X0.0004*%
%ADD15R,0.0368X0.0004*%
%ADD16R,0.0392X0.0004*%
%ADD17R,0.0408X0.0004*%
%ADD18R,0.0424X0.0004*%
%ADD19R,0.0432X0.0004*%
%ADD20R,0.0448X0.0004*%
%ADD21R,0.0456X0.0004*%
%ADD22R,0.0472X0.0004*%
%ADD23R,0.0480X0.0004*%
%ADD24R,0.0488X0.0004*%
%ADD25R,0.0496X0.0004*%
%ADD26R,0.0504X0.0004*%
%ADD27R,0.0512X0.0004*%
%ADD28R,0.0520X0.0004*%
%ADD29R,0.0528X0.0004*%
%ADD30R,0.0536X0.0004*%
%ADD31R,0.0536X0.0004*%
%ADD32R,0.0544X0.0004*%
%ADD33R,0.0552X0.0004*%
%ADD34R,0.0560X0.0004*%
%ADD35R,0.0560X0.0004*%
%ADD36R,0.0568X0.0004*%
%ADD37R,0.0576X0.0004*%
%ADD38R,0.0584X0.0004*%
%ADD39R,0.0592X0.0004*%
%ADD40R,0.0592X0.0004*%
%ADD41R,0.0600X0.0004*%
%ADD42R,0.0608X0.0004*%
%ADD43R,0.0608X0.0004*%
%ADD44R,0.0616X0.0004*%
%ADD45R,0.0624X0.0004*%
%ADD46R,0.0632X0.0004*%
%ADD47R,0.0632X0.0004*%
%ADD48R,0.0640X0.0004*%
%ADD49R,0.0648X0.0004*%
%ADD50R,0.0648X0.0004*%
%ADD51R,0.0656X0.0004*%
%ADD52R,0.0664X0.0004*%
%ADD53R,0.0664X0.0004*%
%ADD54R,0.0672X0.0004*%
%ADD55R,0.0680X0.0004*%
%ADD56R,0.0680X0.0004*%
%ADD57R,0.0688X0.0004*%
%ADD58R,0.0696X0.0004*%
%ADD59R,0.0700X0.0004*%
%ADD60R,0.0708X0.0004*%
%ADD61R,0.0716X0.0004*%
%ADD62R,0.0720X0.0004*%
%ADD63R,0.0720X0.0004*%
%ADD64R,0.0724X0.0004*%
%ADD65R,0.0808X0.0004*%
%ADD66R,0.0824X0.0004*%
%ADD67R,0.0832X0.0004*%
%ADD68R,0.0840X0.0004*%
%ADD69R,0.0848X0.0004*%
%ADD70R,0.0856X0.0004*%
%ADD71R,0.0860X0.0004*%
%ADD72R,0.0864X0.0004*%
%ADD73R,0.0864X0.0004*%
%ADD74R,0.0868X0.0004*%
%ADD75R,0.0872X0.0004*%
%ADD76R,0.0872X0.0004*%
%ADD77R,0.0860X0.0004*%
%ADD78R,0.0832X0.0004*%
%ADD79R,0.0824X0.0004*%
%ADD80R,0.0708X0.0004*%
%ADD81R,0.0712X0.0004*%
%ADD82R,0.0712X0.0004*%
%ADD83R,0.0700X0.0004*%
%ADD84R,0.0696X0.0004*%
%ADD85R,0.0692X0.0004*%
%ADD86R,0.0668X0.0004*%
%ADD87R,0.0660X0.0004*%
%ADD88R,0.0452X0.0004*%
%ADD89R,0.0188X0.0004*%
%ADD90R,0.0448X0.0004*%
%ADD91R,0.0440X0.0004*%
%ADD92R,0.0184X0.0004*%
%ADD93R,0.0432X0.0004*%
%ADD94R,0.0184X0.0004*%
%ADD95R,0.0424X0.0004*%
%ADD96R,0.0412X0.0004*%
%ADD97R,0.0128X0.0004*%
%ADD98R,0.0044X0.0004*%
%ADD99R,0.0400X0.0004*%
%ADD100R,0.0008X0.0004*%
%ADD101R,0.0388X0.0004*%
%ADD102R,0.0132X0.0004*%
%ADD103R,0.0360X0.0004*%
%ADD104R,0.0136X0.0004*%
%ADD105R,0.0340X0.0004*%
%ADD106R,0.0140X0.0004*%
%ADD107R,0.0328X0.0004*%
%ADD108R,0.0144X0.0004*%
%ADD109R,0.0324X0.0004*%
%ADD110R,0.0148X0.0004*%
%ADD111R,0.0320X0.0004*%
%ADD112R,0.0156X0.0004*%
%ADD113R,0.0316X0.0004*%
%ADD114R,0.0176X0.0004*%
%ADD115R,0.0080X0.0004*%
%ADD116R,0.0052X0.0004*%
%ADD117R,0.0380X0.0004*%
%ADD118R,0.0372X0.0004*%
%ADD119R,0.0356X0.0004*%
%ADD120R,0.0004X0.0004*%
%ADD121R,0.0308X0.0004*%
%ADD122R,0.0060X0.0004*%
%ADD123R,0.0240X0.0004*%
%ADD124R,0.0232X0.0004*%
%ADD125R,0.0044X0.0004*%
%ADD126R,0.0164X0.0004*%
%ADD127R,0.0056X0.0004*%
%ADD128R,0.0036X0.0004*%
%ADD129R,0.0156X0.0004*%
%ADD130R,0.0048X0.0004*%
%ADD131R,0.0024X0.0004*%
%ADD132R,0.0036X0.0004*%
%ADD133R,0.0016X0.0004*%
%ADD134R,0.0028X0.0004*%
%ADD135R,0.0012X0.0004*%
%ADD136R,0.0124X0.0004*%
%ADD137R,0.0108X0.0004*%
%ADD138R,0.0008X0.0004*%
%ADD139R,0.0092X0.0004*%
%ADD140R,0.0068X0.0004*%
%ADD141R,0.0008X0.0004*%
%ADD142R,0.0016X0.0004*%
%ADD143R,0.0024X0.0004*%
%ADD144R,0.0032X0.0004*%
%ADD145R,0.0032X0.0004*%
%ADD146R,0.0040X0.0004*%
%ADD147R,0.0056X0.0004*%
%ADD148R,0.0064X0.0004*%
%ADD149R,0.0072X0.0004*%
%ADD150R,0.0088X0.0004*%
%ADD151R,0.0096X0.0004*%
%ADD152R,0.0104X0.0004*%
%ADD153R,0.0112X0.0004*%
%ADD154R,0.0120X0.0004*%
%ADD155R,0.0124X0.0004*%
%ADD156R,0.0128X0.0004*%
%ADD157R,0.0144X0.0004*%
%ADD158R,0.0152X0.0004*%
%ADD159R,0.0152X0.0004*%
%ADD160R,0.0160X0.0004*%
%ADD161R,0.0168X0.0004*%
%ADD162R,0.0176X0.0004*%
%ADD163R,0.0184X0.0004*%
%ADD164R,0.0192X0.0004*%
%ADD165R,0.0200X0.0004*%
%ADD166R,0.0208X0.0004*%
%ADD167R,0.0216X0.0004*%
%ADD168R,0.0216X0.0004*%
%ADD169R,0.0224X0.0004*%
%ADD170R,0.0232X0.0004*%
%ADD171R,0.0240X0.0004*%
%ADD172R,0.0248X0.0004*%
%ADD173R,0.0256X0.0004*%
%ADD174R,0.0264X0.0004*%
%ADD175R,0.0272X0.0004*%
%ADD176R,0.0280X0.0004*%
%ADD177R,0.0288X0.0004*%
%ADD178R,0.0296X0.0004*%
%ADD179R,0.0304X0.0004*%
%ADD180R,0.0320X0.0004*%
%ADD181R,0.0328X0.0004*%
%ADD182R,0.0336X0.0004*%
%ADD183R,0.0336X0.0004*%
%ADD184R,0.0200X0.0004*%
%ADD185R,0.0128X0.0004*%
%ADD186R,0.0204X0.0004*%
%ADD187R,0.0216X0.0004*%
%ADD188R,0.0228X0.0004*%
%ADD189R,0.0416X0.0004*%
%ADD190R,0.0424X0.0004*%
%ADD191R,0.0428X0.0004*%
%ADD192R,0.0304X0.0004*%
%ADD193R,0.0180X0.0004*%
%ADD194R,0.0112X0.0004*%
%ADD195R,0.0176X0.0004*%
%ADD196R,0.0112X0.0004*%
%ADD197R,0.0132X0.0004*%
%ADD198R,0.0116X0.0004*%
%ADD199R,0.0332X0.0004*%
%ADD200R,0.0336X0.0004*%
%ADD201R,0.0480X0.0004*%
%ADD202R,0.0496X0.0004*%
%ADD203R,0.0512X0.0004*%
%ADD204R,0.0544X0.0004*%
%ADD205R,0.0208X0.0004*%
%ADD206R,0.0356X0.0004*%
%ADD207R,0.0208X0.0004*%
%ADD208R,0.0364X0.0004*%
%ADD209R,0.0212X0.0004*%
%ADD210R,0.0368X0.0004*%
%ADD211R,0.0220X0.0004*%
%ADD212R,0.0600X0.0004*%
%ADD213R,0.0356X0.0004*%
%ADD214R,0.0228X0.0004*%
%ADD215R,0.0236X0.0004*%
%ADD216R,0.0360X0.0004*%
%ADD217R,0.0368X0.0004*%
%ADD218R,0.0244X0.0004*%
%ADD219R,0.0252X0.0004*%
%ADD220R,0.0376X0.0004*%
%ADD221R,0.0672X0.0004*%
%ADD222R,0.0624X0.0004*%
%ADD223R,0.0596X0.0004*%
%ADD224R,0.0552X0.0004*%
%ADD225R,0.0456X0.0004*%
%ADD226R,0.0384X0.0004*%
%ADD227R,0.0352X0.0004*%
%ADD228R,0.0188X0.0004*%
%ADD229R,0.0108X0.0004*%
%ADD230R,0.0220X0.0500*%
%ADD231R,0.0500X0.0220*%
%ADD232C,0.1000*%
%ADD233C,0.0886*%
%ADD234C,0.0000*%
%ADD235C,0.1306*%
%ADD236R,0.0157X0.0531*%
%ADD237R,0.0591X0.0748*%
%ADD238C,0.0679*%
%ADD239C,0.0502*%
%ADD240R,0.0630X0.0512*%
%ADD241R,0.0591X0.0512*%
%ADD242R,0.0512X0.0591*%
%ADD243R,0.0984X0.1378*%
%ADD244R,0.1378X0.0984*%
%ADD245R,0.0760X0.2100*%
%ADD246C,0.0356*%
D10*
X003629Y003256D02*
X019770Y003256D01*
X019770Y022941D01*
X003629Y022941D01*
X003629Y003256D01*
X003989Y004232D02*
X003989Y004357D01*
X004005Y004341D01*
X004394Y004341D01*
X004669Y004616D01*
X004669Y005005D01*
X004394Y005281D01*
X004005Y005281D01*
X003989Y005265D01*
X003989Y005357D01*
X004005Y005341D01*
X004394Y005341D01*
X004669Y005616D01*
X004669Y006005D01*
X004394Y006281D01*
X004005Y006281D01*
X003989Y006265D01*
X003989Y006357D01*
X004005Y006341D01*
X004394Y006341D01*
X004669Y006616D01*
X004669Y007005D01*
X004394Y007281D01*
X004005Y007281D01*
X003989Y007265D01*
X003989Y007357D01*
X004005Y007341D01*
X004394Y007341D01*
X004669Y007616D01*
X004669Y008005D01*
X004394Y008281D01*
X004005Y008281D01*
X003989Y008265D01*
X003989Y008357D01*
X004005Y008341D01*
X004394Y008341D01*
X004669Y008616D01*
X004669Y009005D01*
X004394Y009281D01*
X004005Y009281D01*
X003989Y009265D01*
X003989Y009357D01*
X004005Y009341D01*
X004394Y009341D01*
X004669Y009616D01*
X004669Y010005D01*
X004394Y010281D01*
X004005Y010281D01*
X003989Y010265D01*
X003989Y010357D01*
X004005Y010341D01*
X004394Y010341D01*
X004669Y010616D01*
X004669Y011005D01*
X004394Y011281D01*
X004005Y011281D01*
X003989Y011265D01*
X003989Y011357D01*
X004005Y011341D01*
X004394Y011341D01*
X004669Y011616D01*
X004669Y012005D01*
X004394Y012281D01*
X004005Y012281D01*
X003989Y012265D01*
X003989Y012357D01*
X004005Y012341D01*
X004394Y012341D01*
X004669Y012616D01*
X004669Y013005D01*
X004394Y013281D01*
X004005Y013281D01*
X003989Y013265D01*
X003989Y013357D01*
X004005Y013341D01*
X004394Y013341D01*
X004669Y013616D01*
X004669Y014005D01*
X004394Y014281D01*
X004005Y014281D01*
X003989Y014265D01*
X003989Y014357D01*
X004005Y014341D01*
X004394Y014341D01*
X004669Y014616D01*
X004669Y015005D01*
X004394Y015281D01*
X004005Y015281D01*
X003989Y015265D01*
X003989Y015357D01*
X004005Y015341D01*
X004394Y015341D01*
X004669Y015616D01*
X004669Y016005D01*
X004394Y016281D01*
X004005Y016281D01*
X003989Y016265D01*
X003989Y016357D01*
X004005Y016341D01*
X004394Y016341D01*
X004669Y016616D01*
X004669Y017005D01*
X004394Y017281D01*
X004005Y017281D01*
X003989Y017265D01*
X003989Y017357D01*
X004005Y017341D01*
X004394Y017341D01*
X004669Y017616D01*
X004669Y018005D01*
X004394Y018281D01*
X004005Y018281D01*
X003989Y018265D01*
X003989Y018357D01*
X004005Y018341D01*
X004394Y018341D01*
X004669Y018616D01*
X004669Y019005D01*
X004394Y019281D01*
X004005Y019281D01*
X003989Y019265D01*
X003989Y019357D01*
X004005Y019341D01*
X004394Y019341D01*
X004669Y019616D01*
X004669Y020005D01*
X004394Y020281D01*
X004005Y020281D01*
X003989Y020265D01*
X003989Y020385D01*
X004013Y020361D01*
X004189Y020361D01*
X004189Y020801D01*
X004209Y020801D01*
X004209Y020361D01*
X004386Y020361D01*
X004649Y020624D01*
X004649Y020801D01*
X004209Y020801D01*
X004209Y020821D01*
X004189Y020821D01*
X004189Y021261D01*
X004013Y021261D01*
X003989Y021236D01*
X003989Y022581D01*
X006501Y022581D01*
X006479Y022512D01*
X006466Y022431D01*
X006466Y022424D01*
X006952Y022424D01*
X006952Y022357D01*
X007019Y022357D01*
X007019Y021871D01*
X007027Y021871D01*
X007107Y021884D01*
X007185Y021909D01*
X007258Y021946D01*
X007324Y021994D01*
X007382Y022052D01*
X007430Y022118D01*
X007467Y022191D01*
X007475Y022214D01*
X007475Y021930D01*
X007592Y021813D01*
X008348Y021813D01*
X008366Y021830D01*
X008379Y021817D01*
X009135Y021817D01*
X009253Y021934D01*
X009253Y022214D01*
X009260Y022191D01*
X009297Y022118D01*
X009345Y022052D01*
X009403Y021994D01*
X009469Y021946D01*
X009542Y021909D01*
X009620Y021884D01*
X009701Y021871D01*
X009708Y021871D01*
X009708Y022357D01*
X009775Y022357D01*
X009775Y021871D01*
X009782Y021871D01*
X009863Y021884D01*
X009941Y021909D01*
X010014Y021946D01*
X010080Y021994D01*
X010138Y022052D01*
X010186Y022118D01*
X010223Y022191D01*
X010248Y022269D01*
X010261Y022350D01*
X010261Y022357D01*
X009775Y022357D01*
X009775Y022424D01*
X010261Y022424D01*
X010261Y022431D01*
X010248Y022512D01*
X010226Y022581D01*
X017969Y022581D01*
X017969Y022433D01*
X017977Y022425D01*
X017977Y022421D01*
X017989Y022409D01*
X017989Y022405D01*
X017993Y022401D01*
X017993Y022401D01*
X018001Y022393D01*
X018001Y022389D01*
X018009Y022381D01*
X018009Y022381D01*
X018013Y022377D01*
X018013Y022373D01*
X018025Y022361D01*
X018025Y022357D01*
X018037Y022345D01*
X018037Y022341D01*
X018049Y022329D01*
X018049Y022325D01*
X018053Y022321D01*
X018053Y022321D01*
X018061Y022313D01*
X018061Y022309D01*
X018069Y022301D01*
X018069Y022301D01*
X018073Y022297D01*
X018073Y022293D01*
X018081Y022285D01*
X018081Y022281D01*
X018093Y022269D01*
X018093Y022265D01*
X018097Y022261D01*
X018097Y022261D01*
X018105Y022253D01*
X018105Y022249D01*
X018117Y022237D01*
X018117Y022233D01*
X018129Y022221D01*
X018129Y022217D01*
X018141Y022205D01*
X018141Y022201D01*
X018153Y022189D01*
X018153Y022185D01*
X018157Y022181D01*
X018157Y022181D01*
X018165Y022173D01*
X018165Y022169D01*
X018173Y022161D01*
X018173Y022161D01*
X018177Y022157D01*
X018177Y022153D01*
X018188Y022142D01*
X018170Y022124D01*
X018106Y022124D01*
X017989Y022006D01*
X017989Y021990D01*
X017985Y021986D01*
X017985Y021978D01*
X017877Y021870D01*
X017877Y021862D01*
X017873Y021858D01*
X017873Y021854D01*
X017873Y021677D01*
X017873Y021669D01*
X017877Y021665D01*
X017877Y021657D01*
X017977Y021557D01*
X017977Y021557D01*
X017981Y021553D01*
X017981Y021549D01*
X017985Y021545D01*
X017985Y021537D01*
X017989Y021533D01*
X017989Y021529D01*
X017993Y021525D01*
X017993Y021521D01*
X017997Y021517D01*
X017997Y021513D01*
X018001Y021509D01*
X018001Y021505D01*
X018005Y021501D01*
X018005Y021497D01*
X018009Y021493D01*
X018009Y021489D01*
X018013Y021485D01*
X018013Y021481D01*
X018021Y021473D01*
X018021Y021469D01*
X018029Y021461D01*
X018029Y021457D01*
X018041Y021445D01*
X018041Y021441D01*
X018061Y021421D01*
X018061Y021421D01*
X018178Y021304D01*
X018182Y021300D01*
X018186Y021296D01*
X018190Y021292D01*
X018194Y021292D01*
X018202Y021284D01*
X018206Y021284D01*
X018210Y021280D01*
X018214Y021276D01*
X018218Y021276D01*
X018222Y021272D01*
X018226Y021272D01*
X018230Y021268D01*
X018238Y021268D01*
X018242Y021264D01*
X018250Y021264D01*
X018253Y021261D01*
X018209Y021261D01*
X018209Y020821D01*
X018189Y020821D01*
X018189Y020801D01*
X017749Y020801D01*
X017749Y020624D01*
X018013Y020361D01*
X018189Y020361D01*
X018189Y020801D01*
X018209Y020801D01*
X018209Y020361D01*
X018386Y020361D01*
X018649Y020624D01*
X018649Y020801D01*
X018209Y020801D01*
X018209Y020821D01*
X018649Y020821D01*
X018649Y020997D01*
X018391Y021256D01*
X018747Y021256D01*
X018751Y021260D01*
X018763Y021260D01*
X018767Y021264D01*
X018775Y021264D01*
X018779Y021268D01*
X018787Y021268D01*
X018791Y021272D01*
X018795Y021272D01*
X018799Y021276D01*
X018803Y021276D01*
X018807Y021280D01*
X018811Y021284D01*
X018815Y021284D01*
X018823Y021292D01*
X018827Y021292D01*
X018831Y021296D01*
X018835Y021300D01*
X018839Y021304D01*
X018957Y021421D01*
X018977Y021441D01*
X018977Y021445D01*
X018989Y021457D01*
X018989Y021461D01*
X018997Y021469D01*
X018997Y021473D01*
X019005Y021481D01*
X019005Y021485D01*
X019009Y021489D01*
X019009Y021493D01*
X019013Y021497D01*
X019013Y021501D01*
X019017Y021505D01*
X019017Y021509D01*
X019021Y021513D01*
X019021Y021517D01*
X019025Y021521D01*
X019025Y021525D01*
X019029Y021529D01*
X019029Y021533D01*
X019033Y021537D01*
X019033Y021545D01*
X019037Y021549D01*
X019037Y021553D01*
X019041Y021557D01*
X019125Y021641D01*
X019137Y021653D01*
X019137Y021657D01*
X019141Y021661D01*
X019141Y021673D01*
X019145Y021677D01*
X019145Y021854D01*
X019141Y021858D01*
X019141Y021866D01*
X019137Y021870D01*
X019137Y021874D01*
X019133Y021878D01*
X019121Y021890D01*
X019121Y021890D01*
X019049Y021962D01*
X019049Y021970D01*
X019045Y021974D01*
X019045Y021978D01*
X019041Y021982D01*
X019041Y021986D01*
X019037Y021990D01*
X019037Y021990D01*
X019033Y021994D01*
X019033Y021998D01*
X019029Y022002D01*
X019025Y022006D01*
X019021Y022010D01*
X019021Y022010D01*
X018903Y022128D01*
X018895Y022136D01*
X018891Y022136D01*
X018883Y022144D01*
X018879Y022144D01*
X018875Y022148D01*
X018871Y022148D01*
X018867Y022152D01*
X018863Y022152D01*
X018859Y022156D01*
X018847Y022156D01*
X018843Y022160D01*
X018845Y022161D01*
X018853Y022169D01*
X018853Y022173D01*
X018861Y022181D01*
X018865Y022185D01*
X018865Y022189D01*
X018877Y022201D01*
X018877Y022205D01*
X018889Y022217D01*
X018889Y022221D01*
X018901Y022233D01*
X018901Y022237D01*
X018905Y022241D01*
X018913Y022249D01*
X018913Y022253D01*
X018921Y022261D01*
X018921Y022265D01*
X018937Y022281D01*
X018937Y022285D01*
X018945Y022293D01*
X018945Y022297D01*
X018949Y022301D01*
X018957Y022309D01*
X018957Y022313D01*
X018965Y022321D01*
X018969Y022325D01*
X018969Y022329D01*
X018981Y022341D01*
X018981Y022345D01*
X018993Y022357D01*
X018993Y022361D01*
X019005Y022373D01*
X019005Y022377D01*
X019009Y022381D01*
X019017Y022389D01*
X019017Y022393D01*
X019025Y022401D01*
X019029Y022405D01*
X019029Y022409D01*
X019041Y022421D01*
X019041Y022425D01*
X019049Y022433D01*
X019049Y022581D01*
X019410Y022581D01*
X019410Y021265D01*
X019394Y021281D01*
X019005Y021281D01*
X018729Y021005D01*
X018729Y020616D01*
X019005Y020341D01*
X019394Y020341D01*
X019410Y020357D01*
X019410Y020265D01*
X019394Y020281D01*
X019005Y020281D01*
X018729Y020005D01*
X018729Y019616D01*
X019005Y019341D01*
X019394Y019341D01*
X019410Y019357D01*
X019410Y019265D01*
X019394Y019281D01*
X019005Y019281D01*
X018729Y019005D01*
X018729Y018616D01*
X019005Y018341D01*
X019394Y018341D01*
X019410Y018357D01*
X019410Y018265D01*
X019394Y018281D01*
X019005Y018281D01*
X018729Y018005D01*
X018729Y017616D01*
X019005Y017341D01*
X019394Y017341D01*
X019410Y017357D01*
X019410Y017265D01*
X019394Y017281D01*
X019005Y017281D01*
X018729Y017005D01*
X018729Y016616D01*
X019005Y016341D01*
X019394Y016341D01*
X019410Y016357D01*
X019410Y016265D01*
X019394Y016281D01*
X019005Y016281D01*
X018729Y016005D01*
X018729Y015616D01*
X019005Y015341D01*
X019394Y015341D01*
X019410Y015357D01*
X019410Y015265D01*
X019394Y015281D01*
X019005Y015281D01*
X018729Y015005D01*
X018729Y014616D01*
X019005Y014341D01*
X019394Y014341D01*
X019410Y014357D01*
X019410Y014265D01*
X019394Y014281D01*
X019005Y014281D01*
X018729Y014005D01*
X018729Y013616D01*
X019005Y013341D01*
X019394Y013341D01*
X019410Y013357D01*
X019410Y013265D01*
X019394Y013281D01*
X019005Y013281D01*
X018729Y013005D01*
X018729Y012616D01*
X019005Y012341D01*
X019394Y012341D01*
X019410Y012357D01*
X019410Y012265D01*
X019394Y012281D01*
X019005Y012281D01*
X018729Y012005D01*
X018729Y011616D01*
X019005Y011341D01*
X019394Y011341D01*
X019410Y011357D01*
X019410Y011265D01*
X019394Y011281D01*
X019005Y011281D01*
X018729Y011005D01*
X018729Y010616D01*
X019005Y010341D01*
X019394Y010341D01*
X019410Y010357D01*
X019410Y010265D01*
X019394Y010281D01*
X019005Y010281D01*
X018729Y010005D01*
X018729Y009616D01*
X019005Y009341D01*
X019394Y009341D01*
X019410Y009357D01*
X019410Y009265D01*
X019394Y009281D01*
X019005Y009281D01*
X018729Y009005D01*
X018729Y008616D01*
X019005Y008341D01*
X019394Y008341D01*
X019410Y008357D01*
X019410Y008265D01*
X019394Y008281D01*
X019005Y008281D01*
X018729Y008005D01*
X018729Y007616D01*
X019005Y007341D01*
X019394Y007341D01*
X019410Y007357D01*
X019410Y007265D01*
X019394Y007281D01*
X019005Y007281D01*
X018729Y007005D01*
X018729Y006616D01*
X019005Y006341D01*
X019394Y006341D01*
X019410Y006357D01*
X019410Y006265D01*
X019394Y006281D01*
X019005Y006281D01*
X018729Y006005D01*
X018729Y005616D01*
X019005Y005341D01*
X019394Y005341D01*
X019410Y005357D01*
X019410Y005265D01*
X019394Y005281D01*
X019005Y005281D01*
X018729Y005005D01*
X018729Y004616D01*
X019005Y004341D01*
X019394Y004341D01*
X019410Y004357D01*
X019410Y004265D01*
X019394Y004281D01*
X019005Y004281D01*
X018729Y004005D01*
X018729Y003616D01*
X018730Y003616D01*
X018627Y003616D01*
X018669Y003717D01*
X018669Y003904D01*
X018598Y004077D01*
X018466Y004209D01*
X018293Y004281D01*
X018106Y004281D01*
X017933Y004209D01*
X017801Y004077D01*
X017729Y003904D01*
X017729Y003717D01*
X017772Y003616D01*
X016753Y003616D01*
X016940Y003802D01*
X017045Y004057D01*
X017045Y004333D01*
X016940Y004588D01*
X016745Y004783D01*
X016490Y004889D01*
X016214Y004889D01*
X015959Y004783D01*
X015764Y004588D01*
X015658Y004333D01*
X015658Y004057D01*
X015764Y003802D01*
X015951Y003616D01*
X013406Y003616D01*
X013593Y003802D01*
X013699Y004057D01*
X013699Y004333D01*
X013593Y004588D01*
X013398Y004783D01*
X013143Y004889D01*
X012867Y004889D01*
X012613Y004783D01*
X012418Y004588D01*
X012312Y004333D01*
X012312Y004057D01*
X012418Y003802D01*
X012604Y003616D01*
X008936Y003616D01*
X008964Y003627D01*
X009042Y003672D01*
X009112Y003726D01*
X009175Y003789D01*
X009230Y003860D01*
X009274Y003937D01*
X009308Y004020D01*
X009331Y004106D01*
X009340Y004171D01*
X008731Y004171D01*
X008731Y004306D01*
X009340Y004306D01*
X009331Y004372D01*
X009308Y004458D01*
X009274Y004540D01*
X009230Y004617D01*
X009175Y004688D01*
X009112Y004751D01*
X009042Y004805D01*
X008989Y004836D01*
X010533Y004836D01*
X010554Y004814D01*
X010517Y004814D01*
X010306Y004726D01*
X010144Y004564D01*
X010056Y004353D01*
X010056Y004124D01*
X010144Y003913D01*
X010306Y003751D01*
X010517Y003663D01*
X010746Y003663D01*
X010957Y003751D01*
X011119Y003913D01*
X011207Y004124D01*
X011207Y004347D01*
X011209Y004347D01*
X011209Y004288D01*
X011326Y004171D01*
X012121Y004171D01*
X012239Y004288D01*
X012239Y004965D01*
X012187Y005016D01*
X012206Y005049D01*
X012219Y005095D01*
X012219Y005327D01*
X011772Y005327D01*
X011772Y005423D01*
X011676Y005423D01*
X011676Y005811D01*
X011385Y005811D01*
X011339Y005798D01*
X011298Y005775D01*
X011265Y005741D01*
X011241Y005700D01*
X011229Y005654D01*
X011229Y005423D01*
X011676Y005423D01*
X011676Y005327D01*
X011229Y005327D01*
X011229Y005095D01*
X011241Y005049D01*
X011260Y005016D01*
X011209Y004965D01*
X011209Y004952D01*
X010886Y005274D01*
X010807Y005353D01*
X010704Y005396D01*
X007863Y005396D01*
X007694Y005564D01*
X007846Y005564D01*
X008082Y005662D01*
X008238Y005818D01*
X008337Y005719D01*
X008549Y005632D01*
X008777Y005632D01*
X008989Y005719D01*
X009088Y005818D01*
X009244Y005662D01*
X009480Y005564D01*
X009736Y005564D01*
X009972Y005662D01*
X010139Y005829D01*
X010307Y005662D01*
X010543Y005564D01*
X010799Y005564D01*
X011035Y005662D01*
X011216Y005843D01*
X011314Y006079D01*
X011314Y006335D01*
X011216Y006571D01*
X011035Y006752D01*
X010951Y006787D01*
X010951Y006942D01*
X011145Y007136D01*
X011289Y007136D01*
X011289Y007121D01*
X011340Y007070D01*
X011321Y007037D01*
X011309Y006991D01*
X011309Y006760D01*
X011756Y006760D01*
X011756Y006664D01*
X011852Y006664D01*
X011852Y006760D01*
X012299Y006760D01*
X012299Y006991D01*
X012286Y007037D01*
X012267Y007070D01*
X012319Y007121D01*
X012319Y007579D01*
X012376Y007636D01*
X012889Y007636D01*
X012853Y007621D01*
X012758Y007566D01*
X012672Y007500D01*
X012594Y007423D01*
X012528Y007336D01*
X012473Y007241D01*
X012432Y007141D01*
X012403Y007035D01*
X012392Y006952D01*
X013142Y006952D01*
X013142Y006792D01*
X013302Y006792D01*
X013302Y006043D01*
X013385Y006054D01*
X013490Y006082D01*
X013591Y006124D01*
X013686Y006178D01*
X013772Y006245D01*
X013849Y006322D01*
X013916Y006409D01*
X013970Y006503D01*
X014012Y006604D01*
X014040Y006709D01*
X014051Y006792D01*
X013302Y006792D01*
X013302Y006952D01*
X014051Y006952D01*
X014040Y007035D01*
X014012Y007141D01*
X013970Y007241D01*
X013916Y007336D01*
X013849Y007423D01*
X013772Y007500D01*
X013686Y007566D01*
X013591Y007621D01*
X013555Y007636D01*
X014824Y007636D01*
X014927Y007678D01*
X015005Y007757D01*
X015176Y007927D01*
X016244Y007927D01*
X016361Y008044D01*
X016361Y009588D01*
X016244Y009705D01*
X015094Y009705D01*
X014976Y009588D01*
X014976Y008520D01*
X014652Y008196D01*
X012204Y008196D01*
X012101Y008153D01*
X011864Y007916D01*
X011406Y007916D01*
X011289Y007798D01*
X011289Y007696D01*
X010973Y007696D01*
X010870Y007653D01*
X010791Y007574D01*
X010433Y007216D01*
X010391Y007114D01*
X010391Y006787D01*
X010307Y006752D01*
X010139Y006585D01*
X009972Y006752D01*
X009736Y006850D01*
X009480Y006850D01*
X009244Y006752D01*
X009088Y006596D01*
X008989Y006695D01*
X008777Y006782D01*
X008549Y006782D01*
X008337Y006695D01*
X008238Y006596D01*
X008082Y006752D01*
X007846Y006850D01*
X007694Y006850D01*
X007996Y007152D01*
X008039Y007255D01*
X008039Y007917D01*
X008279Y007917D01*
X008396Y008034D01*
X008396Y009578D01*
X008279Y009695D01*
X007129Y009695D01*
X007011Y009578D01*
X007011Y008034D01*
X007129Y007917D01*
X007479Y007917D01*
X007479Y007427D01*
X006867Y006815D01*
X006783Y006850D01*
X006527Y006850D01*
X006291Y006752D01*
X006110Y006571D01*
X006012Y006335D01*
X006012Y006079D01*
X006110Y005843D01*
X006291Y005662D01*
X006527Y005564D01*
X006783Y005564D01*
X006867Y005599D01*
X007588Y004878D01*
X007691Y004836D01*
X008337Y004836D01*
X008284Y004805D01*
X008214Y004751D01*
X008151Y004688D01*
X008096Y004617D01*
X008052Y004540D01*
X008018Y004458D01*
X007995Y004372D01*
X007986Y004306D01*
X008595Y004306D01*
X008595Y004171D01*
X007986Y004171D01*
X007995Y004106D01*
X008018Y004020D01*
X008052Y003937D01*
X008096Y003860D01*
X008151Y003789D01*
X008214Y003726D01*
X008284Y003672D01*
X008362Y003627D01*
X008390Y003616D01*
X005669Y003616D01*
X005669Y003616D01*
X005669Y004005D01*
X005394Y004281D01*
X005005Y004281D01*
X004729Y004005D01*
X004729Y003616D01*
X004730Y003616D01*
X004627Y003616D01*
X004669Y003717D01*
X004669Y003904D01*
X004598Y004077D01*
X004466Y004209D01*
X004293Y004281D01*
X004106Y004281D01*
X003989Y004232D01*
X004419Y004365D02*
X004980Y004365D01*
X005005Y004341D02*
X005394Y004341D01*
X005669Y004616D01*
X005669Y005005D01*
X005394Y005281D01*
X005005Y005281D01*
X004729Y005005D01*
X004729Y004616D01*
X005005Y004341D01*
X004931Y004207D02*
X004468Y004207D01*
X004610Y004048D02*
X004772Y004048D01*
X004729Y003890D02*
X004669Y003890D01*
X004669Y003731D02*
X004729Y003731D01*
X004822Y004524D02*
X004577Y004524D01*
X004669Y004682D02*
X004729Y004682D01*
X004729Y004841D02*
X004669Y004841D01*
X004669Y004999D02*
X004729Y004999D01*
X004882Y005158D02*
X004517Y005158D01*
X004528Y005475D02*
X004871Y005475D01*
X005005Y005341D02*
X005394Y005341D01*
X005669Y005616D01*
X005669Y006005D01*
X005394Y006281D01*
X005005Y006281D01*
X004729Y006005D01*
X004729Y005616D01*
X005005Y005341D01*
X004729Y005633D02*
X004669Y005633D01*
X004669Y005792D02*
X004729Y005792D01*
X004729Y005950D02*
X004669Y005950D01*
X004566Y006109D02*
X004833Y006109D01*
X004991Y006267D02*
X004408Y006267D01*
X004479Y006426D02*
X004920Y006426D01*
X005005Y006341D02*
X005394Y006341D01*
X005669Y006616D01*
X005669Y007005D01*
X005394Y007281D01*
X005005Y007281D01*
X004729Y007005D01*
X004729Y006616D01*
X005005Y006341D01*
X004761Y006584D02*
X004638Y006584D01*
X004669Y006743D02*
X004729Y006743D01*
X004729Y006901D02*
X004669Y006901D01*
X004615Y007060D02*
X004784Y007060D01*
X004942Y007218D02*
X004457Y007218D01*
X004430Y007377D02*
X004969Y007377D01*
X005005Y007341D02*
X005394Y007341D01*
X005669Y007616D01*
X005669Y008005D01*
X005394Y008281D01*
X005005Y008281D01*
X004729Y008005D01*
X004729Y007616D01*
X005005Y007341D01*
X004810Y007535D02*
X004589Y007535D01*
X004669Y007694D02*
X004729Y007694D01*
X004729Y007852D02*
X004669Y007852D01*
X004664Y008011D02*
X004735Y008011D01*
X004893Y008169D02*
X004506Y008169D01*
X004540Y008486D02*
X004859Y008486D01*
X004729Y008616D02*
X005005Y008341D01*
X005394Y008341D01*
X005669Y008616D01*
X005669Y009005D01*
X005394Y009281D01*
X005005Y009281D01*
X004729Y009005D01*
X004729Y008616D01*
X004729Y008645D02*
X004669Y008645D01*
X004669Y008803D02*
X004729Y008803D01*
X004729Y008962D02*
X004669Y008962D01*
X004555Y009120D02*
X004844Y009120D01*
X005003Y009279D02*
X004396Y009279D01*
X004491Y009437D02*
X004908Y009437D01*
X005005Y009341D02*
X005394Y009341D01*
X005669Y009616D01*
X005669Y010005D01*
X005394Y010281D01*
X005005Y010281D01*
X004729Y010005D01*
X004729Y009616D01*
X005005Y009341D01*
X004750Y009596D02*
X004649Y009596D01*
X004669Y009754D02*
X004729Y009754D01*
X004729Y009913D02*
X004669Y009913D01*
X004604Y010071D02*
X004795Y010071D01*
X004954Y010230D02*
X004445Y010230D01*
X004442Y010388D02*
X004957Y010388D01*
X005005Y010341D02*
X005394Y010341D01*
X005669Y010616D01*
X005669Y011005D01*
X005394Y011281D01*
X005005Y011281D01*
X004729Y011005D01*
X004729Y010616D01*
X005005Y010341D01*
X004799Y010547D02*
X004600Y010547D01*
X004669Y010705D02*
X004729Y010705D01*
X004729Y010864D02*
X004669Y010864D01*
X004653Y011022D02*
X004746Y011022D01*
X004905Y011181D02*
X004494Y011181D01*
X004551Y011498D02*
X004848Y011498D01*
X004729Y011616D02*
X005005Y011341D01*
X005394Y011341D01*
X005669Y011616D01*
X005669Y012005D01*
X005394Y012281D01*
X005005Y012281D01*
X004729Y012005D01*
X004729Y011616D01*
X004729Y011656D02*
X004669Y011656D01*
X004669Y011815D02*
X004729Y011815D01*
X004729Y011973D02*
X004669Y011973D01*
X004543Y012132D02*
X004856Y012132D01*
X005005Y012341D02*
X005394Y012341D01*
X005669Y012616D01*
X005669Y013005D01*
X005394Y013281D01*
X005005Y013281D01*
X004729Y013005D01*
X004729Y012616D01*
X005005Y012341D01*
X004897Y012449D02*
X004502Y012449D01*
X004661Y012607D02*
X004738Y012607D01*
X004729Y012766D02*
X004669Y012766D01*
X004669Y012924D02*
X004729Y012924D01*
X004807Y013083D02*
X004592Y013083D01*
X004434Y013241D02*
X004965Y013241D01*
X005005Y013341D02*
X005394Y013341D01*
X005669Y013616D01*
X005669Y014005D01*
X005394Y014281D01*
X005005Y014281D01*
X004729Y014005D01*
X004729Y013616D01*
X005005Y013341D01*
X004946Y013400D02*
X004453Y013400D01*
X004612Y013558D02*
X004787Y013558D01*
X004729Y013717D02*
X004669Y013717D01*
X004669Y013875D02*
X004729Y013875D01*
X004758Y014034D02*
X004641Y014034D01*
X004483Y014192D02*
X004916Y014192D01*
X005005Y014341D02*
X005394Y014341D01*
X005669Y014616D01*
X005669Y015005D01*
X005394Y015281D01*
X005005Y015281D01*
X004729Y015005D01*
X004729Y014616D01*
X005005Y014341D01*
X004995Y014351D02*
X004404Y014351D01*
X004563Y014509D02*
X004836Y014509D01*
X004729Y014668D02*
X004669Y014668D01*
X004669Y014826D02*
X004729Y014826D01*
X004729Y014985D02*
X004669Y014985D01*
X004532Y015143D02*
X004867Y015143D01*
X005013Y015361D02*
X004749Y015624D01*
X004749Y015801D01*
X005189Y015801D01*
X005189Y015821D01*
X004749Y015821D01*
X004749Y015997D01*
X005013Y016261D01*
X005189Y016261D01*
X005189Y015821D01*
X005209Y015821D01*
X005209Y016261D01*
X005386Y016261D01*
X005649Y015997D01*
X005649Y015821D01*
X005209Y015821D01*
X005209Y015801D01*
X005209Y015361D01*
X005386Y015361D01*
X005649Y015624D01*
X005649Y015801D01*
X005209Y015801D01*
X005189Y015801D01*
X005189Y015361D01*
X005013Y015361D01*
X004914Y015460D02*
X004514Y015460D01*
X004669Y015619D02*
X004755Y015619D01*
X004749Y015777D02*
X004669Y015777D01*
X004669Y015936D02*
X004749Y015936D01*
X004846Y016094D02*
X004581Y016094D01*
X004422Y016253D02*
X005005Y016253D01*
X005005Y016341D02*
X005394Y016341D01*
X005669Y016616D01*
X005669Y017005D01*
X005394Y017281D01*
X005005Y017281D01*
X004729Y017005D01*
X004729Y016616D01*
X005005Y016341D01*
X004934Y016411D02*
X004465Y016411D01*
X004623Y016570D02*
X004776Y016570D01*
X004729Y016728D02*
X004669Y016728D01*
X004669Y016887D02*
X004729Y016887D01*
X004769Y017045D02*
X004630Y017045D01*
X004471Y017204D02*
X004928Y017204D01*
X005005Y017341D02*
X005394Y017341D01*
X005669Y017616D01*
X005669Y018005D01*
X005394Y018281D01*
X005005Y018281D01*
X004729Y018005D01*
X004729Y017616D01*
X005005Y017341D01*
X004983Y017362D02*
X004416Y017362D01*
X004574Y017521D02*
X004825Y017521D01*
X004729Y017679D02*
X004669Y017679D01*
X004669Y017838D02*
X004729Y017838D01*
X004729Y017996D02*
X004669Y017996D01*
X004520Y018155D02*
X004879Y018155D01*
X005005Y018341D02*
X005394Y018341D01*
X005669Y018616D01*
X005669Y019005D01*
X005394Y019281D01*
X005005Y019281D01*
X004729Y019005D01*
X004729Y018616D01*
X005005Y018341D01*
X004874Y018472D02*
X004525Y018472D01*
X004669Y018630D02*
X004729Y018630D01*
X004729Y018789D02*
X004669Y018789D01*
X004669Y018947D02*
X004729Y018947D01*
X004830Y019106D02*
X004569Y019106D01*
X004411Y019264D02*
X004988Y019264D01*
X005013Y019361D02*
X004749Y019624D01*
X004749Y019801D01*
X005189Y019801D01*
X005189Y019821D01*
X004749Y019821D01*
X004749Y019997D01*
X005013Y020261D01*
X005189Y020261D01*
X005189Y019821D01*
X005209Y019821D01*
X005209Y020261D01*
X005386Y020261D01*
X005649Y019997D01*
X005649Y019821D01*
X005209Y019821D01*
X005209Y019801D01*
X005209Y019361D01*
X005386Y019361D01*
X005649Y019624D01*
X005649Y019801D01*
X005209Y019801D01*
X005189Y019801D01*
X005189Y019361D01*
X005013Y019361D01*
X004951Y019423D02*
X004476Y019423D01*
X004635Y019581D02*
X004793Y019581D01*
X004749Y019740D02*
X004669Y019740D01*
X004669Y019898D02*
X004749Y019898D01*
X004809Y020057D02*
X004618Y020057D01*
X004460Y020215D02*
X004967Y020215D01*
X005005Y020341D02*
X005394Y020341D01*
X005669Y020616D01*
X005669Y021005D01*
X005394Y021281D01*
X005005Y021281D01*
X004729Y021005D01*
X004729Y020616D01*
X005005Y020341D01*
X004972Y020374D02*
X004399Y020374D01*
X004209Y020374D02*
X004189Y020374D01*
X004189Y020532D02*
X004209Y020532D01*
X004209Y020691D02*
X004189Y020691D01*
X004199Y020811D02*
X005199Y019811D01*
X005854Y019811D01*
X005969Y019926D01*
X005969Y022246D01*
X006114Y022391D01*
X006986Y022391D01*
X007506Y021871D01*
X007844Y021871D01*
X007852Y021862D01*
X007852Y021337D01*
X007852Y021709D02*
X007852Y021783D01*
X007852Y021709D01*
X007852Y021709D01*
X007852Y021783D02*
X007749Y021783D01*
X007704Y021771D01*
X007663Y021747D01*
X007645Y021729D01*
X007635Y021739D01*
X007469Y021808D01*
X007290Y021808D01*
X007124Y021739D01*
X006997Y021613D01*
X006928Y021447D01*
X006928Y021267D01*
X006997Y021102D01*
X007124Y020975D01*
X007290Y020906D01*
X007343Y020906D01*
X007341Y020904D01*
X007299Y020801D01*
X007299Y020771D01*
X007216Y020771D01*
X007099Y020653D01*
X007099Y020570D01*
X007084Y020570D01*
X007084Y020628D01*
X006966Y020746D01*
X006171Y020746D01*
X006054Y020628D01*
X006054Y019951D01*
X006089Y019916D01*
X006054Y019880D01*
X006054Y019203D01*
X006171Y019086D01*
X006188Y019086D01*
X006175Y019056D01*
X006175Y018905D01*
X006233Y018766D01*
X006339Y018660D01*
X006478Y018602D01*
X006629Y018602D01*
X006768Y018660D01*
X006874Y018766D01*
X006932Y018905D01*
X006932Y019056D01*
X006919Y019086D01*
X006966Y019086D01*
X007084Y019203D01*
X007084Y019880D01*
X007048Y019916D01*
X007084Y019951D01*
X007084Y020010D01*
X007099Y020010D01*
X007099Y019976D01*
X007134Y019941D01*
X007099Y019905D01*
X007099Y019228D01*
X007216Y019111D01*
X007354Y019111D01*
X007354Y018940D01*
X007396Y018837D01*
X007475Y018758D01*
X007529Y018704D01*
X007133Y018704D01*
X007087Y018692D01*
X007046Y018668D01*
X007012Y018635D01*
X006989Y018594D01*
X006976Y018548D01*
X006976Y017915D01*
X007569Y017915D01*
X007569Y017755D01*
X006976Y017755D01*
X006976Y017122D01*
X006989Y017077D01*
X006989Y017076D01*
X006953Y017076D01*
X006850Y017033D01*
X006631Y016814D01*
X006573Y016814D01*
X006434Y016756D01*
X006328Y016650D01*
X006270Y016511D01*
X006270Y016360D01*
X006328Y016221D01*
X006434Y016115D01*
X006573Y016057D01*
X006724Y016057D01*
X006863Y016115D01*
X006969Y016221D01*
X007027Y016360D01*
X007027Y016418D01*
X007125Y016516D01*
X008174Y016516D01*
X008174Y016320D01*
X008216Y016217D01*
X008461Y015972D01*
X008540Y015893D01*
X008643Y015851D01*
X008949Y015851D01*
X009052Y015893D01*
X009177Y016018D01*
X009278Y016018D01*
X009270Y016001D01*
X009270Y015850D01*
X009328Y015711D01*
X009434Y015605D01*
X009573Y015547D01*
X009724Y015547D01*
X009794Y015576D01*
X009794Y015475D01*
X009814Y015455D01*
X009814Y015353D01*
X009814Y015318D01*
X008341Y015318D01*
X008341Y016048D01*
X008224Y016165D01*
X007074Y016165D01*
X006956Y016048D01*
X006956Y014504D01*
X006960Y014501D01*
X006950Y014501D01*
X006904Y014489D01*
X006863Y014465D01*
X006830Y014431D01*
X006806Y014390D01*
X006794Y014345D01*
X006794Y014074D01*
X007182Y014074D01*
X007182Y013978D01*
X007278Y013978D01*
X007278Y013550D01*
X007303Y013550D01*
X007303Y013209D01*
X007207Y013209D01*
X007207Y013636D01*
X007182Y013636D01*
X007182Y013978D01*
X006794Y013978D01*
X006794Y013707D01*
X006806Y013661D01*
X006830Y013620D01*
X006863Y013586D01*
X006870Y013582D01*
X006855Y013566D01*
X006831Y013525D01*
X006819Y013480D01*
X006819Y013209D01*
X007207Y013209D01*
X007207Y013113D01*
X007303Y013113D01*
X007303Y012685D01*
X007534Y012685D01*
X007580Y012698D01*
X007613Y012716D01*
X007664Y012665D01*
X008341Y012665D01*
X008459Y012782D01*
X008459Y012881D01*
X008639Y012881D01*
X008742Y012923D01*
X008746Y012927D01*
X008804Y012927D01*
X008943Y012985D01*
X009049Y013091D01*
X009107Y013230D01*
X009107Y013381D01*
X009049Y013520D01*
X008943Y013626D01*
X008804Y013684D01*
X008653Y013684D01*
X008514Y013626D01*
X008443Y013554D01*
X008392Y013606D01*
X008434Y013647D01*
X008434Y014086D01*
X008739Y014391D01*
X010489Y014391D01*
X010541Y014412D01*
X010541Y014177D01*
X010553Y014131D01*
X010577Y014090D01*
X010611Y014057D01*
X010647Y014036D01*
X010489Y014036D01*
X010438Y013985D01*
X010405Y014004D01*
X010359Y014016D01*
X010128Y014016D01*
X010128Y013589D01*
X010032Y013589D01*
X010032Y014016D01*
X009800Y014016D01*
X009754Y014004D01*
X009713Y013980D01*
X009680Y013946D01*
X009656Y013905D01*
X009644Y013860D01*
X009644Y013589D01*
X010032Y013589D01*
X010032Y013493D01*
X010128Y013493D01*
X010128Y013065D01*
X010359Y013065D01*
X010405Y013078D01*
X010438Y013096D01*
X010489Y013045D01*
X011166Y013045D01*
X011284Y013162D01*
X011284Y013601D01*
X011384Y013701D01*
X011426Y013803D01*
X011426Y014001D01*
X013229Y014001D01*
X013346Y014118D01*
X013346Y014728D01*
X013956Y014728D01*
X014074Y014845D01*
X014074Y015703D01*
X014134Y015703D01*
X014134Y015358D01*
X014251Y015241D01*
X014369Y015241D01*
X014369Y014426D01*
X014285Y014426D01*
X014168Y014308D01*
X014168Y013631D01*
X014219Y013580D01*
X014201Y013547D01*
X014188Y013501D01*
X014188Y013270D01*
X014616Y013270D01*
X014616Y013174D01*
X014712Y013174D01*
X014712Y013270D01*
X015139Y013270D01*
X015139Y013501D01*
X015127Y013547D01*
X015108Y013580D01*
X015159Y013631D01*
X015159Y013634D01*
X015640Y013153D01*
X015709Y013125D01*
X015709Y012264D01*
X015176Y012264D01*
X014877Y012563D01*
X014774Y012606D01*
X008878Y012606D01*
X008838Y012646D01*
X008699Y012704D01*
X008548Y012704D01*
X008409Y012646D01*
X008303Y012540D01*
X008245Y012401D01*
X008245Y012254D01*
X007129Y012254D01*
X007011Y012137D01*
X007011Y010593D01*
X007129Y010476D01*
X008279Y010476D01*
X008396Y010593D01*
X008396Y011375D01*
X009623Y011375D01*
X009623Y011316D01*
X009659Y011281D01*
X009623Y011245D01*
X009623Y010568D01*
X009740Y010451D01*
X009839Y010451D01*
X009839Y010251D01*
X009721Y010251D01*
X009604Y010133D01*
X009604Y009456D01*
X009655Y009405D01*
X009636Y009372D01*
X009624Y009326D01*
X009624Y009095D01*
X010071Y009095D01*
X010071Y008999D01*
X010167Y008999D01*
X010167Y009095D01*
X010614Y009095D01*
X010614Y009326D01*
X010601Y009372D01*
X010582Y009405D01*
X010634Y009456D01*
X010634Y010133D01*
X010516Y010251D01*
X010399Y010251D01*
X010399Y010451D01*
X010497Y010451D01*
X010614Y010568D01*
X010614Y011214D01*
X010674Y011155D01*
X010674Y010230D01*
X010716Y010127D01*
X011151Y009692D01*
X011162Y009674D01*
X011190Y009653D01*
X011215Y009628D01*
X011224Y009625D01*
X011224Y009436D01*
X011275Y009385D01*
X011256Y009352D01*
X011244Y009306D01*
X011244Y009075D01*
X011691Y009075D01*
X011691Y008979D01*
X011787Y008979D01*
X011787Y009075D01*
X012234Y009075D01*
X012234Y009306D01*
X012221Y009352D01*
X012202Y009385D01*
X012254Y009436D01*
X012254Y010113D01*
X012136Y010231D01*
X011405Y010231D01*
X011234Y010402D01*
X011234Y011326D01*
X011191Y011429D01*
X011112Y011508D01*
X010767Y011853D01*
X010664Y011896D01*
X010614Y011896D01*
X010614Y011993D01*
X010562Y012046D01*
X011366Y012046D01*
X011329Y012008D01*
X011329Y011331D01*
X011380Y011280D01*
X011361Y011247D01*
X011349Y011201D01*
X011349Y010970D01*
X011796Y010970D01*
X011796Y010874D01*
X011892Y010874D01*
X011892Y010970D01*
X012339Y010970D01*
X012339Y011201D01*
X012326Y011247D01*
X012307Y011280D01*
X012359Y011331D01*
X012359Y012008D01*
X012321Y012046D01*
X012756Y012046D01*
X012713Y012003D01*
X012713Y011326D01*
X012749Y011291D01*
X012713Y011255D01*
X012713Y010578D01*
X012830Y010461D01*
X012909Y010461D01*
X012909Y010191D01*
X012791Y010191D01*
X012674Y010073D01*
X012674Y009396D01*
X012725Y009345D01*
X012706Y009312D01*
X012694Y009266D01*
X012694Y009035D01*
X013141Y009035D01*
X013141Y008939D01*
X013237Y008939D01*
X013237Y009035D01*
X013684Y009035D01*
X013684Y009266D01*
X013671Y009312D01*
X013652Y009345D01*
X013704Y009396D01*
X013704Y010073D01*
X013586Y010191D01*
X013469Y010191D01*
X013469Y010461D01*
X013587Y010461D01*
X013704Y010578D01*
X013704Y011255D01*
X013669Y011291D01*
X013704Y011326D01*
X013704Y012003D01*
X013662Y012046D01*
X014602Y012046D01*
X014976Y011671D01*
X014976Y010603D01*
X015094Y010486D01*
X016244Y010486D01*
X016361Y010603D01*
X016361Y012141D01*
X016751Y012141D01*
X016869Y012258D01*
X016869Y014523D01*
X016751Y014641D01*
X015826Y014641D01*
X015709Y014523D01*
X015709Y013877D01*
X015457Y014128D01*
X015378Y014207D01*
X015275Y014250D01*
X015159Y014250D01*
X015159Y014308D01*
X015042Y014426D01*
X014929Y014426D01*
X014929Y015241D01*
X015046Y015241D01*
X015164Y015358D01*
X015164Y016035D01*
X015128Y016071D01*
X015164Y016106D01*
X015164Y016783D01*
X015046Y016901D01*
X014929Y016901D01*
X014929Y017476D01*
X015027Y017476D01*
X015144Y017593D01*
X015144Y017652D01*
X015709Y017652D01*
X015709Y016058D01*
X015826Y015941D01*
X016751Y015941D01*
X016869Y016058D01*
X016869Y018323D01*
X016751Y018441D01*
X015826Y018441D01*
X015709Y018323D01*
X015709Y018212D01*
X015144Y018212D01*
X015144Y018270D01*
X015093Y018321D01*
X015112Y018354D01*
X015124Y018400D01*
X015124Y018632D01*
X014697Y018632D01*
X014697Y018728D01*
X014601Y018728D01*
X014601Y019116D01*
X014330Y019116D01*
X014284Y019103D01*
X014243Y019080D01*
X014240Y019077D01*
X014171Y019146D01*
X014054Y019146D01*
X014054Y019722D01*
X014072Y019765D01*
X014072Y019823D01*
X014110Y019862D01*
X014153Y019964D01*
X014153Y020448D01*
X014645Y020448D01*
X014762Y020566D01*
X014762Y021716D01*
X014645Y021833D01*
X013101Y021833D01*
X012984Y021716D01*
X012984Y020566D01*
X013101Y020448D01*
X013593Y020448D01*
X013593Y020208D01*
X013479Y020161D01*
X013373Y020055D01*
X013315Y019916D01*
X013315Y019765D01*
X013373Y019626D01*
X013479Y019520D01*
X013494Y019514D01*
X013494Y019146D01*
X013376Y019146D01*
X013259Y019028D01*
X013259Y018932D01*
X013057Y019133D01*
X013057Y019191D01*
X012999Y019330D01*
X012893Y019436D01*
X012754Y019494D01*
X012603Y019494D01*
X012464Y019436D01*
X012358Y019330D01*
X012300Y019191D01*
X012300Y019040D01*
X012358Y018901D01*
X012464Y018795D01*
X012603Y018737D01*
X012661Y018737D01*
X012756Y018642D01*
X012756Y018281D01*
X012213Y018281D01*
X012193Y018261D01*
X012091Y018261D01*
X012056Y018261D01*
X012056Y019269D01*
X012013Y019372D01*
X011927Y019458D01*
X011927Y019516D01*
X011869Y019655D01*
X011763Y019761D01*
X011624Y019819D01*
X011473Y019819D01*
X011334Y019761D01*
X011228Y019655D01*
X011170Y019516D01*
X011170Y019365D01*
X011187Y019326D01*
X010189Y019326D01*
X010189Y019489D01*
X009762Y019489D01*
X009762Y019585D01*
X010189Y019585D01*
X010189Y019816D01*
X010177Y019862D01*
X010158Y019895D01*
X010186Y019923D01*
X010249Y019860D01*
X010388Y019802D01*
X010539Y019802D01*
X010678Y019860D01*
X010784Y019966D01*
X010842Y020105D01*
X010842Y020256D01*
X010784Y020395D01*
X010710Y020468D01*
X011234Y020468D01*
X011234Y021061D01*
X010445Y021061D01*
X010445Y020625D01*
X010457Y020579D01*
X010469Y020559D01*
X010430Y020559D01*
X010415Y020565D01*
X010209Y020565D01*
X010209Y020623D01*
X010092Y020741D01*
X009959Y020741D01*
X009959Y020836D01*
X009916Y020939D01*
X009837Y021018D01*
X009737Y021118D01*
X009799Y021267D01*
X009799Y021447D01*
X009730Y021613D01*
X009603Y021739D01*
X009438Y021808D01*
X009258Y021808D01*
X009098Y021742D01*
X009037Y021803D01*
X007946Y021803D01*
X007926Y021783D01*
X007852Y021783D01*
X007844Y021871D02*
X009439Y021871D01*
X009742Y022174D01*
X010774Y021141D01*
X010964Y021141D01*
X011089Y021016D01*
X011089Y019741D01*
X010885Y019537D01*
X009714Y019537D01*
X009762Y019581D02*
X011198Y019581D01*
X011170Y019423D02*
X010189Y019423D01*
X010189Y019740D02*
X011313Y019740D01*
X011549Y019441D02*
X011776Y019213D01*
X011776Y017831D01*
X011776Y017201D01*
X011776Y016886D01*
X011496Y016887D02*
X010674Y016887D01*
X010674Y016928D02*
X010244Y016928D01*
X010674Y016928D01*
X010674Y017062D01*
X010667Y017085D01*
X010674Y017109D01*
X010674Y017243D01*
X010674Y017377D01*
X010673Y017381D01*
X011496Y017381D01*
X011496Y016646D01*
X011552Y016400D01*
X011542Y016388D01*
X011304Y015892D01*
X011181Y015356D01*
X011181Y014901D01*
X011060Y014901D01*
X011111Y014952D01*
X011154Y015055D01*
X011154Y015666D01*
X011111Y015769D01*
X011032Y015848D01*
X010975Y015906D01*
X010872Y015948D01*
X010694Y015948D01*
X010694Y016806D01*
X010674Y016826D01*
X010674Y016928D01*
X010674Y017045D02*
X011496Y017045D01*
X011496Y017204D02*
X010674Y017204D01*
X010674Y017243D02*
X010244Y017243D01*
X010674Y017243D01*
X010674Y017362D02*
X011496Y017362D01*
X011461Y017831D02*
X011469Y017838D01*
X011469Y018806D01*
X011229Y019046D01*
X008769Y019046D01*
X008594Y019221D01*
X008594Y019567D01*
X008336Y019111D02*
X008356Y019062D01*
X008408Y019011D01*
X008015Y019011D01*
X007914Y019111D01*
X008011Y019111D01*
X008104Y019203D01*
X008196Y019111D01*
X008336Y019111D01*
X008338Y019106D02*
X007920Y019106D01*
X007634Y018996D02*
X007634Y019547D01*
X007614Y019567D01*
X007354Y019106D02*
X006986Y019106D01*
X006932Y018947D02*
X007354Y018947D01*
X007445Y018789D02*
X006883Y018789D01*
X007010Y018630D02*
X006696Y018630D01*
X006412Y018630D02*
X005669Y018630D01*
X005669Y018789D02*
X006224Y018789D01*
X006175Y018947D02*
X005669Y018947D01*
X005569Y019106D02*
X006151Y019106D01*
X006054Y019264D02*
X005411Y019264D01*
X005448Y019423D02*
X006054Y019423D01*
X006054Y019581D02*
X005606Y019581D01*
X005649Y019740D02*
X006054Y019740D01*
X006071Y019898D02*
X005649Y019898D01*
X005590Y020057D02*
X006054Y020057D01*
X005969Y019926D02*
X005969Y018046D01*
X006179Y017835D01*
X007649Y017835D01*
X007744Y017740D01*
X007744Y017656D01*
X007889Y017511D01*
X009334Y017511D01*
X009534Y017243D02*
X009849Y016928D01*
X010244Y016928D01*
X010244Y016928D01*
X010244Y016928D01*
X010244Y017243D01*
X010244Y017243D01*
X010244Y017243D01*
X010244Y017533D01*
X010517Y017533D01*
X010521Y017532D01*
X010521Y017921D01*
X010308Y017921D01*
X010268Y017880D01*
X010129Y017822D01*
X009978Y017822D01*
X009839Y017880D01*
X009733Y017986D01*
X009675Y018125D01*
X009675Y018276D01*
X009733Y018415D01*
X009769Y018451D01*
X008321Y018451D01*
X008321Y017915D01*
X007729Y017915D01*
X007729Y017755D01*
X008321Y017755D01*
X008321Y017122D01*
X008308Y017077D01*
X008308Y017076D01*
X008414Y017076D01*
X008517Y017033D01*
X008612Y016938D01*
X008645Y016905D01*
X008738Y016944D01*
X008889Y016944D01*
X009011Y016893D01*
X009814Y016893D01*
X009814Y016928D01*
X010244Y016928D01*
X010244Y016953D01*
X010244Y017243D01*
X010244Y017243D01*
X009534Y017243D01*
X008051Y017243D01*
X007744Y017551D01*
X007744Y017656D01*
X007729Y017838D02*
X009942Y017838D01*
X010165Y017838D02*
X010521Y017838D01*
X010521Y017679D02*
X008321Y017679D01*
X008321Y017521D02*
X009924Y017521D01*
X009883Y017497D01*
X009850Y017463D01*
X009826Y017422D01*
X009814Y017377D01*
X009814Y017243D01*
X010244Y017243D01*
X010244Y017533D01*
X009970Y017533D01*
X009924Y017521D01*
X009814Y017362D02*
X008321Y017362D01*
X008321Y017204D02*
X009814Y017204D01*
X009814Y017243D02*
X009814Y017109D01*
X009820Y017085D01*
X009814Y017062D01*
X009814Y016928D01*
X010244Y016928D01*
X010244Y016928D01*
X010244Y017045D02*
X010244Y017045D01*
X010244Y017204D02*
X010244Y017204D01*
X010244Y017243D02*
X009814Y017243D01*
X009814Y017045D02*
X008488Y017045D01*
X008359Y016796D02*
X008454Y016701D01*
X008454Y016376D01*
X008699Y016131D01*
X008894Y016131D01*
X009061Y016298D01*
X010244Y016298D01*
X010244Y015983D02*
X009706Y015983D01*
X009649Y015926D01*
X009421Y015619D02*
X008341Y015619D01*
X008341Y015777D02*
X009301Y015777D01*
X009270Y015936D02*
X009095Y015936D01*
X009259Y015491D02*
X009396Y015353D01*
X010244Y015353D01*
X009814Y015353D01*
X010244Y015353D01*
X010244Y015353D01*
X010244Y015038D02*
X007886Y015038D01*
X007649Y015276D01*
X008341Y015460D02*
X009809Y015460D01*
X010244Y015668D02*
X010816Y015668D01*
X010874Y015611D01*
X010874Y015111D01*
X010434Y014671D01*
X008623Y014671D01*
X007978Y014026D01*
X008434Y014034D02*
X010487Y014034D01*
X010541Y014192D02*
X008540Y014192D01*
X008699Y014351D02*
X010541Y014351D01*
X010734Y014211D02*
X009859Y014211D01*
X009209Y013736D01*
X009559Y013541D01*
X010080Y013541D01*
X010032Y013558D02*
X009011Y013558D01*
X009099Y013400D02*
X009644Y013400D01*
X009644Y013493D02*
X009644Y013222D01*
X009656Y013176D01*
X009680Y013135D01*
X009713Y013101D01*
X009754Y013078D01*
X009800Y013065D01*
X010032Y013065D01*
X010032Y013493D01*
X009644Y013493D01*
X009644Y013717D02*
X008434Y013717D01*
X008434Y013875D02*
X009648Y013875D01*
X010032Y013875D02*
X010128Y013875D01*
X010128Y013717D02*
X010032Y013717D01*
X010032Y013400D02*
X010128Y013400D01*
X010128Y013241D02*
X010032Y013241D01*
X010032Y013083D02*
X010128Y013083D01*
X010414Y013083D02*
X010452Y013083D01*
X010828Y013541D02*
X011146Y013859D01*
X011146Y014451D01*
X010831Y014451D02*
X010831Y014036D01*
X010831Y014451D01*
X010831Y014308D01*
X010734Y014211D01*
X010831Y014192D02*
X010831Y014192D01*
X010831Y014036D02*
X010831Y014036D01*
X010831Y014351D02*
X010831Y014351D01*
X010831Y014451D02*
X010831Y014451D01*
X011124Y014985D02*
X011181Y014985D01*
X011181Y015143D02*
X011154Y015143D01*
X011154Y015302D02*
X011181Y015302D01*
X011205Y015460D02*
X011154Y015460D01*
X011154Y015619D02*
X011241Y015619D01*
X011277Y015777D02*
X011103Y015777D01*
X011304Y015892D02*
X011304Y015892D01*
X011324Y015936D02*
X010902Y015936D01*
X010694Y016094D02*
X011401Y016094D01*
X011477Y016253D02*
X010694Y016253D01*
X010694Y016411D02*
X011550Y016411D01*
X011542Y016388D02*
X011542Y016388D01*
X011514Y016570D02*
X010694Y016570D01*
X010694Y016728D02*
X011496Y016728D01*
X012078Y016972D02*
X012066Y017025D01*
X012056Y017201D01*
X012056Y017401D01*
X012091Y017401D01*
X012091Y017831D01*
X012091Y018261D01*
X012091Y017831D01*
X012091Y017831D01*
X012091Y020343D01*
X011354Y021081D01*
X011354Y021721D01*
X011654Y022021D01*
X016990Y022021D01*
X018199Y020811D01*
X018034Y020646D01*
X017519Y020646D01*
X017499Y020626D01*
X017499Y010851D01*
X017538Y010811D01*
X017634Y010811D01*
X017284Y010461D01*
X017284Y010326D01*
X017059Y010101D01*
X014664Y010101D01*
X013530Y008967D01*
X013370Y008967D01*
X013189Y008987D01*
X012509Y008987D01*
X012524Y009002D01*
X012524Y010481D01*
X012083Y010922D01*
X011844Y010922D01*
X011892Y010874D02*
X012339Y010874D01*
X012339Y010642D01*
X012326Y010596D01*
X012303Y010555D01*
X012269Y010522D01*
X012228Y010498D01*
X012182Y010486D01*
X011892Y010486D01*
X011892Y010874D01*
X011892Y010864D02*
X011796Y010864D01*
X011796Y010874D02*
X011796Y010486D01*
X011505Y010486D01*
X011459Y010498D01*
X011418Y010522D01*
X011385Y010555D01*
X011361Y010596D01*
X011349Y010642D01*
X011349Y010874D01*
X011796Y010874D01*
X011796Y010705D02*
X011892Y010705D01*
X011892Y010547D02*
X011796Y010547D01*
X011393Y010547D02*
X011234Y010547D01*
X011234Y010705D02*
X011349Y010705D01*
X011349Y010864D02*
X011234Y010864D01*
X011234Y011022D02*
X011349Y011022D01*
X011349Y011181D02*
X011234Y011181D01*
X011228Y011339D02*
X011329Y011339D01*
X011329Y011498D02*
X011123Y011498D01*
X010964Y011656D02*
X011329Y011656D01*
X011329Y011815D02*
X010806Y011815D01*
X010614Y011973D02*
X011329Y011973D01*
X011814Y012326D02*
X011844Y012296D01*
X011844Y011670D01*
X012359Y011656D02*
X012713Y011656D01*
X012713Y011498D02*
X012359Y011498D01*
X012359Y011339D02*
X012713Y011339D01*
X012713Y011181D02*
X012339Y011181D01*
X012339Y011022D02*
X012713Y011022D01*
X012713Y010864D02*
X012339Y010864D01*
X012339Y010705D02*
X012713Y010705D01*
X012745Y010547D02*
X012294Y010547D01*
X012137Y010230D02*
X012909Y010230D01*
X012909Y010388D02*
X011247Y010388D01*
X010954Y010286D02*
X011374Y009866D01*
X011739Y009775D01*
X011224Y009596D02*
X010634Y009596D01*
X010634Y009754D02*
X011089Y009754D01*
X010931Y009913D02*
X010634Y009913D01*
X010634Y010071D02*
X010772Y010071D01*
X010674Y010230D02*
X010537Y010230D01*
X010399Y010388D02*
X010674Y010388D01*
X010674Y010547D02*
X010593Y010547D01*
X010614Y010705D02*
X010674Y010705D01*
X010674Y010864D02*
X010614Y010864D01*
X010614Y011022D02*
X010674Y011022D01*
X010648Y011181D02*
X010614Y011181D01*
X010954Y011271D02*
X010609Y011616D01*
X010158Y011616D01*
X010119Y011655D01*
X009399Y011655D01*
X009399Y011856D01*
X009399Y011655D02*
X007993Y011655D01*
X007704Y011365D01*
X008396Y011339D02*
X009623Y011339D01*
X009623Y011181D02*
X008396Y011181D01*
X008396Y011022D02*
X009623Y011022D01*
X009623Y010864D02*
X008396Y010864D01*
X008396Y010705D02*
X009623Y010705D01*
X009645Y010547D02*
X008349Y010547D01*
X008378Y009596D02*
X009604Y009596D01*
X009604Y009754D02*
X005669Y009754D01*
X005669Y009913D02*
X009604Y009913D01*
X009604Y010071D02*
X005604Y010071D01*
X005445Y010230D02*
X009700Y010230D01*
X009839Y010388D02*
X005442Y010388D01*
X005600Y010547D02*
X007058Y010547D01*
X007011Y010705D02*
X005669Y010705D01*
X005669Y010864D02*
X007011Y010864D01*
X007011Y011022D02*
X005653Y011022D01*
X005494Y011181D02*
X007011Y011181D01*
X007011Y011339D02*
X003989Y011339D01*
X003989Y012290D02*
X008245Y012290D01*
X008265Y012449D02*
X005502Y012449D01*
X005661Y012607D02*
X008370Y012607D01*
X008279Y012476D02*
X007369Y012476D01*
X007234Y012611D01*
X007234Y013140D01*
X007255Y013161D01*
X007255Y014001D01*
X007230Y014026D01*
X006189Y014026D01*
X005969Y014246D01*
X005969Y015856D01*
X005924Y015811D01*
X005199Y015811D01*
X005189Y015777D02*
X005209Y015777D01*
X005209Y015619D02*
X005189Y015619D01*
X005189Y015460D02*
X005209Y015460D01*
X005485Y015460D02*
X006956Y015460D01*
X006956Y015302D02*
X003989Y015302D01*
X003989Y014351D02*
X003995Y014351D01*
X005189Y015936D02*
X005209Y015936D01*
X005209Y016094D02*
X005189Y016094D01*
X005189Y016253D02*
X005209Y016253D01*
X005394Y016253D02*
X006315Y016253D01*
X006270Y016411D02*
X005465Y016411D01*
X005623Y016570D02*
X006295Y016570D01*
X006406Y016728D02*
X005669Y016728D01*
X005669Y016887D02*
X006704Y016887D01*
X006879Y017045D02*
X005630Y017045D01*
X005471Y017204D02*
X006976Y017204D01*
X006976Y017362D02*
X005416Y017362D01*
X005574Y017521D02*
X006976Y017521D01*
X006976Y017679D02*
X005669Y017679D01*
X005669Y017838D02*
X007569Y017838D01*
X006976Y017996D02*
X005669Y017996D01*
X005520Y018155D02*
X006976Y018155D01*
X006976Y018313D02*
X003989Y018313D01*
X005189Y019423D02*
X005209Y019423D01*
X005209Y019581D02*
X005189Y019581D01*
X005189Y019740D02*
X005209Y019740D01*
X005209Y019898D02*
X005189Y019898D01*
X005189Y020057D02*
X005209Y020057D01*
X005209Y020215D02*
X005189Y020215D01*
X004813Y020532D02*
X004557Y020532D01*
X004649Y020691D02*
X004729Y020691D01*
X004649Y020821D02*
X004649Y020997D01*
X004386Y021261D01*
X004209Y021261D01*
X004209Y020821D01*
X004649Y020821D01*
X004649Y020849D02*
X004729Y020849D01*
X004732Y021008D02*
X004639Y021008D01*
X004480Y021166D02*
X004890Y021166D01*
X005509Y021166D02*
X006970Y021166D01*
X006928Y021325D02*
X003989Y021325D01*
X003989Y021483D02*
X006943Y021483D01*
X007026Y021642D02*
X003989Y021642D01*
X003989Y021800D02*
X007270Y021800D01*
X007275Y021959D02*
X007475Y021959D01*
X007475Y022117D02*
X007429Y022117D01*
X007488Y021800D02*
X007943Y021800D01*
X008364Y021337D02*
X008364Y021001D01*
X008259Y020896D01*
X007729Y020896D01*
X007579Y020746D01*
X007579Y020350D01*
X007614Y020315D01*
X007589Y020290D01*
X006569Y020290D01*
X006054Y020215D02*
X005431Y020215D01*
X005427Y020374D02*
X006054Y020374D01*
X006054Y020532D02*
X005586Y020532D01*
X005669Y020691D02*
X006116Y020691D01*
X005669Y020849D02*
X007318Y020849D01*
X007136Y020691D02*
X007021Y020691D01*
X007091Y021008D02*
X005667Y021008D01*
X006647Y021994D02*
X006589Y022052D01*
X006541Y022118D01*
X006504Y022191D01*
X006479Y022269D01*
X006466Y022350D01*
X006466Y022357D01*
X006952Y022357D01*
X006952Y021871D01*
X006945Y021871D01*
X006864Y021884D01*
X006786Y021909D01*
X006713Y021946D01*
X006647Y021994D01*
X006696Y021959D02*
X003989Y021959D01*
X003989Y022117D02*
X006542Y022117D01*
X006478Y022276D02*
X003989Y022276D01*
X003989Y022434D02*
X006466Y022434D01*
X006952Y022276D02*
X007019Y022276D01*
X007019Y022117D02*
X006952Y022117D01*
X006952Y021959D02*
X007019Y021959D01*
X007475Y022567D02*
X007470Y022581D01*
X007475Y022581D01*
X007475Y022567D01*
X008619Y021337D02*
X008619Y020341D01*
X008594Y020315D01*
X008114Y019941D02*
X008104Y019930D01*
X008093Y019941D01*
X008104Y019951D01*
X008114Y019941D01*
X007634Y018996D02*
X007899Y018731D01*
X010934Y018731D01*
X011146Y018518D01*
X011146Y017831D01*
X010831Y017831D02*
X010819Y017843D01*
X010819Y018116D01*
X010734Y018201D01*
X010054Y018201D01*
X009691Y018313D02*
X008321Y018313D01*
X008321Y018155D02*
X009675Y018155D01*
X009729Y017996D02*
X008321Y017996D01*
X008359Y016796D02*
X007009Y016796D01*
X006649Y016436D01*
X006654Y016441D01*
X006982Y016253D02*
X008201Y016253D01*
X008174Y016411D02*
X007027Y016411D01*
X007003Y016094D02*
X006812Y016094D01*
X006956Y015936D02*
X005649Y015936D01*
X005649Y015777D02*
X006956Y015777D01*
X006956Y015619D02*
X005644Y015619D01*
X005969Y015856D02*
X005969Y018046D01*
X005525Y018472D02*
X006976Y018472D01*
X006554Y018981D02*
X006554Y019527D01*
X006569Y019542D01*
X007084Y019581D02*
X007099Y019581D01*
X007084Y019423D02*
X007099Y019423D01*
X007084Y019264D02*
X007099Y019264D01*
X007084Y019740D02*
X007099Y019740D01*
X007099Y019898D02*
X007066Y019898D01*
X008875Y020959D02*
X008939Y020896D01*
X009564Y020896D01*
X009679Y020781D01*
X009679Y020320D01*
X009714Y020285D01*
X010360Y020285D01*
X010464Y020181D01*
X010716Y019898D02*
X013315Y019898D01*
X013326Y019740D02*
X011784Y019740D01*
X011900Y019581D02*
X013418Y019581D01*
X013494Y019423D02*
X012906Y019423D01*
X013026Y019264D02*
X013494Y019264D01*
X013336Y019106D02*
X013085Y019106D01*
X013243Y018947D02*
X013259Y018947D01*
X013036Y018758D02*
X012679Y019116D01*
X012451Y019423D02*
X011963Y019423D01*
X012056Y019264D02*
X012331Y019264D01*
X012300Y019106D02*
X012056Y019106D01*
X012056Y018947D02*
X012339Y018947D01*
X012480Y018789D02*
X012056Y018789D01*
X012056Y018630D02*
X012756Y018630D01*
X012756Y018472D02*
X012056Y018472D01*
X012056Y018313D02*
X012756Y018313D01*
X013036Y018758D02*
X013036Y017831D01*
X012770Y017381D02*
X012316Y017162D01*
X012078Y016972D01*
X012065Y017045D02*
X012170Y017045D01*
X012316Y017162D02*
X012316Y017162D01*
X012403Y017204D02*
X012056Y017204D01*
X012056Y017362D02*
X012732Y017362D01*
X012770Y017381D02*
X012213Y017381D01*
X012193Y017401D01*
X012091Y017401D01*
X012091Y017831D01*
X012091Y020364D01*
X011314Y021141D01*
X010964Y021141D01*
X011234Y021166D02*
X009757Y021166D01*
X009799Y021325D02*
X010445Y021325D01*
X010445Y021221D02*
X011234Y021221D01*
X011234Y021813D01*
X010601Y021813D01*
X010556Y021800D01*
X010515Y021777D01*
X010481Y021743D01*
X010457Y021702D01*
X010445Y021656D01*
X010445Y021221D01*
X010445Y021008D02*
X009848Y021008D01*
X009953Y020849D02*
X010445Y020849D01*
X010445Y020691D02*
X010142Y020691D01*
X010793Y020374D02*
X013593Y020374D01*
X013593Y020215D02*
X010842Y020215D01*
X010821Y020057D02*
X013375Y020057D01*
X013694Y019841D02*
X013774Y019761D01*
X013774Y018690D01*
X014211Y019106D02*
X014293Y019106D01*
X014054Y019264D02*
X017988Y019264D01*
X018005Y019281D02*
X017729Y019005D01*
X017729Y018616D01*
X018005Y018341D01*
X018394Y018341D01*
X018669Y018616D01*
X018669Y019005D01*
X018394Y019281D01*
X018005Y019281D01*
X018005Y019341D02*
X018394Y019341D01*
X018669Y019616D01*
X018669Y020005D01*
X018394Y020281D01*
X018005Y020281D01*
X017729Y020005D01*
X017729Y019616D01*
X018005Y019341D01*
X017923Y019423D02*
X014054Y019423D01*
X014054Y019581D02*
X017764Y019581D01*
X017729Y019740D02*
X014061Y019740D01*
X014126Y019898D02*
X017729Y019898D01*
X017781Y020057D02*
X014153Y020057D01*
X014153Y020215D02*
X017939Y020215D01*
X018000Y020374D02*
X014153Y020374D01*
X013873Y020020D02*
X013694Y019841D01*
X013873Y020020D02*
X013873Y021141D01*
X014762Y021166D02*
X017918Y021166D01*
X018013Y021261D02*
X017749Y020997D01*
X017749Y020821D01*
X018189Y020821D01*
X018189Y021261D01*
X018013Y021261D01*
X018157Y021325D02*
X014762Y021325D01*
X014762Y021483D02*
X018013Y021483D01*
X017892Y021642D02*
X014762Y021642D01*
X014678Y021800D02*
X017873Y021800D01*
X017873Y021854D02*
X017873Y021854D01*
X017965Y021959D02*
X010031Y021959D01*
X010185Y022117D02*
X018099Y022117D01*
X018093Y022269D02*
X018093Y022269D01*
X018093Y022269D01*
X018086Y022276D02*
X010249Y022276D01*
X010261Y022434D02*
X017969Y022434D01*
X017873Y021677D02*
X017873Y021677D01*
X018189Y021166D02*
X018209Y021166D01*
X018209Y021008D02*
X018189Y021008D01*
X018189Y020849D02*
X018209Y020849D01*
X018209Y020691D02*
X018189Y020691D01*
X018189Y020532D02*
X018209Y020532D01*
X018209Y020374D02*
X018189Y020374D01*
X018399Y020374D02*
X018972Y020374D01*
X018939Y020215D02*
X018460Y020215D01*
X018618Y020057D02*
X018781Y020057D01*
X018729Y019898D02*
X018669Y019898D01*
X018669Y019740D02*
X018729Y019740D01*
X018764Y019581D02*
X018635Y019581D01*
X018476Y019423D02*
X018923Y019423D01*
X018988Y019264D02*
X018411Y019264D01*
X018569Y019106D02*
X018830Y019106D01*
X018729Y018947D02*
X018669Y018947D01*
X018669Y018789D02*
X018729Y018789D01*
X018729Y018630D02*
X018669Y018630D01*
X018525Y018472D02*
X018874Y018472D01*
X018879Y018155D02*
X018520Y018155D01*
X018394Y018281D02*
X018005Y018281D01*
X017729Y018005D01*
X017729Y017616D01*
X018005Y017341D01*
X018394Y017341D01*
X018669Y017616D01*
X018669Y018005D01*
X018394Y018281D01*
X018669Y017996D02*
X018729Y017996D01*
X018729Y017838D02*
X018669Y017838D01*
X018669Y017679D02*
X018729Y017679D01*
X018825Y017521D02*
X018574Y017521D01*
X018416Y017362D02*
X018983Y017362D01*
X018928Y017204D02*
X018471Y017204D01*
X018394Y017281D02*
X018669Y017005D01*
X018669Y016616D01*
X018394Y016341D01*
X018005Y016341D01*
X017729Y016616D01*
X017729Y017005D01*
X018005Y017281D01*
X018394Y017281D01*
X018630Y017045D02*
X018769Y017045D01*
X018729Y016887D02*
X018669Y016887D01*
X018669Y016728D02*
X018729Y016728D01*
X018776Y016570D02*
X018623Y016570D01*
X018465Y016411D02*
X018934Y016411D01*
X018977Y016253D02*
X018422Y016253D01*
X018394Y016281D02*
X018005Y016281D01*
X017729Y016005D01*
X017729Y015616D01*
X018005Y015341D01*
X018394Y015341D01*
X018669Y015616D01*
X018669Y016005D01*
X018394Y016281D01*
X018581Y016094D02*
X018818Y016094D01*
X018729Y015936D02*
X018669Y015936D01*
X018669Y015777D02*
X018729Y015777D01*
X018729Y015619D02*
X018669Y015619D01*
X018514Y015460D02*
X018885Y015460D01*
X018867Y015143D02*
X018532Y015143D01*
X018669Y015005D02*
X018394Y015281D01*
X018005Y015281D01*
X017729Y015005D01*
X017729Y014616D01*
X018005Y014341D01*
X018394Y014341D01*
X018669Y014616D01*
X018669Y015005D01*
X018669Y014985D02*
X018729Y014985D01*
X018729Y014826D02*
X018669Y014826D01*
X018669Y014668D02*
X018729Y014668D01*
X018836Y014509D02*
X018563Y014509D01*
X018404Y014351D02*
X018995Y014351D01*
X018916Y014192D02*
X018483Y014192D01*
X018394Y014281D02*
X018005Y014281D01*
X017729Y014005D01*
X017729Y013616D01*
X018005Y013341D01*
X018394Y013341D01*
X018669Y013616D01*
X018669Y014005D01*
X018394Y014281D01*
X018641Y014034D02*
X018758Y014034D01*
X018729Y013875D02*
X018669Y013875D01*
X018669Y013717D02*
X018729Y013717D01*
X018787Y013558D02*
X018612Y013558D01*
X018453Y013400D02*
X018946Y013400D01*
X018965Y013241D02*
X018434Y013241D01*
X018394Y013281D02*
X018669Y013005D01*
X018669Y012616D01*
X018394Y012341D01*
X018005Y012341D01*
X017729Y012616D01*
X017729Y013005D01*
X018005Y013281D01*
X018394Y013281D01*
X018592Y013083D02*
X018807Y013083D01*
X018729Y012924D02*
X018669Y012924D01*
X018669Y012766D02*
X018729Y012766D01*
X018738Y012607D02*
X018661Y012607D01*
X018502Y012449D02*
X018897Y012449D01*
X018856Y012132D02*
X018543Y012132D01*
X018669Y012005D02*
X018394Y012281D01*
X018005Y012281D01*
X017729Y012005D01*
X017729Y011616D01*
X018005Y011341D01*
X018394Y011341D01*
X018669Y011616D01*
X018669Y012005D01*
X018669Y011973D02*
X018729Y011973D01*
X018729Y011815D02*
X018669Y011815D01*
X018669Y011656D02*
X018729Y011656D01*
X018848Y011498D02*
X018551Y011498D01*
X018386Y011261D02*
X018209Y011261D01*
X018209Y010821D01*
X018189Y010821D01*
X018189Y010801D01*
X017749Y010801D01*
X017749Y010624D01*
X018013Y010361D01*
X018189Y010361D01*
X018189Y010801D01*
X018209Y010801D01*
X018209Y010361D01*
X018386Y010361D01*
X018649Y010624D01*
X018649Y010801D01*
X018209Y010801D01*
X018209Y010821D01*
X018649Y010821D01*
X018649Y010997D01*
X018386Y011261D01*
X018466Y011181D02*
X018905Y011181D01*
X018746Y011022D02*
X018624Y011022D01*
X018649Y010864D02*
X018729Y010864D01*
X018729Y010705D02*
X018649Y010705D01*
X018572Y010547D02*
X018799Y010547D01*
X018957Y010388D02*
X018413Y010388D01*
X018394Y010281D02*
X018005Y010281D01*
X017729Y010005D01*
X017729Y009616D01*
X018005Y009341D01*
X018394Y009341D01*
X018669Y009616D01*
X018669Y010005D01*
X018394Y010281D01*
X018445Y010230D02*
X018954Y010230D01*
X018795Y010071D02*
X018604Y010071D01*
X018669Y009913D02*
X018729Y009913D01*
X018729Y009754D02*
X018669Y009754D01*
X018649Y009596D02*
X018750Y009596D01*
X018908Y009437D02*
X018491Y009437D01*
X018394Y009281D02*
X018005Y009281D01*
X017729Y009005D01*
X017729Y008616D01*
X018005Y008341D01*
X018394Y008341D01*
X018669Y008616D01*
X018669Y009005D01*
X018394Y009281D01*
X018396Y009279D02*
X019003Y009279D01*
X018844Y009120D02*
X018555Y009120D01*
X018669Y008962D02*
X018729Y008962D01*
X018729Y008803D02*
X018669Y008803D01*
X018669Y008645D02*
X018729Y008645D01*
X018859Y008486D02*
X018540Y008486D01*
X018394Y008281D02*
X018669Y008005D01*
X018669Y007616D01*
X018394Y007341D01*
X018005Y007341D01*
X017729Y007616D01*
X017729Y008005D01*
X018005Y008281D01*
X018394Y008281D01*
X018506Y008169D02*
X018893Y008169D01*
X018735Y008011D02*
X018664Y008011D01*
X018669Y007852D02*
X018729Y007852D01*
X018729Y007694D02*
X018669Y007694D01*
X018589Y007535D02*
X018810Y007535D01*
X018969Y007377D02*
X018430Y007377D01*
X018394Y007281D02*
X018669Y007005D01*
X018669Y006616D01*
X018394Y006341D01*
X018005Y006341D01*
X017729Y006616D01*
X017729Y007005D01*
X018005Y007281D01*
X018394Y007281D01*
X018457Y007218D02*
X018942Y007218D01*
X018784Y007060D02*
X018615Y007060D01*
X018669Y006901D02*
X018729Y006901D01*
X018729Y006743D02*
X018669Y006743D01*
X018638Y006584D02*
X018761Y006584D01*
X018920Y006426D02*
X018479Y006426D01*
X018394Y006281D02*
X018669Y006005D01*
X018669Y005616D01*
X018394Y005341D01*
X018005Y005341D01*
X017729Y005616D01*
X017729Y006005D01*
X018005Y006281D01*
X018394Y006281D01*
X018408Y006267D02*
X018991Y006267D01*
X018833Y006109D02*
X018566Y006109D01*
X018669Y005950D02*
X018729Y005950D01*
X018729Y005792D02*
X018669Y005792D01*
X018669Y005633D02*
X018729Y005633D01*
X018871Y005475D02*
X018528Y005475D01*
X018394Y005281D02*
X018005Y005281D01*
X017729Y005005D01*
X017729Y004616D01*
X018005Y004341D01*
X018394Y004341D01*
X018669Y004616D01*
X018669Y005005D01*
X018394Y005281D01*
X018517Y005158D02*
X018882Y005158D01*
X018729Y004999D02*
X018669Y004999D01*
X018669Y004841D02*
X018729Y004841D01*
X018729Y004682D02*
X018669Y004682D01*
X018577Y004524D02*
X018822Y004524D01*
X018980Y004365D02*
X018419Y004365D01*
X018468Y004207D02*
X018931Y004207D01*
X018772Y004048D02*
X018610Y004048D01*
X018669Y003890D02*
X018729Y003890D01*
X018729Y003731D02*
X018669Y003731D01*
X017931Y004207D02*
X017045Y004207D01*
X017032Y004365D02*
X017980Y004365D01*
X017822Y004524D02*
X016966Y004524D01*
X016845Y004682D02*
X017729Y004682D01*
X017729Y004841D02*
X016605Y004841D01*
X016098Y004841D02*
X015310Y004841D01*
X015402Y004933D02*
X015531Y005246D01*
X015531Y005585D01*
X015402Y005899D01*
X015162Y006139D01*
X014848Y006268D01*
X014509Y006268D01*
X014196Y006139D01*
X013956Y005899D01*
X013826Y005585D01*
X013826Y005246D01*
X013956Y004933D01*
X014196Y004693D01*
X014509Y004563D01*
X014848Y004563D01*
X015162Y004693D01*
X015402Y004933D01*
X015429Y004999D02*
X017729Y004999D01*
X017882Y005158D02*
X015495Y005158D01*
X015531Y005316D02*
X019410Y005316D01*
X019408Y006267D02*
X019410Y006267D01*
X017991Y006267D02*
X016708Y006267D01*
X016686Y006245D02*
X016763Y006322D01*
X016829Y006409D01*
X016884Y006503D01*
X016926Y006604D01*
X016954Y006709D01*
X016965Y006792D01*
X016215Y006792D01*
X016215Y006043D01*
X016298Y006054D01*
X016404Y006082D01*
X016504Y006124D01*
X016599Y006178D01*
X016686Y006245D01*
X016839Y006426D02*
X017920Y006426D01*
X017761Y006584D02*
X016917Y006584D01*
X016958Y006743D02*
X017729Y006743D01*
X017729Y006901D02*
X016215Y006901D01*
X016175Y006872D02*
X017284Y007981D01*
X017284Y010326D01*
X017499Y010851D02*
X017444Y010906D01*
X017444Y012131D01*
X017729Y011973D02*
X016361Y011973D01*
X016361Y011815D02*
X017729Y011815D01*
X017729Y011656D02*
X016361Y011656D01*
X016361Y011498D02*
X017848Y011498D01*
X018013Y011261D02*
X017749Y010997D01*
X017749Y010821D01*
X018189Y010821D01*
X018189Y011261D01*
X018013Y011261D01*
X017933Y011181D02*
X016361Y011181D01*
X016361Y011339D02*
X019410Y011339D01*
X019410Y012290D02*
X016869Y012290D01*
X016869Y012449D02*
X017897Y012449D01*
X017738Y012607D02*
X016869Y012607D01*
X016869Y012766D02*
X017729Y012766D01*
X017729Y012924D02*
X016869Y012924D01*
X016869Y013083D02*
X017807Y013083D01*
X017965Y013241D02*
X016869Y013241D01*
X016869Y013400D02*
X017946Y013400D01*
X017787Y013558D02*
X016869Y013558D01*
X016869Y013717D02*
X017729Y013717D01*
X017729Y013875D02*
X016869Y013875D01*
X016869Y014034D02*
X017758Y014034D01*
X017916Y014192D02*
X016869Y014192D01*
X016869Y014351D02*
X017995Y014351D01*
X017836Y014509D02*
X016869Y014509D01*
X017729Y014668D02*
X014929Y014668D01*
X014929Y014826D02*
X017729Y014826D01*
X017729Y014985D02*
X014929Y014985D01*
X014929Y015143D02*
X017867Y015143D01*
X017885Y015460D02*
X015164Y015460D01*
X015164Y015619D02*
X017729Y015619D01*
X017729Y015777D02*
X015164Y015777D01*
X015164Y015936D02*
X017729Y015936D01*
X017818Y016094D02*
X016869Y016094D01*
X016869Y016253D02*
X017977Y016253D01*
X017934Y016411D02*
X016869Y016411D01*
X016869Y016570D02*
X017776Y016570D01*
X017729Y016728D02*
X016869Y016728D01*
X016869Y016887D02*
X017729Y016887D01*
X017769Y017045D02*
X016869Y017045D01*
X016869Y017204D02*
X017928Y017204D01*
X017983Y017362D02*
X016869Y017362D01*
X016869Y017521D02*
X017825Y017521D01*
X017729Y017679D02*
X016869Y017679D01*
X016869Y017838D02*
X017729Y017838D01*
X017729Y017996D02*
X016869Y017996D01*
X016869Y018155D02*
X017879Y018155D01*
X017874Y018472D02*
X015124Y018472D01*
X015124Y018630D02*
X017729Y018630D01*
X017729Y018789D02*
X015124Y018789D01*
X015124Y018728D02*
X015124Y018959D01*
X015112Y019005D01*
X015088Y019046D01*
X015054Y019080D01*
X015013Y019103D01*
X014968Y019116D01*
X014697Y019116D01*
X014697Y018728D01*
X015124Y018728D01*
X015124Y018947D02*
X017729Y018947D01*
X017830Y019106D02*
X015004Y019106D01*
X014697Y019106D02*
X014601Y019106D01*
X014601Y018947D02*
X014697Y018947D01*
X014697Y018789D02*
X014601Y018789D01*
X014649Y018680D02*
X014649Y019791D01*
X015504Y020646D01*
X017519Y020646D01*
X017749Y020691D02*
X014762Y020691D01*
X014762Y020849D02*
X017749Y020849D01*
X017760Y021008D02*
X014762Y021008D01*
X014729Y020532D02*
X017842Y020532D01*
X018557Y020532D02*
X018813Y020532D01*
X018729Y020691D02*
X018649Y020691D01*
X018649Y020849D02*
X018729Y020849D01*
X018732Y021008D02*
X018639Y021008D01*
X018480Y021166D02*
X018890Y021166D01*
X018860Y021325D02*
X019410Y021325D01*
X019410Y021483D02*
X019005Y021483D01*
X018957Y021421D02*
X018957Y021421D01*
X019041Y021557D02*
X019041Y021557D01*
X019125Y021641D02*
X019125Y021641D01*
X019125Y021642D02*
X019410Y021642D01*
X019410Y021800D02*
X019145Y021800D01*
X019052Y021959D02*
X019410Y021959D01*
X019410Y022117D02*
X018914Y022117D01*
X018903Y022128D02*
X018903Y022128D01*
X018845Y022161D02*
X018845Y022161D01*
X018843Y022160D02*
X018843Y022160D01*
X018861Y022181D02*
X018861Y022181D01*
X018905Y022241D02*
X018905Y022241D01*
X018931Y022276D02*
X019410Y022276D01*
X019410Y022434D02*
X019049Y022434D01*
X019025Y022401D02*
X019025Y022401D01*
X019009Y022381D02*
X019009Y022381D01*
X018965Y022321D02*
X018965Y022321D01*
X018949Y022301D02*
X018949Y022301D01*
X019410Y018313D02*
X016869Y018313D01*
X016033Y017932D02*
X016289Y017191D01*
X015709Y017204D02*
X014929Y017204D01*
X014929Y017362D02*
X015709Y017362D01*
X015709Y017521D02*
X015072Y017521D01*
X014929Y017045D02*
X015709Y017045D01*
X015709Y016887D02*
X015060Y016887D01*
X015164Y016728D02*
X015709Y016728D01*
X015709Y016570D02*
X015164Y016570D01*
X015164Y016411D02*
X015709Y016411D01*
X015709Y016253D02*
X015164Y016253D01*
X015152Y016094D02*
X015709Y016094D01*
X015107Y015302D02*
X019410Y015302D01*
X019404Y014351D02*
X019410Y014351D01*
X017856Y012132D02*
X016361Y012132D01*
X015709Y012290D02*
X015150Y012290D01*
X014991Y012449D02*
X015709Y012449D01*
X015709Y012607D02*
X008877Y012607D01*
X008743Y012924D02*
X014193Y012924D01*
X014188Y012942D02*
X014201Y012896D01*
X014224Y012855D01*
X014258Y012822D01*
X014299Y012798D01*
X014345Y012786D01*
X014616Y012786D01*
X014616Y013174D01*
X014188Y013174D01*
X014188Y012942D01*
X014188Y013083D02*
X011204Y013083D01*
X011284Y013241D02*
X014616Y013241D01*
X014664Y013222D02*
X014198Y012756D01*
X008559Y012756D01*
X008279Y012476D01*
X008442Y012766D02*
X015709Y012766D01*
X015709Y012924D02*
X015134Y012924D01*
X015139Y012942D02*
X015139Y013174D01*
X014712Y013174D01*
X014712Y012786D01*
X014983Y012786D01*
X015028Y012798D01*
X015069Y012822D01*
X015103Y012855D01*
X015127Y012896D01*
X015139Y012942D01*
X015139Y013083D02*
X015709Y013083D01*
X015552Y013241D02*
X014712Y013241D01*
X014712Y013083D02*
X014616Y013083D01*
X014616Y012924D02*
X014712Y012924D01*
X014718Y012326D02*
X015669Y011375D01*
X016361Y011022D02*
X017774Y011022D01*
X017749Y010864D02*
X016361Y010864D01*
X016361Y010705D02*
X017749Y010705D01*
X017634Y010811D02*
X018199Y010811D01*
X018189Y010864D02*
X018209Y010864D01*
X018209Y011022D02*
X018189Y011022D01*
X018189Y011181D02*
X018209Y011181D01*
X018189Y010705D02*
X018209Y010705D01*
X018209Y010547D02*
X018189Y010547D01*
X018189Y010388D02*
X018209Y010388D01*
X017986Y010388D02*
X013469Y010388D01*
X013469Y010230D02*
X017954Y010230D01*
X017795Y010071D02*
X013704Y010071D01*
X013704Y009913D02*
X017729Y009913D01*
X017729Y009754D02*
X013704Y009754D01*
X013704Y009596D02*
X014984Y009596D01*
X014976Y009437D02*
X013704Y009437D01*
X013680Y009279D02*
X014976Y009279D01*
X014976Y009120D02*
X013684Y009120D01*
X013684Y008939D02*
X013237Y008939D01*
X013237Y008551D01*
X013527Y008551D01*
X013573Y008563D01*
X013614Y008587D01*
X013648Y008620D01*
X013671Y008661D01*
X013684Y008707D01*
X013684Y008939D01*
X013684Y008803D02*
X014976Y008803D01*
X014976Y008645D02*
X013662Y008645D01*
X013237Y008645D02*
X013141Y008645D01*
X013141Y008551D02*
X013141Y008939D01*
X012694Y008939D01*
X012694Y008707D01*
X012706Y008661D01*
X012730Y008620D01*
X012763Y008587D01*
X012804Y008563D01*
X012850Y008551D01*
X013141Y008551D01*
X013141Y008803D02*
X013237Y008803D01*
X013237Y008962D02*
X014976Y008962D01*
X014943Y008486D02*
X008396Y008486D01*
X008396Y008328D02*
X014784Y008328D01*
X014768Y007916D02*
X012260Y007916D01*
X011804Y007460D01*
X011760Y007416D01*
X011029Y007416D01*
X010671Y007058D01*
X010671Y006207D01*
X010965Y005633D02*
X011229Y005633D01*
X011229Y005475D02*
X007784Y005475D01*
X008012Y005633D02*
X008545Y005633D01*
X008780Y005633D02*
X009314Y005633D01*
X009114Y005792D02*
X009061Y005792D01*
X009234Y006743D02*
X008873Y006743D01*
X008453Y006743D02*
X008092Y006743D01*
X007904Y007060D02*
X010391Y007060D01*
X010391Y006901D02*
X007745Y006901D01*
X007759Y007311D02*
X007759Y008751D01*
X007704Y008806D01*
X008396Y008803D02*
X009624Y008803D01*
X009624Y008767D02*
X009636Y008721D01*
X009660Y008680D01*
X009693Y008647D01*
X009734Y008623D01*
X009780Y008611D01*
X010071Y008611D01*
X010071Y008999D01*
X009624Y008999D01*
X009624Y008767D01*
X009697Y008645D02*
X008396Y008645D01*
X008396Y008962D02*
X009624Y008962D01*
X009624Y009120D02*
X008396Y009120D01*
X008396Y009279D02*
X009624Y009279D01*
X009622Y009437D02*
X008396Y009437D01*
X008396Y008169D02*
X012140Y008169D01*
X011959Y008011D02*
X008372Y008011D01*
X008039Y007852D02*
X011342Y007852D01*
X010968Y007694D02*
X008039Y007694D01*
X008039Y007535D02*
X010752Y007535D01*
X010594Y007377D02*
X008039Y007377D01*
X008023Y007218D02*
X010435Y007218D01*
X010297Y006743D02*
X009982Y006743D01*
X010102Y005792D02*
X010177Y005792D01*
X010377Y005633D02*
X009902Y005633D01*
X010261Y004682D02*
X009180Y004682D01*
X009281Y004524D02*
X010127Y004524D01*
X010061Y004365D02*
X009332Y004365D01*
X009164Y004151D02*
X009639Y003676D01*
X011739Y003676D01*
X012349Y004286D01*
X012349Y005216D01*
X012190Y005375D01*
X011724Y005375D01*
X011804Y005455D01*
X011804Y006712D01*
X013061Y006712D01*
X013222Y006872D01*
X013302Y006901D02*
X016055Y006901D01*
X016055Y006952D02*
X016055Y006792D01*
X015306Y006792D01*
X015317Y006709D01*
X015345Y006604D01*
X015387Y006503D01*
X015441Y006409D01*
X015508Y006322D01*
X015585Y006245D01*
X015672Y006178D01*
X015766Y006124D01*
X015867Y006082D01*
X015972Y006054D01*
X016055Y006043D01*
X016055Y006792D01*
X016215Y006792D01*
X016215Y006952D01*
X016055Y006952D01*
X015306Y006952D01*
X015317Y007035D01*
X015345Y007141D01*
X015387Y007241D01*
X015441Y007336D01*
X015508Y007423D01*
X015585Y007500D01*
X015672Y007566D01*
X015766Y007621D01*
X015867Y007663D01*
X015972Y007691D01*
X016055Y007702D01*
X016055Y006952D01*
X016055Y007060D02*
X016215Y007060D01*
X016215Y006952D02*
X016215Y007702D01*
X016298Y007691D01*
X016404Y007663D01*
X016504Y007621D01*
X016599Y007566D01*
X016686Y007500D01*
X016763Y007423D01*
X016829Y007336D01*
X016884Y007241D01*
X016926Y007141D01*
X016954Y007035D01*
X016965Y006952D01*
X016215Y006952D01*
X016175Y006872D02*
X016135Y006872D01*
X016055Y006743D02*
X016215Y006743D01*
X016215Y006584D02*
X016055Y006584D01*
X016055Y006426D02*
X016215Y006426D01*
X016215Y006267D02*
X016055Y006267D01*
X016055Y006109D02*
X016215Y006109D01*
X016468Y006109D02*
X017833Y006109D01*
X017729Y005950D02*
X015350Y005950D01*
X015446Y005792D02*
X017729Y005792D01*
X017729Y005633D02*
X015512Y005633D01*
X015531Y005475D02*
X017871Y005475D01*
X017789Y004048D02*
X017041Y004048D01*
X016976Y003890D02*
X017729Y003890D01*
X017729Y003731D02*
X016868Y003731D01*
X015835Y003731D02*
X013522Y003731D01*
X013629Y003890D02*
X015728Y003890D01*
X015662Y004048D02*
X013695Y004048D01*
X013699Y004207D02*
X015658Y004207D01*
X015672Y004365D02*
X013685Y004365D01*
X013620Y004524D02*
X015737Y004524D01*
X015858Y004682D02*
X015136Y004682D01*
X014221Y004682D02*
X013499Y004682D01*
X013259Y004841D02*
X014048Y004841D01*
X013928Y004999D02*
X012205Y004999D01*
X012219Y005158D02*
X013862Y005158D01*
X013826Y005316D02*
X012219Y005316D01*
X012219Y005423D02*
X012219Y005654D01*
X012206Y005700D01*
X012183Y005741D01*
X012149Y005775D01*
X012108Y005798D01*
X012062Y005811D01*
X011772Y005811D01*
X011772Y005423D01*
X012219Y005423D01*
X012219Y005475D02*
X013826Y005475D01*
X013846Y005633D02*
X012219Y005633D01*
X012120Y005792D02*
X013911Y005792D01*
X014007Y005950D02*
X011260Y005950D01*
X011314Y006109D02*
X012889Y006109D01*
X012853Y006124D02*
X012954Y006082D01*
X013059Y006054D01*
X013142Y006043D01*
X013142Y006792D01*
X012392Y006792D01*
X012403Y006709D01*
X012432Y006604D01*
X012473Y006503D01*
X012528Y006409D01*
X012594Y006322D01*
X012672Y006245D01*
X012758Y006178D01*
X012853Y006124D01*
X012649Y006267D02*
X011314Y006267D01*
X011378Y006312D02*
X011419Y006288D01*
X011465Y006276D01*
X011756Y006276D01*
X011756Y006664D01*
X011309Y006664D01*
X011309Y006432D01*
X011321Y006386D01*
X011345Y006345D01*
X011378Y006312D01*
X011310Y006426D02*
X011276Y006426D01*
X011309Y006584D02*
X011203Y006584D01*
X011045Y006743D02*
X011756Y006743D01*
X011852Y006743D02*
X012399Y006743D01*
X012299Y006664D02*
X011852Y006664D01*
X011852Y006276D01*
X012142Y006276D01*
X012188Y006288D01*
X012229Y006312D01*
X012263Y006345D01*
X012286Y006386D01*
X012299Y006432D01*
X012299Y006664D01*
X012299Y006584D02*
X012440Y006584D01*
X012518Y006426D02*
X012297Y006426D01*
X011852Y006426D02*
X011756Y006426D01*
X011756Y006584D02*
X011852Y006584D01*
X012299Y006901D02*
X013142Y006901D01*
X013142Y006743D02*
X013302Y006743D01*
X013302Y006584D02*
X013142Y006584D01*
X013142Y006426D02*
X013302Y006426D01*
X013302Y006267D02*
X013142Y006267D01*
X013142Y006109D02*
X013302Y006109D01*
X013554Y006109D02*
X014166Y006109D01*
X013926Y006426D02*
X015432Y006426D01*
X015353Y006584D02*
X014004Y006584D01*
X014045Y006743D02*
X015312Y006743D01*
X015323Y007060D02*
X014034Y007060D01*
X013980Y007218D02*
X015377Y007218D01*
X015473Y007377D02*
X013885Y007377D01*
X013726Y007535D02*
X015631Y007535D01*
X015994Y007694D02*
X014942Y007694D01*
X015101Y007852D02*
X017729Y007852D01*
X017729Y007694D02*
X016277Y007694D01*
X016215Y007694D02*
X016055Y007694D01*
X016055Y007535D02*
X016215Y007535D01*
X016215Y007377D02*
X016055Y007377D01*
X016055Y007218D02*
X016215Y007218D01*
X016639Y007535D02*
X017810Y007535D01*
X017969Y007377D02*
X016798Y007377D01*
X016893Y007218D02*
X017942Y007218D01*
X017784Y007060D02*
X016947Y007060D01*
X016327Y008011D02*
X017735Y008011D01*
X017893Y008169D02*
X016361Y008169D01*
X016361Y008328D02*
X019410Y008328D01*
X019396Y009279D02*
X019410Y009279D01*
X018003Y009279D02*
X016361Y009279D01*
X016361Y009437D02*
X017908Y009437D01*
X017750Y009596D02*
X016353Y009596D01*
X016361Y009120D02*
X017844Y009120D01*
X017729Y008962D02*
X016361Y008962D01*
X016361Y008803D02*
X017729Y008803D01*
X017729Y008645D02*
X016361Y008645D01*
X016361Y008486D02*
X017859Y008486D01*
X017827Y010547D02*
X016304Y010547D01*
X015033Y010547D02*
X013673Y010547D01*
X013704Y010705D02*
X014976Y010705D01*
X014976Y010864D02*
X013704Y010864D01*
X013704Y011022D02*
X014976Y011022D01*
X014976Y011181D02*
X013704Y011181D01*
X013704Y011339D02*
X014976Y011339D01*
X014976Y011498D02*
X013704Y011498D01*
X013704Y011656D02*
X014976Y011656D01*
X014833Y011815D02*
X013704Y011815D01*
X013704Y011973D02*
X014675Y011973D01*
X014718Y012326D02*
X013274Y012326D01*
X013209Y012261D01*
X013209Y011665D01*
X012713Y011815D02*
X012359Y011815D01*
X012359Y011973D02*
X012713Y011973D01*
X013274Y012326D02*
X011814Y012326D01*
X008624Y012326D01*
X008761Y011973D02*
X009038Y011973D01*
X009022Y011935D02*
X009068Y012046D01*
X008878Y012046D01*
X008838Y012005D01*
X008699Y011947D01*
X008548Y011947D01*
X008409Y012005D01*
X008396Y012019D01*
X008396Y011935D01*
X009022Y011935D01*
X008487Y011973D02*
X008396Y011973D01*
X008584Y013161D02*
X008003Y013161D01*
X008584Y013161D02*
X008729Y013306D01*
X008446Y013558D02*
X008439Y013558D01*
X009107Y013241D02*
X009644Y013241D01*
X009745Y013083D02*
X009040Y013083D01*
X010119Y010907D02*
X010119Y009795D01*
X010615Y009437D02*
X011224Y009437D01*
X011244Y009279D02*
X010614Y009279D01*
X010614Y009120D02*
X011244Y009120D01*
X011244Y008979D02*
X011244Y008747D01*
X011256Y008701D01*
X011280Y008660D01*
X011313Y008627D01*
X011354Y008603D01*
X011400Y008591D01*
X011691Y008591D01*
X011691Y008979D01*
X011244Y008979D01*
X011244Y008962D02*
X010614Y008962D01*
X010614Y008999D02*
X010167Y008999D01*
X010167Y008611D01*
X010457Y008611D01*
X010503Y008623D01*
X010544Y008647D01*
X010578Y008680D01*
X010601Y008721D01*
X010614Y008767D01*
X010614Y008999D01*
X010614Y008803D02*
X011244Y008803D01*
X011295Y008645D02*
X010541Y008645D01*
X010167Y008645D02*
X010071Y008645D01*
X010071Y008803D02*
X010167Y008803D01*
X010167Y008962D02*
X010071Y008962D01*
X010139Y009027D02*
X010119Y009047D01*
X010139Y009027D02*
X011739Y009027D01*
X011779Y008987D01*
X012509Y008987D01*
X012694Y009120D02*
X012234Y009120D01*
X012234Y008979D02*
X011787Y008979D01*
X011787Y008591D01*
X012077Y008591D01*
X012123Y008603D01*
X012164Y008627D01*
X012198Y008660D01*
X012221Y008701D01*
X012234Y008747D01*
X012234Y008979D01*
X012234Y008962D02*
X013141Y008962D01*
X012694Y008803D02*
X012234Y008803D01*
X012182Y008645D02*
X012715Y008645D01*
X012697Y009279D02*
X012234Y009279D01*
X012254Y009437D02*
X012674Y009437D01*
X012674Y009596D02*
X012254Y009596D01*
X012254Y009754D02*
X012674Y009754D01*
X012674Y009913D02*
X012254Y009913D01*
X012254Y010071D02*
X012674Y010071D01*
X013189Y009735D02*
X013189Y010897D01*
X013209Y010917D01*
X011787Y008962D02*
X011691Y008962D01*
X011691Y008803D02*
X011787Y008803D01*
X011787Y008645D02*
X011691Y008645D01*
X012319Y007535D02*
X012718Y007535D01*
X012559Y007377D02*
X012319Y007377D01*
X012319Y007218D02*
X012464Y007218D01*
X012410Y007060D02*
X012273Y007060D01*
X011772Y005792D02*
X011676Y005792D01*
X011676Y005633D02*
X011772Y005633D01*
X011772Y005475D02*
X011676Y005475D01*
X011328Y005792D02*
X011165Y005792D01*
X011229Y005316D02*
X010844Y005316D01*
X011003Y005158D02*
X011229Y005158D01*
X011242Y004999D02*
X011161Y004999D01*
X011138Y004627D02*
X010649Y005116D01*
X007747Y005116D01*
X006655Y006207D01*
X007759Y007311D01*
X007429Y007377D02*
X005430Y007377D01*
X005457Y007218D02*
X007270Y007218D01*
X007112Y007060D02*
X005615Y007060D01*
X005669Y006901D02*
X006953Y006901D01*
X006281Y006743D02*
X005669Y006743D01*
X005638Y006584D02*
X006123Y006584D01*
X006050Y006426D02*
X005479Y006426D01*
X005408Y006267D02*
X006012Y006267D01*
X006012Y006109D02*
X005566Y006109D01*
X005669Y005950D02*
X006066Y005950D01*
X006161Y005792D02*
X005669Y005792D01*
X005669Y005633D02*
X006361Y005633D01*
X006992Y005475D02*
X005528Y005475D01*
X005517Y005158D02*
X007309Y005158D01*
X007467Y004999D02*
X005669Y004999D01*
X005669Y004841D02*
X007679Y004841D01*
X008045Y004524D02*
X007199Y004524D01*
X007182Y004564D02*
X007020Y004726D01*
X006809Y004814D01*
X006580Y004814D01*
X006369Y004726D01*
X006207Y004564D01*
X006119Y004353D01*
X006119Y004124D01*
X006207Y003913D01*
X006369Y003751D01*
X006580Y003663D01*
X006809Y003663D01*
X007020Y003751D01*
X007182Y003913D01*
X007270Y004124D01*
X007270Y004353D01*
X007182Y004564D01*
X007064Y004682D02*
X008146Y004682D01*
X007994Y004365D02*
X007265Y004365D01*
X007270Y004207D02*
X008595Y004207D01*
X008663Y004239D02*
X009081Y004239D01*
X009254Y004066D01*
X009316Y004048D02*
X010088Y004048D01*
X010056Y004207D02*
X008731Y004207D01*
X009117Y003731D02*
X010353Y003731D01*
X010167Y003890D02*
X009247Y003890D01*
X008209Y003731D02*
X006973Y003731D01*
X007159Y003890D02*
X008079Y003890D01*
X008010Y004048D02*
X007238Y004048D01*
X006416Y003731D02*
X005669Y003731D01*
X005669Y003890D02*
X006230Y003890D01*
X006151Y004048D02*
X005627Y004048D01*
X005468Y004207D02*
X006119Y004207D01*
X006124Y004365D02*
X005419Y004365D01*
X005577Y004524D02*
X006190Y004524D01*
X006324Y004682D02*
X005669Y004682D01*
X007150Y005316D02*
X003989Y005316D01*
X003989Y006267D02*
X003991Y006267D01*
X003989Y008328D02*
X007011Y008328D01*
X007011Y008486D02*
X005540Y008486D01*
X005669Y008645D02*
X007011Y008645D01*
X007011Y008803D02*
X005669Y008803D01*
X005669Y008962D02*
X007011Y008962D01*
X007011Y009120D02*
X005555Y009120D01*
X005396Y009279D02*
X007011Y009279D01*
X007011Y009437D02*
X005491Y009437D01*
X005649Y009596D02*
X007029Y009596D01*
X007011Y008169D02*
X005506Y008169D01*
X005664Y008011D02*
X007035Y008011D01*
X007479Y007852D02*
X005669Y007852D01*
X005669Y007694D02*
X007479Y007694D01*
X007479Y007535D02*
X005589Y007535D01*
X004003Y009279D02*
X003989Y009279D01*
X005551Y011498D02*
X007011Y011498D01*
X007011Y011656D02*
X005669Y011656D01*
X005669Y011815D02*
X007011Y011815D01*
X007011Y011973D02*
X005669Y011973D01*
X005543Y012132D02*
X007011Y012132D01*
X006975Y012685D02*
X007207Y012685D01*
X007207Y013113D01*
X006819Y013113D01*
X006819Y012842D01*
X006831Y012796D01*
X006855Y012755D01*
X006888Y012721D01*
X006929Y012698D01*
X006975Y012685D01*
X006848Y012766D02*
X005669Y012766D01*
X005669Y012924D02*
X006819Y012924D01*
X006819Y013083D02*
X005592Y013083D01*
X005434Y013241D02*
X006819Y013241D01*
X006819Y013400D02*
X005453Y013400D01*
X005612Y013558D02*
X006850Y013558D01*
X006794Y013717D02*
X005669Y013717D01*
X005669Y013875D02*
X006794Y013875D01*
X006794Y014192D02*
X005483Y014192D01*
X005404Y014351D02*
X006795Y014351D01*
X006956Y014509D02*
X005563Y014509D01*
X005669Y014668D02*
X006956Y014668D01*
X006956Y014826D02*
X005669Y014826D01*
X005669Y014985D02*
X006956Y014985D01*
X006956Y015143D02*
X005532Y015143D01*
X005552Y016094D02*
X006485Y016094D01*
X007182Y014034D02*
X005641Y014034D01*
X007182Y013875D02*
X007278Y013875D01*
X007278Y013717D02*
X007182Y013717D01*
X007207Y013558D02*
X007278Y013558D01*
X007303Y013400D02*
X007207Y013400D01*
X007207Y013241D02*
X007303Y013241D01*
X007303Y013083D02*
X007207Y013083D01*
X007207Y012924D02*
X007303Y012924D01*
X007303Y012766D02*
X007207Y012766D01*
X008341Y015936D02*
X008498Y015936D01*
X008339Y016094D02*
X008294Y016094D01*
X008814Y016566D02*
X008861Y016613D01*
X010244Y016613D01*
X010244Y017243D02*
X010244Y017243D01*
X010244Y017362D02*
X010244Y017362D01*
X010244Y017521D02*
X010244Y017521D01*
X009238Y019326D02*
X009109Y019326D01*
X009109Y019905D01*
X009073Y019941D01*
X009109Y019976D01*
X009109Y020616D01*
X009218Y020616D01*
X009218Y019946D01*
X009269Y019895D01*
X009251Y019862D01*
X009238Y019816D01*
X009238Y019585D01*
X009666Y019585D01*
X009666Y019489D01*
X009238Y019489D01*
X009238Y019326D01*
X009238Y019423D02*
X009109Y019423D01*
X009109Y019581D02*
X009666Y019581D01*
X009238Y019740D02*
X009109Y019740D01*
X009109Y019898D02*
X009266Y019898D01*
X009218Y020057D02*
X009109Y020057D01*
X009109Y020215D02*
X009218Y020215D01*
X009218Y020374D02*
X009109Y020374D01*
X009109Y020532D02*
X009218Y020532D01*
X008875Y020959D02*
X008875Y021337D01*
X009040Y021800D02*
X009239Y021800D01*
X009253Y021959D02*
X009452Y021959D01*
X009457Y021800D02*
X010555Y021800D01*
X010445Y021642D02*
X009701Y021642D01*
X009784Y021483D02*
X010445Y021483D01*
X011234Y021483D02*
X011394Y021483D01*
X011394Y021325D02*
X011234Y021325D01*
X011234Y021221D02*
X011394Y021221D01*
X011394Y021813D01*
X012027Y021813D01*
X012073Y021800D01*
X013069Y021800D01*
X012984Y021642D02*
X012183Y021642D01*
X012183Y021656D02*
X012171Y021702D01*
X012147Y021743D01*
X012114Y021777D01*
X012073Y021800D01*
X012183Y021656D02*
X012183Y021221D01*
X011394Y021221D01*
X011394Y021061D01*
X012183Y021061D01*
X012183Y020625D01*
X012171Y020579D01*
X012147Y020538D01*
X012114Y020504D01*
X012073Y020481D01*
X012027Y020468D01*
X011394Y020468D01*
X011394Y021061D01*
X011234Y021061D01*
X011234Y021221D01*
X011394Y021166D02*
X012984Y021166D01*
X012984Y021008D02*
X012183Y021008D01*
X012183Y020849D02*
X012984Y020849D01*
X012984Y020691D02*
X012183Y020691D01*
X012141Y020532D02*
X013018Y020532D01*
X012984Y021325D02*
X012183Y021325D01*
X012183Y021483D02*
X012984Y021483D01*
X011394Y021642D02*
X011234Y021642D01*
X011234Y021800D02*
X011394Y021800D01*
X011394Y021008D02*
X011234Y021008D01*
X011234Y020849D02*
X011394Y020849D01*
X011394Y020691D02*
X011234Y020691D01*
X011234Y020532D02*
X011394Y020532D01*
X010211Y019898D02*
X010161Y019898D01*
X009775Y021959D02*
X009708Y021959D01*
X009708Y022117D02*
X009775Y022117D01*
X009742Y022174D02*
X009742Y022391D01*
X009708Y022276D02*
X009775Y022276D01*
X009298Y022117D02*
X009253Y022117D01*
X009253Y022567D02*
X009253Y022581D01*
X009257Y022581D01*
X009253Y022567D01*
X012091Y018155D02*
X012091Y018155D01*
X012091Y017996D02*
X012091Y017996D01*
X012091Y017838D02*
X012091Y017838D01*
X012091Y017831D02*
X012091Y017831D01*
X012091Y017679D02*
X012091Y017679D01*
X012091Y017521D02*
X012091Y017521D01*
X012622Y016674D02*
X013002Y016857D01*
X013174Y016897D01*
X013174Y015706D01*
X013106Y015721D01*
X012790Y015873D01*
X012515Y016092D01*
X012296Y016367D01*
X012281Y016398D01*
X012292Y016412D01*
X012622Y016674D01*
X012734Y016728D02*
X013174Y016728D01*
X013174Y016570D02*
X012491Y016570D01*
X012292Y016411D02*
X013174Y016411D01*
X013174Y016253D02*
X012387Y016253D01*
X012514Y016094D02*
X013174Y016094D01*
X013174Y015936D02*
X012712Y015936D01*
X012990Y015777D02*
X013174Y015777D01*
X013624Y015983D02*
X014362Y015983D01*
X014649Y015697D01*
X014649Y014161D01*
X014629Y014141D01*
X014629Y013921D01*
X014664Y013970D02*
X015220Y013970D01*
X015799Y013391D01*
X016289Y013391D01*
X015709Y014034D02*
X015552Y014034D01*
X015709Y014192D02*
X015393Y014192D01*
X015117Y014351D02*
X015709Y014351D01*
X015709Y014509D02*
X014929Y014509D01*
X014649Y014161D02*
X014649Y013985D01*
X014664Y013970D01*
X015120Y013558D02*
X015235Y013558D01*
X015139Y013400D02*
X015394Y013400D01*
X014369Y014509D02*
X013346Y014509D01*
X013346Y014351D02*
X014211Y014351D01*
X014168Y014192D02*
X013346Y014192D01*
X013262Y014034D02*
X014168Y014034D01*
X014168Y013875D02*
X011426Y013875D01*
X011390Y013717D02*
X014168Y013717D01*
X014207Y013558D02*
X011284Y013558D01*
X011284Y013400D02*
X014188Y013400D01*
X014369Y014668D02*
X013346Y014668D01*
X011462Y015081D02*
X011464Y015173D01*
X011470Y015264D01*
X011480Y015356D01*
X011493Y015446D01*
X011511Y015536D01*
X011532Y015626D01*
X011557Y015714D01*
X011585Y015801D01*
X011618Y015887D01*
X011654Y015972D01*
X011693Y016054D01*
X011737Y016135D01*
X011783Y016215D01*
X011833Y016292D01*
X011886Y016367D01*
X011942Y016439D01*
X012001Y016509D01*
X012063Y016577D01*
X012128Y016642D01*
X012196Y016704D01*
X012266Y016763D01*
X012338Y016819D01*
X012413Y016872D01*
X012490Y016922D01*
X012570Y016968D01*
X012651Y017012D01*
X012733Y017051D01*
X012818Y017087D01*
X012904Y017120D01*
X012991Y017148D01*
X013079Y017173D01*
X013169Y017194D01*
X013259Y017212D01*
X013349Y017225D01*
X013441Y017235D01*
X013532Y017241D01*
X013624Y017243D01*
X013291Y017243D01*
X013174Y016887D02*
X013130Y016887D01*
X011777Y016886D02*
X011779Y016803D01*
X011784Y016720D01*
X011794Y016638D01*
X011807Y016556D01*
X011823Y016475D01*
X011844Y016395D01*
X011867Y016315D01*
X011895Y016237D01*
X011926Y016160D01*
X011960Y016085D01*
X011998Y016011D01*
X012038Y015939D01*
X012083Y015868D01*
X012130Y015800D01*
X012180Y015734D01*
X012233Y015671D01*
X012289Y015610D01*
X012348Y015551D01*
X012409Y015495D01*
X012472Y015442D01*
X012538Y015392D01*
X012606Y015345D01*
X012677Y015300D01*
X012749Y015260D01*
X012823Y015222D01*
X012898Y015188D01*
X012975Y015157D01*
X013053Y015129D01*
X013133Y015106D01*
X013213Y015085D01*
X013294Y015069D01*
X013376Y015056D01*
X013458Y015046D01*
X013541Y015041D01*
X013624Y015039D01*
X013624Y015353D02*
X012364Y015353D01*
X012364Y015073D02*
X012484Y015073D01*
X012485Y015073D01*
X012842Y014901D01*
X011937Y014901D01*
X012081Y015005D01*
X012266Y015066D01*
X012364Y015073D01*
X012485Y015073D02*
X012485Y015073D01*
X012668Y014985D02*
X012053Y014985D01*
X011801Y015504D02*
X011847Y015702D01*
X011958Y015562D01*
X011820Y015517D01*
X011801Y015504D01*
X011820Y015517D02*
X011820Y015517D01*
X011828Y015619D02*
X011913Y015619D01*
X011461Y015081D02*
X011461Y014451D01*
X011463Y014510D01*
X011469Y014569D01*
X011478Y014627D01*
X011492Y014685D01*
X011509Y014741D01*
X011530Y014797D01*
X011554Y014850D01*
X011582Y014903D01*
X011613Y014953D01*
X011648Y015001D01*
X011685Y015046D01*
X011725Y015090D01*
X011769Y015130D01*
X011814Y015167D01*
X011862Y015202D01*
X011913Y015233D01*
X011965Y015261D01*
X012018Y015285D01*
X012074Y015306D01*
X012130Y015323D01*
X012188Y015337D01*
X012246Y015346D01*
X012305Y015352D01*
X012364Y015354D01*
X013624Y016298D02*
X014502Y016298D01*
X014649Y016445D01*
X014649Y017932D01*
X016033Y017932D01*
X015709Y018313D02*
X015101Y018313D01*
X014204Y017512D02*
X014204Y017096D01*
X014036Y016928D01*
X013624Y016928D01*
X013624Y015354D02*
X013541Y015356D01*
X013458Y015361D01*
X013376Y015371D01*
X013294Y015384D01*
X013213Y015400D01*
X013133Y015421D01*
X013053Y015444D01*
X012975Y015472D01*
X012898Y015503D01*
X012823Y015537D01*
X012749Y015575D01*
X012677Y015615D01*
X012606Y015660D01*
X012538Y015707D01*
X012472Y015757D01*
X012409Y015810D01*
X012348Y015866D01*
X012289Y015925D01*
X012233Y015986D01*
X012180Y016049D01*
X012130Y016115D01*
X012083Y016183D01*
X012038Y016254D01*
X011998Y016326D01*
X011960Y016400D01*
X011926Y016475D01*
X011895Y016552D01*
X011867Y016630D01*
X011844Y016710D01*
X011823Y016790D01*
X011807Y016871D01*
X011794Y016953D01*
X011784Y017035D01*
X011779Y017118D01*
X011777Y017201D01*
X013774Y017942D02*
X014204Y017512D01*
X014134Y016665D02*
X014134Y016578D01*
X014074Y016578D01*
X014074Y016648D01*
X014092Y016648D01*
X014134Y016665D01*
X014134Y015619D02*
X014074Y015619D01*
X014074Y015460D02*
X014134Y015460D01*
X014190Y015302D02*
X014074Y015302D01*
X014074Y015143D02*
X014369Y015143D01*
X014369Y014985D02*
X014074Y014985D01*
X014054Y014826D02*
X014369Y014826D01*
X010954Y011271D02*
X010954Y010286D01*
X011069Y007060D02*
X011334Y007060D01*
X011309Y006901D02*
X010951Y006901D01*
X012239Y004841D02*
X012752Y004841D01*
X012512Y004682D02*
X012239Y004682D01*
X012239Y004524D02*
X012391Y004524D01*
X012325Y004365D02*
X012239Y004365D01*
X012312Y004207D02*
X012157Y004207D01*
X012316Y004048D02*
X011175Y004048D01*
X011207Y004207D02*
X011290Y004207D01*
X011096Y003890D02*
X012381Y003890D01*
X012489Y003731D02*
X010910Y003731D01*
X011138Y004627D02*
X011724Y004627D01*
X013794Y006267D02*
X014506Y006267D01*
X014851Y006267D02*
X015563Y006267D01*
X015803Y006109D02*
X015192Y006109D01*
X014768Y007916D02*
X015669Y008816D01*
X008265Y005792D02*
X008212Y005792D01*
X004000Y020374D02*
X003989Y020374D01*
X004189Y020849D02*
X004209Y020849D01*
X004209Y021008D02*
X004189Y021008D01*
X004189Y021166D02*
X004209Y021166D01*
D11*
X004199Y003811D03*
X018199Y003811D03*
D12*
X018199Y004811D03*
X018199Y005811D03*
X018199Y006811D03*
X018199Y007811D03*
X018199Y008811D03*
X018199Y009811D03*
X018199Y010811D03*
X018199Y011811D03*
X018199Y012811D03*
X018199Y013811D03*
X018199Y014811D03*
X018199Y015811D03*
X018199Y016811D03*
X018199Y017811D03*
X018199Y018811D03*
X018199Y019811D03*
X018199Y020811D03*
X019199Y020811D03*
X019199Y019811D03*
X019199Y018811D03*
X019199Y017811D03*
X019199Y016811D03*
X019199Y015811D03*
X019199Y014811D03*
X019199Y013811D03*
X019199Y012811D03*
X019199Y011811D03*
X019199Y010811D03*
X019199Y009811D03*
X019199Y008811D03*
X019199Y007811D03*
X019199Y006811D03*
X019199Y005811D03*
X019199Y004811D03*
X019199Y003811D03*
X005199Y003811D03*
X005199Y004811D03*
X005199Y005811D03*
X005199Y006811D03*
X005199Y007811D03*
X005199Y008811D03*
X005199Y009811D03*
X005199Y010811D03*
X005199Y011811D03*
X005199Y012811D03*
X005199Y013811D03*
X005199Y014811D03*
X005199Y015811D03*
X005199Y016811D03*
X005199Y017811D03*
X005199Y018811D03*
X005199Y019811D03*
X005199Y020811D03*
X004199Y020811D03*
X004199Y019811D03*
X004199Y018811D03*
X004199Y017811D03*
X004199Y016811D03*
X004199Y015811D03*
X004199Y014811D03*
X004199Y013811D03*
X004199Y012811D03*
X004199Y011811D03*
X004199Y010811D03*
X004199Y009811D03*
X004199Y008811D03*
X004199Y007811D03*
X004199Y006811D03*
X004199Y005811D03*
X004199Y004811D03*
D13*
X018509Y021458D03*
X018513Y021970D03*
X018509Y022270D03*
X018509Y022274D03*
D14*
X018509Y021462D03*
D15*
X018509Y021466D03*
D16*
X018509Y021470D03*
X018485Y021954D03*
D17*
X018509Y022334D03*
X018509Y022338D03*
X018509Y022594D03*
X018509Y021474D03*
D18*
X018509Y021478D03*
D19*
X018509Y021482D03*
X018509Y022354D03*
X018509Y022590D03*
D20*
X018509Y021486D03*
D21*
X018509Y021490D03*
D22*
X018509Y021494D03*
D23*
X018509Y021498D03*
X018509Y022582D03*
D24*
X018509Y022390D03*
X018509Y021502D03*
D25*
X018509Y021506D03*
D26*
X018509Y021510D03*
X018509Y022402D03*
D27*
X018509Y022574D03*
X018509Y021514D03*
D28*
X018509Y021518D03*
X018509Y022410D03*
X018509Y022414D03*
D29*
X018509Y022418D03*
X018509Y021522D03*
D30*
X018509Y021526D03*
D31*
X018509Y021530D03*
X018509Y022422D03*
X018509Y022570D03*
D32*
X018509Y022430D03*
X018509Y021534D03*
D33*
X018509Y021538D03*
X018509Y022434D03*
D34*
X018509Y022438D03*
X018509Y021542D03*
D35*
X018509Y021546D03*
D36*
X018509Y021550D03*
X018509Y022442D03*
X018509Y022562D03*
D37*
X018509Y021558D03*
X018509Y021554D03*
D38*
X018509Y021562D03*
X018509Y022558D03*
D39*
X018509Y021566D03*
D40*
X018509Y021570D03*
D41*
X018509Y021574D03*
X018509Y021578D03*
D42*
X018509Y021582D03*
X018509Y022550D03*
D43*
X018509Y021586D03*
D44*
X018509Y021590D03*
X018509Y021594D03*
D45*
X018509Y021598D03*
X018509Y021602D03*
D46*
X018509Y021606D03*
D47*
X018509Y021610D03*
X018509Y022542D03*
D48*
X018509Y021618D03*
X018509Y021614D03*
D49*
X018509Y021622D03*
X018509Y021630D03*
X018509Y022538D03*
D50*
X018509Y021626D03*
D51*
X018509Y021634D03*
X018509Y021638D03*
X018509Y022502D03*
X018509Y022534D03*
D52*
X018509Y022530D03*
X018509Y022510D03*
X018509Y021642D03*
D53*
X018509Y021646D03*
X018509Y022506D03*
D54*
X018509Y022514D03*
X018513Y021882D03*
X018509Y021658D03*
X018509Y021654D03*
X018509Y021650D03*
D55*
X018509Y021662D03*
X018509Y021878D03*
X018509Y022518D03*
X018509Y022522D03*
D56*
X018509Y021666D03*
D57*
X018509Y021670D03*
X018509Y021674D03*
X018509Y021874D03*
D58*
X018509Y021682D03*
X018509Y021678D03*
D59*
X018511Y021686D03*
D60*
X018511Y021690D03*
X018511Y021694D03*
D61*
X018511Y021698D03*
X018511Y021702D03*
D62*
X018509Y021706D03*
D63*
X018509Y021710D03*
D64*
X018507Y021714D03*
D65*
X018509Y021718D03*
X018509Y021810D03*
D66*
X018509Y021722D03*
D67*
X018509Y021726D03*
D68*
X018509Y021730D03*
X018509Y021798D03*
D69*
X018509Y021794D03*
X018509Y021734D03*
D70*
X018509Y021738D03*
X018509Y021790D03*
D71*
X018507Y021742D03*
D72*
X018509Y021746D03*
D73*
X018509Y021750D03*
X018509Y021778D03*
X018509Y021782D03*
D74*
X018507Y021774D03*
X018507Y021758D03*
X018507Y021754D03*
D75*
X018509Y021762D03*
X018509Y021770D03*
D76*
X018509Y021766D03*
D77*
X018507Y021786D03*
D78*
X018509Y021802D03*
D79*
X018509Y021806D03*
D80*
X018499Y021842D03*
X018503Y021854D03*
D81*
X018501Y021846D03*
D82*
X018501Y021850D03*
D83*
X018503Y021858D03*
X018503Y021862D03*
D84*
X018505Y021866D03*
D85*
X018507Y021870D03*
D86*
X018515Y021886D03*
D87*
X018515Y021890D03*
X018515Y021894D03*
D88*
X018615Y021898D03*
D89*
X018283Y021914D03*
X018279Y021902D03*
X018279Y021898D03*
D90*
X018617Y021902D03*
D91*
X018617Y021906D03*
D92*
X018281Y021906D03*
D93*
X018617Y021910D03*
D94*
X018281Y021910D03*
D95*
X018621Y021914D03*
D96*
X018623Y021918D03*
D97*
X018321Y021922D03*
X018317Y021918D03*
X018401Y022294D03*
X018397Y022298D03*
D98*
X018211Y021918D03*
D99*
X018625Y021922D03*
X018509Y022330D03*
D100*
X018509Y022070D03*
X018193Y021922D03*
D101*
X018627Y021926D03*
D102*
X018327Y021926D03*
X018671Y022366D03*
D103*
X018621Y022454D03*
X018637Y021930D03*
D104*
X018509Y021998D03*
X018509Y022154D03*
X018389Y022314D03*
X018329Y021930D03*
D105*
X018643Y021934D03*
D106*
X018335Y021934D03*
X018387Y022318D03*
D107*
X018577Y022374D03*
X018641Y021938D03*
D108*
X018341Y021938D03*
D109*
X018639Y021942D03*
D110*
X018511Y021994D03*
X018347Y021942D03*
D111*
X018633Y021946D03*
X018509Y022606D03*
D112*
X018391Y022326D03*
X018355Y021946D03*
D113*
X018627Y021950D03*
D114*
X018373Y021950D03*
D115*
X018509Y022114D03*
X018509Y022118D03*
X018737Y021954D03*
D116*
X018735Y021958D03*
X018635Y021982D03*
D117*
X018487Y021958D03*
D118*
X018491Y021962D03*
D119*
X018495Y021966D03*
X018615Y022446D03*
D120*
X018343Y021970D03*
D121*
X018515Y021974D03*
D122*
X018635Y021978D03*
D123*
X018481Y021978D03*
X018509Y022222D03*
X018709Y022490D03*
X018509Y022614D03*
D124*
X018697Y022470D03*
X018701Y022474D03*
X018481Y021982D03*
D125*
X018639Y021986D03*
D126*
X018511Y021986D03*
D127*
X018397Y021986D03*
D128*
X018639Y021990D03*
D129*
X018511Y021990D03*
D130*
X018509Y022094D03*
X018393Y021990D03*
D131*
X018641Y021994D03*
D132*
X018511Y022018D03*
X018391Y021994D03*
D133*
X018385Y022002D03*
X018641Y021998D03*
D134*
X018387Y021998D03*
D135*
X018643Y022002D03*
D136*
X018511Y022002D03*
X018667Y022358D03*
X018335Y022382D03*
D137*
X018511Y022006D03*
D138*
X018381Y022006D03*
D139*
X018511Y022010D03*
D140*
X018511Y022014D03*
D141*
X018509Y022066D03*
D142*
X018509Y022074D03*
D143*
X018509Y022078D03*
D144*
X018509Y022082D03*
D145*
X018509Y022086D03*
D146*
X018509Y022090D03*
D147*
X018509Y022098D03*
X018509Y022102D03*
D148*
X018509Y022106D03*
D149*
X018509Y022110D03*
D150*
X018509Y022122D03*
D151*
X018509Y022126D03*
D152*
X018509Y022130D03*
X018509Y022134D03*
D153*
X018509Y022138D03*
D154*
X018509Y022142D03*
X018333Y022378D03*
D155*
X018511Y022146D03*
D156*
X018509Y022150D03*
X018393Y022302D03*
X018389Y022310D03*
X018669Y022362D03*
D157*
X018509Y022158D03*
X018389Y022322D03*
D158*
X018509Y022162D03*
D159*
X018509Y022166D03*
D160*
X018509Y022170D03*
D161*
X018509Y022174D03*
X018509Y022178D03*
D162*
X018509Y022182D03*
D163*
X018509Y022186D03*
D164*
X018509Y022190D03*
X018509Y022194D03*
D165*
X018509Y022198D03*
X018581Y022294D03*
X018585Y022298D03*
X018589Y022302D03*
D166*
X018593Y022314D03*
X018509Y022202D03*
D167*
X018509Y022206D03*
D168*
X018509Y022210D03*
D169*
X018509Y022214D03*
D170*
X018509Y022218D03*
X018705Y022482D03*
D171*
X018509Y022226D03*
D172*
X018509Y022230D03*
D173*
X018509Y022234D03*
D174*
X018509Y022238D03*
X018509Y022242D03*
D175*
X018509Y022246D03*
D176*
X018509Y022250D03*
X018509Y022610D03*
D177*
X018509Y022258D03*
X018509Y022254D03*
D178*
X018509Y022262D03*
D179*
X018509Y022266D03*
D180*
X018509Y022278D03*
D181*
X018509Y022282D03*
D182*
X018509Y022286D03*
D183*
X018509Y022290D03*
D184*
X018589Y022306D03*
D185*
X018393Y022306D03*
D186*
X018323Y022450D03*
X018591Y022310D03*
D187*
X018593Y022318D03*
X018593Y022322D03*
D188*
X018591Y022326D03*
D189*
X018509Y022342D03*
D190*
X018509Y022346D03*
D191*
X018507Y022350D03*
D192*
X018441Y022358D03*
D193*
X018499Y022362D03*
X018503Y022370D03*
D194*
X018341Y022362D03*
X018337Y022370D03*
D195*
X018501Y022366D03*
D196*
X018337Y022366D03*
D197*
X018671Y022370D03*
D198*
X018335Y022374D03*
D199*
X018579Y022378D03*
D200*
X018577Y022382D03*
D201*
X018509Y022386D03*
D202*
X018509Y022394D03*
X018509Y022398D03*
X018509Y022578D03*
D203*
X018509Y022406D03*
D204*
X018509Y022426D03*
D205*
X018329Y022446D03*
D206*
X018379Y022474D03*
X018379Y022478D03*
X018619Y022450D03*
D207*
X018321Y022454D03*
D208*
X018623Y022458D03*
D209*
X018319Y022458D03*
D210*
X018621Y022462D03*
D211*
X018323Y022462D03*
D212*
X018509Y022466D03*
D213*
X018383Y022470D03*
X018375Y022482D03*
D214*
X018703Y022478D03*
D215*
X018707Y022486D03*
D216*
X018373Y022486D03*
D217*
X018373Y022490D03*
X018373Y022494D03*
D218*
X018707Y022494D03*
D219*
X018707Y022498D03*
D220*
X018373Y022498D03*
D221*
X018509Y022526D03*
D222*
X018509Y022546D03*
D223*
X018507Y022554D03*
D224*
X018509Y022566D03*
D225*
X018509Y022586D03*
D226*
X018509Y022598D03*
D227*
X018509Y022602D03*
D228*
X018511Y022618D03*
D229*
X018507Y022622D03*
D230*
X013036Y017831D03*
X012721Y017831D03*
X012406Y017831D03*
X012091Y017831D03*
X011776Y017831D03*
X011461Y017831D03*
X011146Y017831D03*
X010831Y017831D03*
X010831Y014451D03*
X011146Y014451D03*
X011461Y014451D03*
X011776Y014451D03*
X012091Y014451D03*
X012406Y014451D03*
X012721Y014451D03*
X013036Y014451D03*
D231*
X013624Y015038D03*
X013624Y015353D03*
X013624Y015668D03*
X013624Y015983D03*
X013624Y016298D03*
X013624Y016613D03*
X013624Y016928D03*
X013624Y017243D03*
X010244Y017243D03*
X010244Y016928D03*
X010244Y016613D03*
X010244Y016298D03*
X010244Y015983D03*
X010244Y015668D03*
X010244Y015353D03*
X010244Y015038D03*
D232*
X008663Y004239D03*
D233*
X009608Y006207D03*
X010671Y006207D03*
X007718Y006207D03*
X006655Y006207D03*
D234*
X006399Y004239D02*
X006401Y004273D01*
X006407Y004307D01*
X006417Y004340D01*
X006430Y004371D01*
X006448Y004401D01*
X006468Y004429D01*
X006492Y004454D01*
X006518Y004476D01*
X006546Y004494D01*
X006577Y004510D01*
X006609Y004522D01*
X006643Y004530D01*
X006677Y004534D01*
X006711Y004534D01*
X006745Y004530D01*
X006779Y004522D01*
X006811Y004510D01*
X006841Y004494D01*
X006870Y004476D01*
X006896Y004454D01*
X006920Y004429D01*
X006940Y004401D01*
X006958Y004371D01*
X006971Y004340D01*
X006981Y004307D01*
X006987Y004273D01*
X006989Y004239D01*
X006987Y004205D01*
X006981Y004171D01*
X006971Y004138D01*
X006958Y004107D01*
X006940Y004077D01*
X006920Y004049D01*
X006896Y004024D01*
X006870Y004002D01*
X006842Y003984D01*
X006811Y003968D01*
X006779Y003956D01*
X006745Y003948D01*
X006711Y003944D01*
X006677Y003944D01*
X006643Y003948D01*
X006609Y003956D01*
X006577Y003968D01*
X006546Y003984D01*
X006518Y004002D01*
X006492Y004024D01*
X006468Y004049D01*
X006448Y004077D01*
X006430Y004107D01*
X006417Y004138D01*
X006407Y004171D01*
X006401Y004205D01*
X006399Y004239D01*
X008368Y006207D02*
X008370Y006241D01*
X008376Y006275D01*
X008386Y006308D01*
X008399Y006339D01*
X008417Y006369D01*
X008437Y006397D01*
X008461Y006422D01*
X008487Y006444D01*
X008515Y006462D01*
X008546Y006478D01*
X008578Y006490D01*
X008612Y006498D01*
X008646Y006502D01*
X008680Y006502D01*
X008714Y006498D01*
X008748Y006490D01*
X008780Y006478D01*
X008810Y006462D01*
X008839Y006444D01*
X008865Y006422D01*
X008889Y006397D01*
X008909Y006369D01*
X008927Y006339D01*
X008940Y006308D01*
X008950Y006275D01*
X008956Y006241D01*
X008958Y006207D01*
X008956Y006173D01*
X008950Y006139D01*
X008940Y006106D01*
X008927Y006075D01*
X008909Y006045D01*
X008889Y006017D01*
X008865Y005992D01*
X008839Y005970D01*
X008811Y005952D01*
X008780Y005936D01*
X008748Y005924D01*
X008714Y005916D01*
X008680Y005912D01*
X008646Y005912D01*
X008612Y005916D01*
X008578Y005924D01*
X008546Y005936D01*
X008515Y005952D01*
X008487Y005970D01*
X008461Y005992D01*
X008437Y006017D01*
X008417Y006045D01*
X008399Y006075D01*
X008386Y006106D01*
X008376Y006139D01*
X008370Y006173D01*
X008368Y006207D01*
X010336Y004239D02*
X010338Y004273D01*
X010344Y004307D01*
X010354Y004340D01*
X010367Y004371D01*
X010385Y004401D01*
X010405Y004429D01*
X010429Y004454D01*
X010455Y004476D01*
X010483Y004494D01*
X010514Y004510D01*
X010546Y004522D01*
X010580Y004530D01*
X010614Y004534D01*
X010648Y004534D01*
X010682Y004530D01*
X010716Y004522D01*
X010748Y004510D01*
X010778Y004494D01*
X010807Y004476D01*
X010833Y004454D01*
X010857Y004429D01*
X010877Y004401D01*
X010895Y004371D01*
X010908Y004340D01*
X010918Y004307D01*
X010924Y004273D01*
X010926Y004239D01*
X010924Y004205D01*
X010918Y004171D01*
X010908Y004138D01*
X010895Y004107D01*
X010877Y004077D01*
X010857Y004049D01*
X010833Y004024D01*
X010807Y004002D01*
X010779Y003984D01*
X010748Y003968D01*
X010716Y003956D01*
X010682Y003948D01*
X010648Y003944D01*
X010614Y003944D01*
X010580Y003948D01*
X010546Y003956D01*
X010514Y003968D01*
X010483Y003984D01*
X010455Y004002D01*
X010429Y004024D01*
X010405Y004049D01*
X010385Y004077D01*
X010367Y004107D01*
X010354Y004138D01*
X010344Y004171D01*
X010338Y004205D01*
X010336Y004239D01*
X012592Y004195D02*
X012594Y004235D01*
X012600Y004276D01*
X012610Y004315D01*
X012623Y004353D01*
X012641Y004390D01*
X012662Y004424D01*
X012686Y004457D01*
X012713Y004487D01*
X012743Y004514D01*
X012776Y004538D01*
X012810Y004559D01*
X012847Y004577D01*
X012885Y004590D01*
X012924Y004600D01*
X012965Y004606D01*
X013005Y004608D01*
X013045Y004606D01*
X013086Y004600D01*
X013125Y004590D01*
X013163Y004577D01*
X013200Y004559D01*
X013234Y004538D01*
X013267Y004514D01*
X013297Y004487D01*
X013324Y004457D01*
X013348Y004424D01*
X013369Y004390D01*
X013387Y004353D01*
X013400Y004315D01*
X013410Y004276D01*
X013416Y004235D01*
X013418Y004195D01*
X013416Y004155D01*
X013410Y004114D01*
X013400Y004075D01*
X013387Y004037D01*
X013369Y004000D01*
X013348Y003966D01*
X013324Y003933D01*
X013297Y003903D01*
X013267Y003876D01*
X013234Y003852D01*
X013200Y003831D01*
X013163Y003813D01*
X013125Y003800D01*
X013086Y003790D01*
X013045Y003784D01*
X013005Y003782D01*
X012965Y003784D01*
X012924Y003790D01*
X012885Y003800D01*
X012847Y003813D01*
X012810Y003831D01*
X012776Y003852D01*
X012743Y003876D01*
X012713Y003903D01*
X012686Y003933D01*
X012662Y003966D01*
X012641Y004000D01*
X012623Y004037D01*
X012610Y004075D01*
X012600Y004114D01*
X012594Y004155D01*
X012592Y004195D01*
X015939Y004195D02*
X015941Y004235D01*
X015947Y004276D01*
X015957Y004315D01*
X015970Y004353D01*
X015988Y004390D01*
X016009Y004424D01*
X016033Y004457D01*
X016060Y004487D01*
X016090Y004514D01*
X016123Y004538D01*
X016157Y004559D01*
X016194Y004577D01*
X016232Y004590D01*
X016271Y004600D01*
X016312Y004606D01*
X016352Y004608D01*
X016392Y004606D01*
X016433Y004600D01*
X016472Y004590D01*
X016510Y004577D01*
X016547Y004559D01*
X016581Y004538D01*
X016614Y004514D01*
X016644Y004487D01*
X016671Y004457D01*
X016695Y004424D01*
X016716Y004390D01*
X016734Y004353D01*
X016747Y004315D01*
X016757Y004276D01*
X016763Y004235D01*
X016765Y004195D01*
X016763Y004155D01*
X016757Y004114D01*
X016747Y004075D01*
X016734Y004037D01*
X016716Y004000D01*
X016695Y003966D01*
X016671Y003933D01*
X016644Y003903D01*
X016614Y003876D01*
X016581Y003852D01*
X016547Y003831D01*
X016510Y003813D01*
X016472Y003800D01*
X016433Y003790D01*
X016392Y003784D01*
X016352Y003782D01*
X016312Y003784D01*
X016271Y003790D01*
X016232Y003800D01*
X016194Y003813D01*
X016157Y003831D01*
X016123Y003852D01*
X016090Y003876D01*
X016060Y003903D01*
X016033Y003933D01*
X016009Y003966D01*
X015988Y004000D01*
X015970Y004037D01*
X015957Y004075D01*
X015947Y004114D01*
X015941Y004155D01*
X015939Y004195D01*
D235*
X014679Y005416D03*
X016135Y006872D03*
X013222Y006872D03*
D236*
X008875Y021337D03*
X008619Y021337D03*
X008364Y021337D03*
X008108Y021337D03*
X007852Y021337D03*
D237*
X007970Y022387D03*
X008757Y022391D03*
D238*
X009742Y022391D03*
X006986Y022391D03*
D239*
X007379Y021357D03*
X009348Y021357D03*
D240*
X008594Y020315D03*
X008594Y019567D03*
X007614Y019567D03*
X007614Y020315D03*
X006569Y020290D03*
X006569Y019542D03*
X011844Y011670D03*
X011844Y010922D03*
X011739Y009775D03*
X011739Y009027D03*
X011804Y007460D03*
X011804Y006712D03*
X011724Y005375D03*
X011724Y004627D03*
X013189Y008987D03*
X013189Y009735D03*
X010119Y009795D03*
X010119Y009047D03*
X014649Y015697D03*
X014649Y016445D03*
X013774Y017942D03*
X013774Y018690D03*
D241*
X014649Y018680D03*
X014649Y017932D03*
X014664Y013970D03*
X014664Y013222D03*
X013209Y011665D03*
X013209Y010917D03*
X010119Y010907D03*
X010119Y011655D03*
X009714Y019537D03*
X009714Y020285D03*
D242*
X007978Y014026D03*
X007230Y014026D03*
X007255Y013161D03*
X008003Y013161D03*
X010080Y013541D03*
X010828Y013541D03*
D243*
X007649Y015276D03*
X007649Y017835D03*
X007704Y011365D03*
X007704Y008806D03*
X015669Y008816D03*
X015669Y011375D03*
D244*
X013873Y021141D03*
X011314Y021141D03*
D245*
X016289Y017191D03*
X016289Y013391D03*
D246*
X012679Y019116D03*
X013694Y019841D03*
X011549Y019441D03*
X010464Y020181D03*
X010054Y018201D03*
X009334Y017511D03*
X008814Y016566D03*
X009649Y015926D03*
X009259Y015491D03*
X009209Y013736D03*
X008729Y013306D03*
X008624Y012326D03*
X009399Y011856D03*
X006649Y016436D03*
X006554Y018981D03*
M02*
