%
M48
M72
T01C0.0236
T02C0.0335
T03C0.0360
T04C0.0453
T05C0.0591
T06C0.0827
T07C0.0906
%
T01
X8624Y12326
X9399Y11856
X8729Y13306
X9209Y13736
X9259Y15491
X9649Y15926
X8814Y16566
X9334Y17511
X10054Y18201
X11549Y19441
X10464Y20181
X12679Y19116
X13694Y19841
X6649Y16436
X6554Y18981
T02
X7379Y21357
X9348Y21357
T03
X4199Y3811
X4199Y4811
X4199Y5811
X4199Y6811
X4199Y7811
X4199Y8811
X4199Y9811
X4199Y10811
X4199Y11811
X4199Y12811
X4199Y13811
X4199Y14811
X4199Y15811
X4199Y16811
X4199Y17811
X4199Y18811
X4199Y19811
X4199Y20811
X5199Y20811
X5199Y19811
X5199Y18811
X5199Y17811
X5199Y16811
X5199Y15811
X5199Y14811
X5199Y13811
X5199Y12811
X5199Y11811
X5199Y10811
X5199Y9811
X5199Y8811
X5199Y7811
X5199Y6811
X5199Y5811
X5199Y4811
X5199Y3811
X18199Y3811
X18199Y4811
X18199Y5811
X18199Y6811
X18199Y7811
X18199Y8811
X18199Y9811
X18199Y10811
X18199Y11811
X18199Y12811
X18199Y13811
X18199Y14811
X18199Y15811
X18199Y16811
X18199Y17811
X18199Y18811
X18199Y19811
X18199Y20811
X19199Y20811
X19199Y19811
X19199Y18811
X19199Y17811
X19199Y16811
X19199Y15811
X19199Y14811
X19199Y13811
X19199Y12811
X19199Y11811
X19199Y10811
X19199Y9811
X19199Y8811
X19199Y7811
X19199Y6811
X19199Y5811
X19199Y4811
X19199Y3811
T04
X9742Y22391
X6986Y22391
T05
X6655Y6207
X7718Y6207
X8663Y6207
X9608Y6207
X10671Y6207
X10631Y4239
X8663Y4239
X6694Y4239
T06
X13005Y4195
X16352Y4195
T07
X14679Y5416
X16135Y6872
X13222Y6872
M30
