G75*
%MOIN*%
%OFA0B0*%
%FSLAX24Y24*%
%IPPOS*%
%LPD*%
%AMOC8*
5,1,8,0,0,1.08239X$1,22.5*
%
%ADD10C,0.0160*%
%ADD11C,0.0540*%
%ADD12OC8,0.0540*%
%ADD13R,0.0312X0.0004*%
%ADD14R,0.0344X0.0004*%
%ADD15R,0.0368X0.0004*%
%ADD16R,0.0392X0.0004*%
%ADD17R,0.0408X0.0004*%
%ADD18R,0.0424X0.0004*%
%ADD19R,0.0432X0.0004*%
%ADD20R,0.0448X0.0004*%
%ADD21R,0.0456X0.0004*%
%ADD22R,0.0472X0.0004*%
%ADD23R,0.0480X0.0004*%
%ADD24R,0.0488X0.0004*%
%ADD25R,0.0496X0.0004*%
%ADD26R,0.0504X0.0004*%
%ADD27R,0.0512X0.0004*%
%ADD28R,0.0520X0.0004*%
%ADD29R,0.0528X0.0004*%
%ADD30R,0.0536X0.0004*%
%ADD31R,0.0536X0.0004*%
%ADD32R,0.0544X0.0004*%
%ADD33R,0.0552X0.0004*%
%ADD34R,0.0560X0.0004*%
%ADD35R,0.0560X0.0004*%
%ADD36R,0.0568X0.0004*%
%ADD37R,0.0576X0.0004*%
%ADD38R,0.0584X0.0004*%
%ADD39R,0.0592X0.0004*%
%ADD40R,0.0592X0.0004*%
%ADD41R,0.0600X0.0004*%
%ADD42R,0.0608X0.0004*%
%ADD43R,0.0608X0.0004*%
%ADD44R,0.0616X0.0004*%
%ADD45R,0.0624X0.0004*%
%ADD46R,0.0632X0.0004*%
%ADD47R,0.0632X0.0004*%
%ADD48R,0.0640X0.0004*%
%ADD49R,0.0648X0.0004*%
%ADD50R,0.0648X0.0004*%
%ADD51R,0.0656X0.0004*%
%ADD52R,0.0664X0.0004*%
%ADD53R,0.0664X0.0004*%
%ADD54R,0.0672X0.0004*%
%ADD55R,0.0680X0.0004*%
%ADD56R,0.0680X0.0004*%
%ADD57R,0.0688X0.0004*%
%ADD58R,0.0696X0.0004*%
%ADD59R,0.0700X0.0004*%
%ADD60R,0.0708X0.0004*%
%ADD61R,0.0716X0.0004*%
%ADD62R,0.0720X0.0004*%
%ADD63R,0.0720X0.0004*%
%ADD64R,0.0724X0.0004*%
%ADD65R,0.0808X0.0004*%
%ADD66R,0.0824X0.0004*%
%ADD67R,0.0832X0.0004*%
%ADD68R,0.0840X0.0004*%
%ADD69R,0.0848X0.0004*%
%ADD70R,0.0856X0.0004*%
%ADD71R,0.0860X0.0004*%
%ADD72R,0.0864X0.0004*%
%ADD73R,0.0864X0.0004*%
%ADD74R,0.0868X0.0004*%
%ADD75R,0.0872X0.0004*%
%ADD76R,0.0872X0.0004*%
%ADD77R,0.0860X0.0004*%
%ADD78R,0.0832X0.0004*%
%ADD79R,0.0824X0.0004*%
%ADD80R,0.0708X0.0004*%
%ADD81R,0.0712X0.0004*%
%ADD82R,0.0712X0.0004*%
%ADD83R,0.0700X0.0004*%
%ADD84R,0.0696X0.0004*%
%ADD85R,0.0692X0.0004*%
%ADD86R,0.0668X0.0004*%
%ADD87R,0.0660X0.0004*%
%ADD88R,0.0452X0.0004*%
%ADD89R,0.0188X0.0004*%
%ADD90R,0.0448X0.0004*%
%ADD91R,0.0440X0.0004*%
%ADD92R,0.0184X0.0004*%
%ADD93R,0.0432X0.0004*%
%ADD94R,0.0184X0.0004*%
%ADD95R,0.0424X0.0004*%
%ADD96R,0.0412X0.0004*%
%ADD97R,0.0128X0.0004*%
%ADD98R,0.0044X0.0004*%
%ADD99R,0.0400X0.0004*%
%ADD100R,0.0008X0.0004*%
%ADD101R,0.0388X0.0004*%
%ADD102R,0.0132X0.0004*%
%ADD103R,0.0360X0.0004*%
%ADD104R,0.0136X0.0004*%
%ADD105R,0.0340X0.0004*%
%ADD106R,0.0140X0.0004*%
%ADD107R,0.0328X0.0004*%
%ADD108R,0.0144X0.0004*%
%ADD109R,0.0324X0.0004*%
%ADD110R,0.0148X0.0004*%
%ADD111R,0.0320X0.0004*%
%ADD112R,0.0156X0.0004*%
%ADD113R,0.0316X0.0004*%
%ADD114R,0.0176X0.0004*%
%ADD115R,0.0080X0.0004*%
%ADD116R,0.0052X0.0004*%
%ADD117R,0.0380X0.0004*%
%ADD118R,0.0372X0.0004*%
%ADD119R,0.0356X0.0004*%
%ADD120R,0.0004X0.0004*%
%ADD121R,0.0308X0.0004*%
%ADD122R,0.0060X0.0004*%
%ADD123R,0.0240X0.0004*%
%ADD124R,0.0232X0.0004*%
%ADD125R,0.0044X0.0004*%
%ADD126R,0.0164X0.0004*%
%ADD127R,0.0056X0.0004*%
%ADD128R,0.0036X0.0004*%
%ADD129R,0.0156X0.0004*%
%ADD130R,0.0048X0.0004*%
%ADD131R,0.0024X0.0004*%
%ADD132R,0.0036X0.0004*%
%ADD133R,0.0016X0.0004*%
%ADD134R,0.0028X0.0004*%
%ADD135R,0.0012X0.0004*%
%ADD136R,0.0124X0.0004*%
%ADD137R,0.0108X0.0004*%
%ADD138R,0.0008X0.0004*%
%ADD139R,0.0092X0.0004*%
%ADD140R,0.0068X0.0004*%
%ADD141R,0.0008X0.0004*%
%ADD142R,0.0016X0.0004*%
%ADD143R,0.0024X0.0004*%
%ADD144R,0.0032X0.0004*%
%ADD145R,0.0032X0.0004*%
%ADD146R,0.0040X0.0004*%
%ADD147R,0.0056X0.0004*%
%ADD148R,0.0064X0.0004*%
%ADD149R,0.0072X0.0004*%
%ADD150R,0.0088X0.0004*%
%ADD151R,0.0096X0.0004*%
%ADD152R,0.0104X0.0004*%
%ADD153R,0.0112X0.0004*%
%ADD154R,0.0120X0.0004*%
%ADD155R,0.0124X0.0004*%
%ADD156R,0.0128X0.0004*%
%ADD157R,0.0144X0.0004*%
%ADD158R,0.0152X0.0004*%
%ADD159R,0.0152X0.0004*%
%ADD160R,0.0160X0.0004*%
%ADD161R,0.0168X0.0004*%
%ADD162R,0.0176X0.0004*%
%ADD163R,0.0184X0.0004*%
%ADD164R,0.0192X0.0004*%
%ADD165R,0.0200X0.0004*%
%ADD166R,0.0208X0.0004*%
%ADD167R,0.0216X0.0004*%
%ADD168R,0.0216X0.0004*%
%ADD169R,0.0224X0.0004*%
%ADD170R,0.0232X0.0004*%
%ADD171R,0.0240X0.0004*%
%ADD172R,0.0248X0.0004*%
%ADD173R,0.0256X0.0004*%
%ADD174R,0.0264X0.0004*%
%ADD175R,0.0272X0.0004*%
%ADD176R,0.0280X0.0004*%
%ADD177R,0.0288X0.0004*%
%ADD178R,0.0296X0.0004*%
%ADD179R,0.0304X0.0004*%
%ADD180R,0.0320X0.0004*%
%ADD181R,0.0328X0.0004*%
%ADD182R,0.0336X0.0004*%
%ADD183R,0.0336X0.0004*%
%ADD184R,0.0200X0.0004*%
%ADD185R,0.0128X0.0004*%
%ADD186R,0.0204X0.0004*%
%ADD187R,0.0216X0.0004*%
%ADD188R,0.0228X0.0004*%
%ADD189R,0.0416X0.0004*%
%ADD190R,0.0424X0.0004*%
%ADD191R,0.0428X0.0004*%
%ADD192R,0.0304X0.0004*%
%ADD193R,0.0180X0.0004*%
%ADD194R,0.0112X0.0004*%
%ADD195R,0.0176X0.0004*%
%ADD196R,0.0112X0.0004*%
%ADD197R,0.0132X0.0004*%
%ADD198R,0.0116X0.0004*%
%ADD199R,0.0332X0.0004*%
%ADD200R,0.0336X0.0004*%
%ADD201R,0.0480X0.0004*%
%ADD202R,0.0496X0.0004*%
%ADD203R,0.0512X0.0004*%
%ADD204R,0.0544X0.0004*%
%ADD205R,0.0208X0.0004*%
%ADD206R,0.0356X0.0004*%
%ADD207R,0.0208X0.0004*%
%ADD208R,0.0364X0.0004*%
%ADD209R,0.0212X0.0004*%
%ADD210R,0.0368X0.0004*%
%ADD211R,0.0220X0.0004*%
%ADD212R,0.0600X0.0004*%
%ADD213R,0.0356X0.0004*%
%ADD214R,0.0228X0.0004*%
%ADD215R,0.0236X0.0004*%
%ADD216R,0.0360X0.0004*%
%ADD217R,0.0368X0.0004*%
%ADD218R,0.0244X0.0004*%
%ADD219R,0.0252X0.0004*%
%ADD220R,0.0376X0.0004*%
%ADD221R,0.0672X0.0004*%
%ADD222R,0.0624X0.0004*%
%ADD223R,0.0596X0.0004*%
%ADD224R,0.0552X0.0004*%
%ADD225R,0.0456X0.0004*%
%ADD226R,0.0384X0.0004*%
%ADD227R,0.0352X0.0004*%
%ADD228R,0.0188X0.0004*%
%ADD229R,0.0108X0.0004*%
%ADD230C,0.1000*%
%ADD231C,0.0886*%
%ADD232C,0.0000*%
%ADD233C,0.0591*%
%ADD234C,0.1306*%
%ADD235C,0.0827*%
%ADD236C,0.0679*%
%ADD237C,0.0502*%
D10*
X003629Y003256D02*
X019770Y003256D01*
X019770Y022941D01*
X003629Y022941D01*
X003629Y003256D01*
D11*
X004199Y003811D03*
X018199Y003811D03*
D12*
X018199Y004811D03*
X018199Y005811D03*
X018199Y006811D03*
X018199Y007811D03*
X018199Y008811D03*
X018199Y009811D03*
X018199Y010811D03*
X018199Y011811D03*
X018199Y012811D03*
X018199Y013811D03*
X018199Y014811D03*
X018199Y015811D03*
X018199Y016811D03*
X018199Y017811D03*
X018199Y018811D03*
X018199Y019811D03*
X018199Y020811D03*
X019199Y020811D03*
X019199Y019811D03*
X019199Y018811D03*
X019199Y017811D03*
X019199Y016811D03*
X019199Y015811D03*
X019199Y014811D03*
X019199Y013811D03*
X019199Y012811D03*
X019199Y011811D03*
X019199Y010811D03*
X019199Y009811D03*
X019199Y008811D03*
X019199Y007811D03*
X019199Y006811D03*
X019199Y005811D03*
X019199Y004811D03*
X019199Y003811D03*
X005199Y003811D03*
X005199Y004811D03*
X005199Y005811D03*
X005199Y006811D03*
X005199Y007811D03*
X005199Y008811D03*
X005199Y009811D03*
X005199Y010811D03*
X005199Y011811D03*
X005199Y012811D03*
X005199Y013811D03*
X005199Y014811D03*
X005199Y015811D03*
X005199Y016811D03*
X005199Y017811D03*
X005199Y018811D03*
X005199Y019811D03*
X005199Y020811D03*
X004199Y020811D03*
X004199Y019811D03*
X004199Y018811D03*
X004199Y017811D03*
X004199Y016811D03*
X004199Y015811D03*
X004199Y014811D03*
X004199Y013811D03*
X004199Y012811D03*
X004199Y011811D03*
X004199Y010811D03*
X004199Y009811D03*
X004199Y008811D03*
X004199Y007811D03*
X004199Y006811D03*
X004199Y005811D03*
X004199Y004811D03*
D13*
X018509Y021458D03*
X018505Y021970D03*
X018509Y022270D03*
X018509Y022274D03*
D14*
X018509Y021462D03*
D15*
X018509Y021466D03*
D16*
X018509Y021470D03*
X018533Y021954D03*
D17*
X018509Y022334D03*
X018509Y022338D03*
X018509Y022594D03*
X018509Y021474D03*
D18*
X018509Y021478D03*
D19*
X018509Y021482D03*
X018509Y022354D03*
X018509Y022590D03*
D20*
X018509Y021486D03*
D21*
X018509Y021490D03*
D22*
X018509Y021494D03*
D23*
X018509Y021498D03*
X018509Y022582D03*
D24*
X018509Y022390D03*
X018509Y021502D03*
D25*
X018509Y021506D03*
D26*
X018509Y021510D03*
X018509Y022402D03*
D27*
X018509Y022574D03*
X018509Y021514D03*
D28*
X018509Y021518D03*
X018509Y022410D03*
X018509Y022414D03*
D29*
X018509Y022418D03*
X018509Y021522D03*
D30*
X018509Y021526D03*
D31*
X018509Y021530D03*
X018509Y022422D03*
X018509Y022570D03*
D32*
X018509Y022430D03*
X018509Y021534D03*
D33*
X018509Y021538D03*
X018509Y022434D03*
D34*
X018509Y022438D03*
X018509Y021542D03*
D35*
X018509Y021546D03*
D36*
X018509Y021550D03*
X018509Y022442D03*
X018509Y022562D03*
D37*
X018509Y021558D03*
X018509Y021554D03*
D38*
X018509Y021562D03*
X018509Y022558D03*
D39*
X018509Y021566D03*
D40*
X018509Y021570D03*
D41*
X018509Y021574D03*
X018509Y021578D03*
D42*
X018509Y021582D03*
X018509Y022550D03*
D43*
X018509Y021586D03*
D44*
X018509Y021590D03*
X018509Y021594D03*
D45*
X018509Y021598D03*
X018509Y021602D03*
D46*
X018509Y021606D03*
D47*
X018509Y021610D03*
X018509Y022542D03*
D48*
X018509Y021618D03*
X018509Y021614D03*
D49*
X018509Y021622D03*
X018509Y021630D03*
X018509Y022538D03*
D50*
X018509Y021626D03*
D51*
X018509Y021634D03*
X018509Y021638D03*
X018509Y022502D03*
X018509Y022534D03*
D52*
X018509Y022530D03*
X018509Y022510D03*
X018509Y021642D03*
D53*
X018509Y021646D03*
X018509Y022506D03*
D54*
X018509Y022514D03*
X018505Y021882D03*
X018509Y021658D03*
X018509Y021654D03*
X018509Y021650D03*
D55*
X018509Y021662D03*
X018509Y021878D03*
X018509Y022518D03*
X018509Y022522D03*
D56*
X018509Y021666D03*
D57*
X018509Y021670D03*
X018509Y021674D03*
X018509Y021874D03*
D58*
X018509Y021682D03*
X018509Y021678D03*
D59*
X018507Y021686D03*
D60*
X018507Y021690D03*
X018507Y021694D03*
D61*
X018507Y021698D03*
X018507Y021702D03*
D62*
X018509Y021706D03*
D63*
X018509Y021710D03*
D64*
X018511Y021714D03*
D65*
X018509Y021718D03*
X018509Y021810D03*
D66*
X018509Y021722D03*
D67*
X018509Y021726D03*
D68*
X018509Y021730D03*
X018509Y021798D03*
D69*
X018509Y021794D03*
X018509Y021734D03*
D70*
X018509Y021738D03*
X018509Y021790D03*
D71*
X018511Y021742D03*
D72*
X018509Y021746D03*
D73*
X018509Y021750D03*
X018509Y021778D03*
X018509Y021782D03*
D74*
X018511Y021774D03*
X018511Y021758D03*
X018511Y021754D03*
D75*
X018509Y021762D03*
X018509Y021770D03*
D76*
X018509Y021766D03*
D77*
X018511Y021786D03*
D78*
X018509Y021802D03*
D79*
X018509Y021806D03*
D80*
X018519Y021842D03*
X018515Y021854D03*
D81*
X018517Y021846D03*
D82*
X018517Y021850D03*
D83*
X018515Y021858D03*
X018515Y021862D03*
D84*
X018513Y021866D03*
D85*
X018511Y021870D03*
D86*
X018503Y021886D03*
D87*
X018503Y021890D03*
X018503Y021894D03*
D88*
X018403Y021898D03*
D89*
X018735Y021914D03*
X018739Y021902D03*
X018739Y021898D03*
D90*
X018401Y021902D03*
D91*
X018401Y021906D03*
D92*
X018737Y021906D03*
D93*
X018401Y021910D03*
D94*
X018737Y021910D03*
D95*
X018397Y021914D03*
D96*
X018395Y021918D03*
D97*
X018617Y022294D03*
X018621Y022298D03*
X018697Y021922D03*
X018701Y021918D03*
D98*
X018807Y021918D03*
D99*
X018509Y022330D03*
X018393Y021922D03*
D100*
X018509Y022070D03*
X018825Y021922D03*
D101*
X018391Y021926D03*
D102*
X018347Y022366D03*
X018691Y021926D03*
D103*
X018381Y021930D03*
X018397Y022454D03*
D104*
X018509Y022154D03*
X018509Y021998D03*
X018689Y021930D03*
X018629Y022314D03*
D105*
X018375Y021934D03*
D106*
X018683Y021934D03*
X018631Y022318D03*
D107*
X018441Y022374D03*
X018377Y021938D03*
D108*
X018677Y021938D03*
D109*
X018379Y021942D03*
D110*
X018507Y021994D03*
X018671Y021942D03*
D111*
X018385Y021946D03*
X018509Y022606D03*
D112*
X018627Y022326D03*
X018663Y021946D03*
D113*
X018391Y021950D03*
D114*
X018645Y021950D03*
D115*
X018509Y022114D03*
X018509Y022118D03*
X018281Y021954D03*
D116*
X018283Y021958D03*
X018383Y021982D03*
D117*
X018531Y021958D03*
D118*
X018527Y021962D03*
D119*
X018523Y021966D03*
X018403Y022446D03*
D120*
X018675Y021970D03*
D121*
X018503Y021974D03*
D122*
X018383Y021978D03*
D123*
X018537Y021978D03*
X018509Y022222D03*
X018309Y022490D03*
X018509Y022614D03*
D124*
X018321Y022470D03*
X018317Y022474D03*
X018537Y021982D03*
D125*
X018379Y021986D03*
D126*
X018507Y021986D03*
D127*
X018621Y021986D03*
D128*
X018379Y021990D03*
D129*
X018507Y021990D03*
D130*
X018509Y022094D03*
X018625Y021990D03*
D131*
X018377Y021994D03*
D132*
X018507Y022018D03*
X018627Y021994D03*
D133*
X018633Y022002D03*
X018377Y021998D03*
D134*
X018631Y021998D03*
D135*
X018375Y022002D03*
D136*
X018507Y022002D03*
X018351Y022358D03*
X018683Y022382D03*
D137*
X018507Y022006D03*
D138*
X018637Y022006D03*
D139*
X018507Y022010D03*
D140*
X018507Y022014D03*
D141*
X018509Y022066D03*
D142*
X018509Y022074D03*
D143*
X018509Y022078D03*
D144*
X018509Y022082D03*
D145*
X018509Y022086D03*
D146*
X018509Y022090D03*
D147*
X018509Y022098D03*
X018509Y022102D03*
D148*
X018509Y022106D03*
D149*
X018509Y022110D03*
D150*
X018509Y022122D03*
D151*
X018509Y022126D03*
D152*
X018509Y022130D03*
X018509Y022134D03*
D153*
X018509Y022138D03*
D154*
X018509Y022142D03*
X018685Y022378D03*
D155*
X018507Y022146D03*
D156*
X018509Y022150D03*
X018625Y022302D03*
X018629Y022310D03*
X018349Y022362D03*
D157*
X018509Y022158D03*
X018629Y022322D03*
D158*
X018509Y022162D03*
D159*
X018509Y022166D03*
D160*
X018509Y022170D03*
D161*
X018509Y022174D03*
X018509Y022178D03*
D162*
X018509Y022182D03*
D163*
X018509Y022186D03*
D164*
X018509Y022190D03*
X018509Y022194D03*
D165*
X018509Y022198D03*
X018437Y022294D03*
X018433Y022298D03*
X018429Y022302D03*
D166*
X018425Y022314D03*
X018509Y022202D03*
D167*
X018509Y022206D03*
D168*
X018509Y022210D03*
D169*
X018509Y022214D03*
D170*
X018509Y022218D03*
X018313Y022482D03*
D171*
X018509Y022226D03*
D172*
X018509Y022230D03*
D173*
X018509Y022234D03*
D174*
X018509Y022238D03*
X018509Y022242D03*
D175*
X018509Y022246D03*
D176*
X018509Y022250D03*
X018509Y022610D03*
D177*
X018509Y022258D03*
X018509Y022254D03*
D178*
X018509Y022262D03*
D179*
X018509Y022266D03*
D180*
X018509Y022278D03*
D181*
X018509Y022282D03*
D182*
X018509Y022286D03*
D183*
X018509Y022290D03*
D184*
X018429Y022306D03*
D185*
X018625Y022306D03*
D186*
X018695Y022450D03*
X018427Y022310D03*
D187*
X018425Y022318D03*
X018425Y022322D03*
D188*
X018427Y022326D03*
D189*
X018509Y022342D03*
D190*
X018509Y022346D03*
D191*
X018511Y022350D03*
D192*
X018577Y022358D03*
D193*
X018519Y022362D03*
X018515Y022370D03*
D194*
X018677Y022362D03*
X018681Y022370D03*
D195*
X018517Y022366D03*
D196*
X018681Y022366D03*
D197*
X018347Y022370D03*
D198*
X018683Y022374D03*
D199*
X018439Y022378D03*
D200*
X018441Y022382D03*
D201*
X018509Y022386D03*
D202*
X018509Y022394D03*
X018509Y022398D03*
X018509Y022578D03*
D203*
X018509Y022406D03*
D204*
X018509Y022426D03*
D205*
X018689Y022446D03*
D206*
X018639Y022474D03*
X018639Y022478D03*
X018399Y022450D03*
D207*
X018697Y022454D03*
D208*
X018395Y022458D03*
D209*
X018699Y022458D03*
D210*
X018397Y022462D03*
D211*
X018695Y022462D03*
D212*
X018509Y022466D03*
D213*
X018635Y022470D03*
X018643Y022482D03*
D214*
X018315Y022478D03*
D215*
X018311Y022486D03*
D216*
X018645Y022486D03*
D217*
X018645Y022490D03*
X018645Y022494D03*
D218*
X018311Y022494D03*
D219*
X018311Y022498D03*
D220*
X018645Y022498D03*
D221*
X018509Y022526D03*
D222*
X018509Y022546D03*
D223*
X018511Y022554D03*
D224*
X018509Y022566D03*
D225*
X018509Y022586D03*
D226*
X018509Y022598D03*
D227*
X018509Y022602D03*
D228*
X018507Y022618D03*
D229*
X018511Y022622D03*
D230*
X008663Y004239D03*
D231*
X009608Y006207D03*
X010671Y006207D03*
X007718Y006207D03*
X006655Y006207D03*
D232*
X006399Y004239D02*
X006401Y004273D01*
X006407Y004307D01*
X006417Y004340D01*
X006430Y004371D01*
X006448Y004401D01*
X006468Y004429D01*
X006492Y004454D01*
X006518Y004476D01*
X006546Y004494D01*
X006577Y004510D01*
X006609Y004522D01*
X006643Y004530D01*
X006677Y004534D01*
X006711Y004534D01*
X006745Y004530D01*
X006779Y004522D01*
X006811Y004510D01*
X006841Y004494D01*
X006870Y004476D01*
X006896Y004454D01*
X006920Y004429D01*
X006940Y004401D01*
X006958Y004371D01*
X006971Y004340D01*
X006981Y004307D01*
X006987Y004273D01*
X006989Y004239D01*
X006987Y004205D01*
X006981Y004171D01*
X006971Y004138D01*
X006958Y004107D01*
X006940Y004077D01*
X006920Y004049D01*
X006896Y004024D01*
X006870Y004002D01*
X006842Y003984D01*
X006811Y003968D01*
X006779Y003956D01*
X006745Y003948D01*
X006711Y003944D01*
X006677Y003944D01*
X006643Y003948D01*
X006609Y003956D01*
X006577Y003968D01*
X006546Y003984D01*
X006518Y004002D01*
X006492Y004024D01*
X006468Y004049D01*
X006448Y004077D01*
X006430Y004107D01*
X006417Y004138D01*
X006407Y004171D01*
X006401Y004205D01*
X006399Y004239D01*
X008368Y006207D02*
X008370Y006241D01*
X008376Y006275D01*
X008386Y006308D01*
X008399Y006339D01*
X008417Y006369D01*
X008437Y006397D01*
X008461Y006422D01*
X008487Y006444D01*
X008515Y006462D01*
X008546Y006478D01*
X008578Y006490D01*
X008612Y006498D01*
X008646Y006502D01*
X008680Y006502D01*
X008714Y006498D01*
X008748Y006490D01*
X008780Y006478D01*
X008810Y006462D01*
X008839Y006444D01*
X008865Y006422D01*
X008889Y006397D01*
X008909Y006369D01*
X008927Y006339D01*
X008940Y006308D01*
X008950Y006275D01*
X008956Y006241D01*
X008958Y006207D01*
X008956Y006173D01*
X008950Y006139D01*
X008940Y006106D01*
X008927Y006075D01*
X008909Y006045D01*
X008889Y006017D01*
X008865Y005992D01*
X008839Y005970D01*
X008811Y005952D01*
X008780Y005936D01*
X008748Y005924D01*
X008714Y005916D01*
X008680Y005912D01*
X008646Y005912D01*
X008612Y005916D01*
X008578Y005924D01*
X008546Y005936D01*
X008515Y005952D01*
X008487Y005970D01*
X008461Y005992D01*
X008437Y006017D01*
X008417Y006045D01*
X008399Y006075D01*
X008386Y006106D01*
X008376Y006139D01*
X008370Y006173D01*
X008368Y006207D01*
X010336Y004239D02*
X010338Y004273D01*
X010344Y004307D01*
X010354Y004340D01*
X010367Y004371D01*
X010385Y004401D01*
X010405Y004429D01*
X010429Y004454D01*
X010455Y004476D01*
X010483Y004494D01*
X010514Y004510D01*
X010546Y004522D01*
X010580Y004530D01*
X010614Y004534D01*
X010648Y004534D01*
X010682Y004530D01*
X010716Y004522D01*
X010748Y004510D01*
X010778Y004494D01*
X010807Y004476D01*
X010833Y004454D01*
X010857Y004429D01*
X010877Y004401D01*
X010895Y004371D01*
X010908Y004340D01*
X010918Y004307D01*
X010924Y004273D01*
X010926Y004239D01*
X010924Y004205D01*
X010918Y004171D01*
X010908Y004138D01*
X010895Y004107D01*
X010877Y004077D01*
X010857Y004049D01*
X010833Y004024D01*
X010807Y004002D01*
X010779Y003984D01*
X010748Y003968D01*
X010716Y003956D01*
X010682Y003948D01*
X010648Y003944D01*
X010614Y003944D01*
X010580Y003948D01*
X010546Y003956D01*
X010514Y003968D01*
X010483Y003984D01*
X010455Y004002D01*
X010429Y004024D01*
X010405Y004049D01*
X010385Y004077D01*
X010367Y004107D01*
X010354Y004138D01*
X010344Y004171D01*
X010338Y004205D01*
X010336Y004239D01*
X012592Y004195D02*
X012594Y004235D01*
X012600Y004276D01*
X012610Y004315D01*
X012623Y004353D01*
X012641Y004390D01*
X012662Y004424D01*
X012686Y004457D01*
X012713Y004487D01*
X012743Y004514D01*
X012776Y004538D01*
X012810Y004559D01*
X012847Y004577D01*
X012885Y004590D01*
X012924Y004600D01*
X012965Y004606D01*
X013005Y004608D01*
X013045Y004606D01*
X013086Y004600D01*
X013125Y004590D01*
X013163Y004577D01*
X013200Y004559D01*
X013234Y004538D01*
X013267Y004514D01*
X013297Y004487D01*
X013324Y004457D01*
X013348Y004424D01*
X013369Y004390D01*
X013387Y004353D01*
X013400Y004315D01*
X013410Y004276D01*
X013416Y004235D01*
X013418Y004195D01*
X013416Y004155D01*
X013410Y004114D01*
X013400Y004075D01*
X013387Y004037D01*
X013369Y004000D01*
X013348Y003966D01*
X013324Y003933D01*
X013297Y003903D01*
X013267Y003876D01*
X013234Y003852D01*
X013200Y003831D01*
X013163Y003813D01*
X013125Y003800D01*
X013086Y003790D01*
X013045Y003784D01*
X013005Y003782D01*
X012965Y003784D01*
X012924Y003790D01*
X012885Y003800D01*
X012847Y003813D01*
X012810Y003831D01*
X012776Y003852D01*
X012743Y003876D01*
X012713Y003903D01*
X012686Y003933D01*
X012662Y003966D01*
X012641Y004000D01*
X012623Y004037D01*
X012610Y004075D01*
X012600Y004114D01*
X012594Y004155D01*
X012592Y004195D01*
X015939Y004195D02*
X015941Y004235D01*
X015947Y004276D01*
X015957Y004315D01*
X015970Y004353D01*
X015988Y004390D01*
X016009Y004424D01*
X016033Y004457D01*
X016060Y004487D01*
X016090Y004514D01*
X016123Y004538D01*
X016157Y004559D01*
X016194Y004577D01*
X016232Y004590D01*
X016271Y004600D01*
X016312Y004606D01*
X016352Y004608D01*
X016392Y004606D01*
X016433Y004600D01*
X016472Y004590D01*
X016510Y004577D01*
X016547Y004559D01*
X016581Y004538D01*
X016614Y004514D01*
X016644Y004487D01*
X016671Y004457D01*
X016695Y004424D01*
X016716Y004390D01*
X016734Y004353D01*
X016747Y004315D01*
X016757Y004276D01*
X016763Y004235D01*
X016765Y004195D01*
X016763Y004155D01*
X016757Y004114D01*
X016747Y004075D01*
X016734Y004037D01*
X016716Y004000D01*
X016695Y003966D01*
X016671Y003933D01*
X016644Y003903D01*
X016614Y003876D01*
X016581Y003852D01*
X016547Y003831D01*
X016510Y003813D01*
X016472Y003800D01*
X016433Y003790D01*
X016392Y003784D01*
X016352Y003782D01*
X016312Y003784D01*
X016271Y003790D01*
X016232Y003800D01*
X016194Y003813D01*
X016157Y003831D01*
X016123Y003852D01*
X016090Y003876D01*
X016060Y003903D01*
X016033Y003933D01*
X016009Y003966D01*
X015988Y004000D01*
X015970Y004037D01*
X015957Y004075D01*
X015947Y004114D01*
X015941Y004155D01*
X015939Y004195D01*
D233*
X010631Y004239D03*
X008663Y006207D03*
X006694Y004239D03*
D234*
X013222Y006872D03*
X014679Y005416D03*
X016135Y006872D03*
D235*
X016352Y004195D03*
X013005Y004195D03*
D236*
X009742Y022391D03*
X006986Y022391D03*
D237*
X007379Y021357D03*
X009348Y021357D03*
M02*
