G75*
%MOIN*%
%OFA0B0*%
%FSLAX24Y24*%
%IPPOS*%
%LPD*%
%AMOC8*
5,1,8,0,0,1.08239X$1,22.5*
%
%ADD10C,0.0160*%
%ADD11C,0.0060*%
%ADD12C,0.0000*%
D10*
X003629Y003256D02*
X019770Y003256D01*
X019770Y022941D01*
X003629Y022941D01*
X003629Y003256D01*
D11*
X004124Y021406D02*
X004418Y021406D01*
X004271Y021406D02*
X004271Y021846D01*
X004418Y021699D01*
X004575Y021479D02*
X004575Y021406D01*
X004648Y021406D01*
X004648Y021479D01*
X004575Y021479D01*
X004815Y021479D02*
X004888Y021406D01*
X005035Y021406D01*
X005109Y021479D01*
X004815Y021773D01*
X004815Y021479D01*
X005109Y021479D02*
X005109Y021773D01*
X005035Y021846D01*
X004888Y021846D01*
X004815Y021773D01*
X004815Y022156D02*
X005035Y022376D01*
X005109Y022303D02*
X004815Y022596D01*
X004648Y022596D02*
X004648Y022156D01*
X004501Y022303D01*
X004355Y022156D01*
X004355Y022596D01*
X005109Y022596D02*
X005109Y022156D01*
X005349Y022229D02*
X005349Y022596D01*
X005422Y022596D02*
X005275Y022596D01*
X005349Y022229D02*
X005422Y022156D01*
X005496Y022156D01*
X005569Y022229D01*
X005569Y021699D02*
X005422Y021406D01*
X005275Y021699D01*
D12*
X008368Y006207D02*
X008370Y006241D01*
X008376Y006275D01*
X008386Y006308D01*
X008399Y006339D01*
X008417Y006369D01*
X008437Y006397D01*
X008461Y006422D01*
X008487Y006444D01*
X008515Y006462D01*
X008546Y006478D01*
X008578Y006490D01*
X008612Y006498D01*
X008646Y006502D01*
X008680Y006502D01*
X008714Y006498D01*
X008748Y006490D01*
X008780Y006478D01*
X008810Y006462D01*
X008839Y006444D01*
X008865Y006422D01*
X008889Y006397D01*
X008909Y006369D01*
X008927Y006339D01*
X008940Y006308D01*
X008950Y006275D01*
X008956Y006241D01*
X008958Y006207D01*
X008956Y006173D01*
X008950Y006139D01*
X008940Y006106D01*
X008927Y006075D01*
X008909Y006045D01*
X008889Y006017D01*
X008865Y005992D01*
X008839Y005970D01*
X008811Y005952D01*
X008780Y005936D01*
X008748Y005924D01*
X008714Y005916D01*
X008680Y005912D01*
X008646Y005912D01*
X008612Y005916D01*
X008578Y005924D01*
X008546Y005936D01*
X008515Y005952D01*
X008487Y005970D01*
X008461Y005992D01*
X008437Y006017D01*
X008417Y006045D01*
X008399Y006075D01*
X008386Y006106D01*
X008376Y006139D01*
X008370Y006173D01*
X008368Y006207D01*
X006399Y004239D02*
X006401Y004273D01*
X006407Y004307D01*
X006417Y004340D01*
X006430Y004371D01*
X006448Y004401D01*
X006468Y004429D01*
X006492Y004454D01*
X006518Y004476D01*
X006546Y004494D01*
X006577Y004510D01*
X006609Y004522D01*
X006643Y004530D01*
X006677Y004534D01*
X006711Y004534D01*
X006745Y004530D01*
X006779Y004522D01*
X006811Y004510D01*
X006841Y004494D01*
X006870Y004476D01*
X006896Y004454D01*
X006920Y004429D01*
X006940Y004401D01*
X006958Y004371D01*
X006971Y004340D01*
X006981Y004307D01*
X006987Y004273D01*
X006989Y004239D01*
X006987Y004205D01*
X006981Y004171D01*
X006971Y004138D01*
X006958Y004107D01*
X006940Y004077D01*
X006920Y004049D01*
X006896Y004024D01*
X006870Y004002D01*
X006842Y003984D01*
X006811Y003968D01*
X006779Y003956D01*
X006745Y003948D01*
X006711Y003944D01*
X006677Y003944D01*
X006643Y003948D01*
X006609Y003956D01*
X006577Y003968D01*
X006546Y003984D01*
X006518Y004002D01*
X006492Y004024D01*
X006468Y004049D01*
X006448Y004077D01*
X006430Y004107D01*
X006417Y004138D01*
X006407Y004171D01*
X006401Y004205D01*
X006399Y004239D01*
X010336Y004239D02*
X010338Y004273D01*
X010344Y004307D01*
X010354Y004340D01*
X010367Y004371D01*
X010385Y004401D01*
X010405Y004429D01*
X010429Y004454D01*
X010455Y004476D01*
X010483Y004494D01*
X010514Y004510D01*
X010546Y004522D01*
X010580Y004530D01*
X010614Y004534D01*
X010648Y004534D01*
X010682Y004530D01*
X010716Y004522D01*
X010748Y004510D01*
X010778Y004494D01*
X010807Y004476D01*
X010833Y004454D01*
X010857Y004429D01*
X010877Y004401D01*
X010895Y004371D01*
X010908Y004340D01*
X010918Y004307D01*
X010924Y004273D01*
X010926Y004239D01*
X010924Y004205D01*
X010918Y004171D01*
X010908Y004138D01*
X010895Y004107D01*
X010877Y004077D01*
X010857Y004049D01*
X010833Y004024D01*
X010807Y004002D01*
X010779Y003984D01*
X010748Y003968D01*
X010716Y003956D01*
X010682Y003948D01*
X010648Y003944D01*
X010614Y003944D01*
X010580Y003948D01*
X010546Y003956D01*
X010514Y003968D01*
X010483Y003984D01*
X010455Y004002D01*
X010429Y004024D01*
X010405Y004049D01*
X010385Y004077D01*
X010367Y004107D01*
X010354Y004138D01*
X010344Y004171D01*
X010338Y004205D01*
X010336Y004239D01*
X012592Y004195D02*
X012594Y004235D01*
X012600Y004276D01*
X012610Y004315D01*
X012623Y004353D01*
X012641Y004390D01*
X012662Y004424D01*
X012686Y004457D01*
X012713Y004487D01*
X012743Y004514D01*
X012776Y004538D01*
X012810Y004559D01*
X012847Y004577D01*
X012885Y004590D01*
X012924Y004600D01*
X012965Y004606D01*
X013005Y004608D01*
X013045Y004606D01*
X013086Y004600D01*
X013125Y004590D01*
X013163Y004577D01*
X013200Y004559D01*
X013234Y004538D01*
X013267Y004514D01*
X013297Y004487D01*
X013324Y004457D01*
X013348Y004424D01*
X013369Y004390D01*
X013387Y004353D01*
X013400Y004315D01*
X013410Y004276D01*
X013416Y004235D01*
X013418Y004195D01*
X013416Y004155D01*
X013410Y004114D01*
X013400Y004075D01*
X013387Y004037D01*
X013369Y004000D01*
X013348Y003966D01*
X013324Y003933D01*
X013297Y003903D01*
X013267Y003876D01*
X013234Y003852D01*
X013200Y003831D01*
X013163Y003813D01*
X013125Y003800D01*
X013086Y003790D01*
X013045Y003784D01*
X013005Y003782D01*
X012965Y003784D01*
X012924Y003790D01*
X012885Y003800D01*
X012847Y003813D01*
X012810Y003831D01*
X012776Y003852D01*
X012743Y003876D01*
X012713Y003903D01*
X012686Y003933D01*
X012662Y003966D01*
X012641Y004000D01*
X012623Y004037D01*
X012610Y004075D01*
X012600Y004114D01*
X012594Y004155D01*
X012592Y004195D01*
X015939Y004195D02*
X015941Y004235D01*
X015947Y004276D01*
X015957Y004315D01*
X015970Y004353D01*
X015988Y004390D01*
X016009Y004424D01*
X016033Y004457D01*
X016060Y004487D01*
X016090Y004514D01*
X016123Y004538D01*
X016157Y004559D01*
X016194Y004577D01*
X016232Y004590D01*
X016271Y004600D01*
X016312Y004606D01*
X016352Y004608D01*
X016392Y004606D01*
X016433Y004600D01*
X016472Y004590D01*
X016510Y004577D01*
X016547Y004559D01*
X016581Y004538D01*
X016614Y004514D01*
X016644Y004487D01*
X016671Y004457D01*
X016695Y004424D01*
X016716Y004390D01*
X016734Y004353D01*
X016747Y004315D01*
X016757Y004276D01*
X016763Y004235D01*
X016765Y004195D01*
X016763Y004155D01*
X016757Y004114D01*
X016747Y004075D01*
X016734Y004037D01*
X016716Y004000D01*
X016695Y003966D01*
X016671Y003933D01*
X016644Y003903D01*
X016614Y003876D01*
X016581Y003852D01*
X016547Y003831D01*
X016510Y003813D01*
X016472Y003800D01*
X016433Y003790D01*
X016392Y003784D01*
X016352Y003782D01*
X016312Y003784D01*
X016271Y003790D01*
X016232Y003800D01*
X016194Y003813D01*
X016157Y003831D01*
X016123Y003852D01*
X016090Y003876D01*
X016060Y003903D01*
X016033Y003933D01*
X016009Y003966D01*
X015988Y004000D01*
X015970Y004037D01*
X015957Y004075D01*
X015947Y004114D01*
X015941Y004155D01*
X015939Y004195D01*
M02*
