G75*
%MOIN*%
%OFA0B0*%
%FSLAX24Y24*%
%IPPOS*%
%LPD*%
%AMOC8*
5,1,8,0,0,1.08239X$1,22.5*
%
%ADD10C,0.0160*%
%ADD11C,0.0540*%
%ADD12OC8,0.0540*%
%ADD13R,0.0312X0.0004*%
%ADD14R,0.0344X0.0004*%
%ADD15R,0.0368X0.0004*%
%ADD16R,0.0392X0.0004*%
%ADD17R,0.0408X0.0004*%
%ADD18R,0.0424X0.0004*%
%ADD19R,0.0432X0.0004*%
%ADD20R,0.0448X0.0004*%
%ADD21R,0.0456X0.0004*%
%ADD22R,0.0472X0.0004*%
%ADD23R,0.0480X0.0004*%
%ADD24R,0.0488X0.0004*%
%ADD25R,0.0496X0.0004*%
%ADD26R,0.0504X0.0004*%
%ADD27R,0.0512X0.0004*%
%ADD28R,0.0520X0.0004*%
%ADD29R,0.0528X0.0004*%
%ADD30R,0.0536X0.0004*%
%ADD31R,0.0536X0.0004*%
%ADD32R,0.0544X0.0004*%
%ADD33R,0.0552X0.0004*%
%ADD34R,0.0560X0.0004*%
%ADD35R,0.0560X0.0004*%
%ADD36R,0.0568X0.0004*%
%ADD37R,0.0576X0.0004*%
%ADD38R,0.0584X0.0004*%
%ADD39R,0.0592X0.0004*%
%ADD40R,0.0592X0.0004*%
%ADD41R,0.0600X0.0004*%
%ADD42R,0.0608X0.0004*%
%ADD43R,0.0608X0.0004*%
%ADD44R,0.0616X0.0004*%
%ADD45R,0.0624X0.0004*%
%ADD46R,0.0632X0.0004*%
%ADD47R,0.0632X0.0004*%
%ADD48R,0.0640X0.0004*%
%ADD49R,0.0648X0.0004*%
%ADD50R,0.0648X0.0004*%
%ADD51R,0.0656X0.0004*%
%ADD52R,0.0664X0.0004*%
%ADD53R,0.0664X0.0004*%
%ADD54R,0.0672X0.0004*%
%ADD55R,0.0680X0.0004*%
%ADD56R,0.0680X0.0004*%
%ADD57R,0.0688X0.0004*%
%ADD58R,0.0696X0.0004*%
%ADD59R,0.0700X0.0004*%
%ADD60R,0.0708X0.0004*%
%ADD61R,0.0716X0.0004*%
%ADD62R,0.0720X0.0004*%
%ADD63R,0.0720X0.0004*%
%ADD64R,0.0724X0.0004*%
%ADD65R,0.0808X0.0004*%
%ADD66R,0.0824X0.0004*%
%ADD67R,0.0832X0.0004*%
%ADD68R,0.0840X0.0004*%
%ADD69R,0.0848X0.0004*%
%ADD70R,0.0856X0.0004*%
%ADD71R,0.0860X0.0004*%
%ADD72R,0.0864X0.0004*%
%ADD73R,0.0864X0.0004*%
%ADD74R,0.0868X0.0004*%
%ADD75R,0.0872X0.0004*%
%ADD76R,0.0872X0.0004*%
%ADD77R,0.0860X0.0004*%
%ADD78R,0.0832X0.0004*%
%ADD79R,0.0824X0.0004*%
%ADD80R,0.0708X0.0004*%
%ADD81R,0.0712X0.0004*%
%ADD82R,0.0712X0.0004*%
%ADD83R,0.0700X0.0004*%
%ADD84R,0.0696X0.0004*%
%ADD85R,0.0692X0.0004*%
%ADD86R,0.0668X0.0004*%
%ADD87R,0.0660X0.0004*%
%ADD88R,0.0452X0.0004*%
%ADD89R,0.0188X0.0004*%
%ADD90R,0.0448X0.0004*%
%ADD91R,0.0440X0.0004*%
%ADD92R,0.0184X0.0004*%
%ADD93R,0.0432X0.0004*%
%ADD94R,0.0184X0.0004*%
%ADD95R,0.0424X0.0004*%
%ADD96R,0.0412X0.0004*%
%ADD97R,0.0128X0.0004*%
%ADD98R,0.0044X0.0004*%
%ADD99R,0.0400X0.0004*%
%ADD100R,0.0008X0.0004*%
%ADD101R,0.0388X0.0004*%
%ADD102R,0.0132X0.0004*%
%ADD103R,0.0360X0.0004*%
%ADD104R,0.0136X0.0004*%
%ADD105R,0.0340X0.0004*%
%ADD106R,0.0140X0.0004*%
%ADD107R,0.0328X0.0004*%
%ADD108R,0.0144X0.0004*%
%ADD109R,0.0324X0.0004*%
%ADD110R,0.0148X0.0004*%
%ADD111R,0.0320X0.0004*%
%ADD112R,0.0156X0.0004*%
%ADD113R,0.0316X0.0004*%
%ADD114R,0.0176X0.0004*%
%ADD115R,0.0080X0.0004*%
%ADD116R,0.0052X0.0004*%
%ADD117R,0.0380X0.0004*%
%ADD118R,0.0372X0.0004*%
%ADD119R,0.0356X0.0004*%
%ADD120R,0.0004X0.0004*%
%ADD121R,0.0308X0.0004*%
%ADD122R,0.0060X0.0004*%
%ADD123R,0.0240X0.0004*%
%ADD124R,0.0232X0.0004*%
%ADD125R,0.0044X0.0004*%
%ADD126R,0.0164X0.0004*%
%ADD127R,0.0056X0.0004*%
%ADD128R,0.0036X0.0004*%
%ADD129R,0.0156X0.0004*%
%ADD130R,0.0048X0.0004*%
%ADD131R,0.0024X0.0004*%
%ADD132R,0.0036X0.0004*%
%ADD133R,0.0016X0.0004*%
%ADD134R,0.0028X0.0004*%
%ADD135R,0.0012X0.0004*%
%ADD136R,0.0124X0.0004*%
%ADD137R,0.0108X0.0004*%
%ADD138R,0.0008X0.0004*%
%ADD139R,0.0092X0.0004*%
%ADD140R,0.0068X0.0004*%
%ADD141R,0.0008X0.0004*%
%ADD142R,0.0016X0.0004*%
%ADD143R,0.0024X0.0004*%
%ADD144R,0.0032X0.0004*%
%ADD145R,0.0032X0.0004*%
%ADD146R,0.0040X0.0004*%
%ADD147R,0.0056X0.0004*%
%ADD148R,0.0064X0.0004*%
%ADD149R,0.0072X0.0004*%
%ADD150R,0.0088X0.0004*%
%ADD151R,0.0096X0.0004*%
%ADD152R,0.0104X0.0004*%
%ADD153R,0.0112X0.0004*%
%ADD154R,0.0120X0.0004*%
%ADD155R,0.0124X0.0004*%
%ADD156R,0.0128X0.0004*%
%ADD157R,0.0144X0.0004*%
%ADD158R,0.0152X0.0004*%
%ADD159R,0.0152X0.0004*%
%ADD160R,0.0160X0.0004*%
%ADD161R,0.0168X0.0004*%
%ADD162R,0.0176X0.0004*%
%ADD163R,0.0184X0.0004*%
%ADD164R,0.0192X0.0004*%
%ADD165R,0.0200X0.0004*%
%ADD166R,0.0208X0.0004*%
%ADD167R,0.0216X0.0004*%
%ADD168R,0.0216X0.0004*%
%ADD169R,0.0224X0.0004*%
%ADD170R,0.0232X0.0004*%
%ADD171R,0.0240X0.0004*%
%ADD172R,0.0248X0.0004*%
%ADD173R,0.0256X0.0004*%
%ADD174R,0.0264X0.0004*%
%ADD175R,0.0272X0.0004*%
%ADD176R,0.0280X0.0004*%
%ADD177R,0.0288X0.0004*%
%ADD178R,0.0296X0.0004*%
%ADD179R,0.0304X0.0004*%
%ADD180R,0.0320X0.0004*%
%ADD181R,0.0328X0.0004*%
%ADD182R,0.0336X0.0004*%
%ADD183R,0.0336X0.0004*%
%ADD184R,0.0200X0.0004*%
%ADD185R,0.0128X0.0004*%
%ADD186R,0.0204X0.0004*%
%ADD187R,0.0216X0.0004*%
%ADD188R,0.0228X0.0004*%
%ADD189R,0.0416X0.0004*%
%ADD190R,0.0424X0.0004*%
%ADD191R,0.0428X0.0004*%
%ADD192R,0.0304X0.0004*%
%ADD193R,0.0180X0.0004*%
%ADD194R,0.0112X0.0004*%
%ADD195R,0.0176X0.0004*%
%ADD196R,0.0112X0.0004*%
%ADD197R,0.0132X0.0004*%
%ADD198R,0.0116X0.0004*%
%ADD199R,0.0332X0.0004*%
%ADD200R,0.0336X0.0004*%
%ADD201R,0.0480X0.0004*%
%ADD202R,0.0496X0.0004*%
%ADD203R,0.0512X0.0004*%
%ADD204R,0.0544X0.0004*%
%ADD205R,0.0208X0.0004*%
%ADD206R,0.0356X0.0004*%
%ADD207R,0.0208X0.0004*%
%ADD208R,0.0364X0.0004*%
%ADD209R,0.0212X0.0004*%
%ADD210R,0.0368X0.0004*%
%ADD211R,0.0220X0.0004*%
%ADD212R,0.0600X0.0004*%
%ADD213R,0.0356X0.0004*%
%ADD214R,0.0228X0.0004*%
%ADD215R,0.0236X0.0004*%
%ADD216R,0.0360X0.0004*%
%ADD217R,0.0368X0.0004*%
%ADD218R,0.0244X0.0004*%
%ADD219R,0.0252X0.0004*%
%ADD220R,0.0376X0.0004*%
%ADD221R,0.0672X0.0004*%
%ADD222R,0.0624X0.0004*%
%ADD223R,0.0596X0.0004*%
%ADD224R,0.0552X0.0004*%
%ADD225R,0.0456X0.0004*%
%ADD226R,0.0384X0.0004*%
%ADD227R,0.0352X0.0004*%
%ADD228R,0.0188X0.0004*%
%ADD229R,0.0108X0.0004*%
%ADD230C,0.1000*%
%ADD231C,0.0886*%
%ADD232C,0.0000*%
%ADD233C,0.1306*%
%ADD234C,0.0679*%
%ADD235C,0.0502*%
%ADD236C,0.0356*%
D10*
X003629Y003256D02*
X019770Y003256D01*
X019770Y022941D01*
X003629Y022941D01*
X003629Y003256D01*
X003989Y004232D02*
X003989Y004357D01*
X004005Y004341D01*
X004394Y004341D01*
X004669Y004616D01*
X004669Y005005D01*
X004394Y005281D01*
X004005Y005281D01*
X003989Y005265D01*
X003989Y005357D01*
X004005Y005341D01*
X004394Y005341D01*
X004669Y005616D01*
X004669Y006005D01*
X004394Y006281D01*
X004005Y006281D01*
X003989Y006265D01*
X003989Y006357D01*
X004005Y006341D01*
X004394Y006341D01*
X004669Y006616D01*
X004669Y007005D01*
X004394Y007281D01*
X004005Y007281D01*
X003989Y007265D01*
X003989Y007357D01*
X004005Y007341D01*
X004394Y007341D01*
X004669Y007616D01*
X004669Y008005D01*
X004394Y008281D01*
X004005Y008281D01*
X003989Y008265D01*
X003989Y008357D01*
X004005Y008341D01*
X004394Y008341D01*
X004669Y008616D01*
X004669Y009005D01*
X004394Y009281D01*
X004005Y009281D01*
X003989Y009265D01*
X003989Y009357D01*
X004005Y009341D01*
X004394Y009341D01*
X004669Y009616D01*
X004669Y010005D01*
X004394Y010281D01*
X004005Y010281D01*
X003989Y010265D01*
X003989Y010357D01*
X004005Y010341D01*
X004394Y010341D01*
X004669Y010616D01*
X004669Y011005D01*
X004394Y011281D01*
X004005Y011281D01*
X003989Y011265D01*
X003989Y011357D01*
X004005Y011341D01*
X004394Y011341D01*
X004669Y011616D01*
X004669Y012005D01*
X004394Y012281D01*
X004005Y012281D01*
X003989Y012265D01*
X003989Y012357D01*
X004005Y012341D01*
X004394Y012341D01*
X004669Y012616D01*
X004669Y013005D01*
X004394Y013281D01*
X004005Y013281D01*
X003989Y013265D01*
X003989Y013357D01*
X004005Y013341D01*
X004394Y013341D01*
X004669Y013616D01*
X004669Y014005D01*
X004394Y014281D01*
X004005Y014281D01*
X003989Y014265D01*
X003989Y014357D01*
X004005Y014341D01*
X004394Y014341D01*
X004669Y014616D01*
X004669Y015005D01*
X004394Y015281D01*
X004005Y015281D01*
X003989Y015265D01*
X003989Y015357D01*
X004005Y015341D01*
X004394Y015341D01*
X004669Y015616D01*
X004669Y016005D01*
X004394Y016281D01*
X004005Y016281D01*
X003989Y016265D01*
X003989Y016357D01*
X004005Y016341D01*
X004394Y016341D01*
X004669Y016616D01*
X004669Y017005D01*
X004394Y017281D01*
X004005Y017281D01*
X003989Y017265D01*
X003989Y017357D01*
X004005Y017341D01*
X004394Y017341D01*
X004669Y017616D01*
X004669Y018005D01*
X004394Y018281D01*
X004005Y018281D01*
X003989Y018265D01*
X003989Y018357D01*
X004005Y018341D01*
X004394Y018341D01*
X004669Y018616D01*
X004669Y019005D01*
X004394Y019281D01*
X004005Y019281D01*
X003989Y019265D01*
X003989Y019357D01*
X004005Y019341D01*
X004394Y019341D01*
X004669Y019616D01*
X004669Y020005D01*
X004394Y020281D01*
X004005Y020281D01*
X003989Y020265D01*
X003989Y020385D01*
X004013Y020361D01*
X004189Y020361D01*
X004189Y020801D01*
X004209Y020801D01*
X004209Y020361D01*
X004386Y020361D01*
X004649Y020624D01*
X004649Y020801D01*
X004209Y020801D01*
X004209Y020821D01*
X004189Y020821D01*
X004189Y021261D01*
X004013Y021261D01*
X003989Y021236D01*
X003989Y022581D01*
X006501Y022581D01*
X006479Y022512D01*
X006466Y022431D01*
X006466Y022424D01*
X006952Y022424D01*
X006952Y022357D01*
X006466Y022357D01*
X006466Y022350D01*
X006479Y022269D01*
X006504Y022191D01*
X006541Y022118D01*
X006589Y022052D01*
X006647Y021994D01*
X006713Y021946D01*
X006786Y021909D01*
X006864Y021884D01*
X006945Y021871D01*
X006952Y021871D01*
X006952Y022357D01*
X007019Y022357D01*
X007019Y021871D01*
X007027Y021871D01*
X007107Y021884D01*
X007185Y021909D01*
X007258Y021946D01*
X007324Y021994D01*
X007382Y022052D01*
X007430Y022118D01*
X007467Y022191D01*
X007492Y022269D01*
X007505Y022350D01*
X007505Y022357D01*
X007019Y022357D01*
X007019Y022424D01*
X007505Y022424D01*
X007505Y022431D01*
X007492Y022512D01*
X007470Y022581D01*
X009257Y022581D01*
X009235Y022512D01*
X009222Y022431D01*
X009222Y022424D01*
X009708Y022424D01*
X009708Y022357D01*
X009775Y022357D01*
X009775Y021871D01*
X009782Y021871D01*
X009863Y021884D01*
X009941Y021909D01*
X010014Y021946D01*
X010080Y021994D01*
X010138Y022052D01*
X010186Y022118D01*
X010223Y022191D01*
X010248Y022269D01*
X010261Y022350D01*
X010261Y022357D01*
X009775Y022357D01*
X009775Y022424D01*
X010261Y022424D01*
X010261Y022431D01*
X010248Y022512D01*
X010226Y022581D01*
X017969Y022581D01*
X017969Y022433D01*
X017977Y022425D01*
X017977Y022421D01*
X017989Y022409D01*
X017989Y022405D01*
X017993Y022401D01*
X017993Y022401D01*
X018001Y022393D01*
X018001Y022389D01*
X018009Y022381D01*
X018009Y022381D01*
X018013Y022377D01*
X018013Y022373D01*
X018025Y022361D01*
X018025Y022357D01*
X018037Y022345D01*
X018037Y022341D01*
X018049Y022329D01*
X018049Y022325D01*
X018053Y022321D01*
X018053Y022321D01*
X018061Y022313D01*
X018061Y022309D01*
X018069Y022301D01*
X018069Y022301D01*
X018073Y022297D01*
X018073Y022293D01*
X018081Y022285D01*
X018081Y022281D01*
X018097Y022265D01*
X018097Y022261D01*
X018105Y022253D01*
X018105Y022249D01*
X018113Y022241D01*
X018113Y022241D01*
X018117Y022237D01*
X018117Y022233D01*
X018129Y022221D01*
X018129Y022217D01*
X018141Y022205D01*
X018141Y022201D01*
X018153Y022189D01*
X018153Y022185D01*
X018157Y022181D01*
X018157Y022181D01*
X018165Y022173D01*
X018165Y022169D01*
X018173Y022161D01*
X018173Y022161D01*
X018174Y022160D01*
X018174Y022160D01*
X018170Y022156D01*
X018158Y022156D01*
X018154Y022152D01*
X018150Y022152D01*
X018146Y022148D01*
X018142Y022148D01*
X018138Y022144D01*
X018134Y022144D01*
X018126Y022136D01*
X018122Y022136D01*
X018114Y022128D01*
X018114Y022128D01*
X017997Y022010D01*
X017993Y022006D01*
X017989Y022002D01*
X017985Y021998D01*
X017985Y021994D01*
X017981Y021990D01*
X017977Y021986D01*
X017977Y021982D01*
X017973Y021978D01*
X017973Y021974D01*
X017969Y021970D01*
X017969Y021962D01*
X017897Y021890D01*
X017885Y021878D01*
X017881Y021874D01*
X017881Y021870D01*
X017877Y021866D01*
X017877Y021858D01*
X017873Y021854D01*
X017873Y021677D01*
X017877Y021673D01*
X017877Y021661D01*
X017881Y021657D01*
X017881Y021653D01*
X017893Y021641D01*
X017893Y021641D01*
X017977Y021557D01*
X017977Y021557D01*
X017981Y021553D01*
X017981Y021549D01*
X017985Y021545D01*
X017985Y021537D01*
X017989Y021533D01*
X017989Y021529D01*
X017993Y021525D01*
X017993Y021521D01*
X017997Y021517D01*
X017997Y021513D01*
X018001Y021509D01*
X018001Y021505D01*
X018005Y021501D01*
X018005Y021497D01*
X018009Y021493D01*
X018009Y021489D01*
X018013Y021485D01*
X018013Y021481D01*
X018021Y021473D01*
X018021Y021469D01*
X018029Y021461D01*
X018029Y021457D01*
X018041Y021445D01*
X018041Y021441D01*
X018061Y021421D01*
X018061Y021421D01*
X018178Y021304D01*
X018182Y021300D01*
X018186Y021296D01*
X018190Y021292D01*
X018194Y021292D01*
X018202Y021284D01*
X018206Y021284D01*
X018210Y021280D01*
X018214Y021276D01*
X018218Y021276D01*
X018222Y021272D01*
X018226Y021272D01*
X018230Y021268D01*
X018238Y021268D01*
X018242Y021264D01*
X018250Y021264D01*
X018253Y021261D01*
X018209Y021261D01*
X018209Y020821D01*
X018189Y020821D01*
X018189Y020801D01*
X017749Y020801D01*
X017749Y020624D01*
X018013Y020361D01*
X018189Y020361D01*
X018189Y020801D01*
X018209Y020801D01*
X018209Y020361D01*
X018386Y020361D01*
X018649Y020624D01*
X018649Y020801D01*
X018209Y020801D01*
X018209Y020821D01*
X018649Y020821D01*
X018649Y020997D01*
X018391Y021256D01*
X018747Y021256D01*
X018751Y021260D01*
X018763Y021260D01*
X018767Y021264D01*
X018775Y021264D01*
X018779Y021268D01*
X018787Y021268D01*
X018791Y021272D01*
X018795Y021272D01*
X018799Y021276D01*
X018803Y021276D01*
X018807Y021280D01*
X018811Y021284D01*
X018815Y021284D01*
X018823Y021292D01*
X018827Y021292D01*
X018831Y021296D01*
X018835Y021300D01*
X018839Y021304D01*
X018957Y021421D01*
X018977Y021441D01*
X018977Y021445D01*
X018989Y021457D01*
X018989Y021461D01*
X018997Y021469D01*
X018997Y021473D01*
X019005Y021481D01*
X019005Y021485D01*
X019009Y021489D01*
X019009Y021493D01*
X019013Y021497D01*
X019013Y021501D01*
X019017Y021505D01*
X019017Y021509D01*
X019021Y021513D01*
X019021Y021517D01*
X019025Y021521D01*
X019025Y021525D01*
X019029Y021529D01*
X019029Y021533D01*
X019033Y021537D01*
X019033Y021545D01*
X019037Y021549D01*
X019037Y021553D01*
X019041Y021557D01*
X019141Y021657D01*
X019141Y021665D01*
X019145Y021669D01*
X019145Y021677D01*
X019145Y021854D01*
X019145Y021854D01*
X019145Y021858D01*
X019141Y021862D01*
X019141Y021870D01*
X019033Y021978D01*
X019033Y021986D01*
X019029Y021990D01*
X019029Y022006D01*
X018911Y022124D01*
X018847Y022124D01*
X018829Y022142D01*
X018841Y022153D01*
X018841Y022157D01*
X018845Y022161D01*
X018853Y022169D01*
X018853Y022173D01*
X018861Y022181D01*
X018865Y022185D01*
X018865Y022189D01*
X018877Y022201D01*
X018877Y022205D01*
X018889Y022217D01*
X018889Y022221D01*
X018901Y022233D01*
X018901Y022237D01*
X018913Y022249D01*
X018913Y022253D01*
X018921Y022261D01*
X018925Y022265D01*
X018925Y022269D01*
X018937Y022281D01*
X018937Y022285D01*
X018945Y022293D01*
X018945Y022297D01*
X018949Y022301D01*
X018957Y022309D01*
X018957Y022313D01*
X018965Y022321D01*
X018969Y022325D01*
X018969Y022329D01*
X018981Y022341D01*
X018981Y022345D01*
X018993Y022357D01*
X018993Y022361D01*
X019005Y022373D01*
X019005Y022377D01*
X019009Y022381D01*
X019017Y022389D01*
X019017Y022393D01*
X019025Y022401D01*
X019029Y022405D01*
X019029Y022409D01*
X019041Y022421D01*
X019041Y022425D01*
X019049Y022433D01*
X019049Y022581D01*
X019410Y022581D01*
X019410Y021265D01*
X019394Y021281D01*
X019005Y021281D01*
X018729Y021005D01*
X018729Y020616D01*
X019005Y020341D01*
X019394Y020341D01*
X019410Y020357D01*
X019410Y020265D01*
X019394Y020281D01*
X019005Y020281D01*
X018729Y020005D01*
X018729Y019616D01*
X019005Y019341D01*
X019394Y019341D01*
X019410Y019357D01*
X019410Y019265D01*
X019394Y019281D01*
X019005Y019281D01*
X018729Y019005D01*
X018729Y018616D01*
X019005Y018341D01*
X019394Y018341D01*
X019410Y018357D01*
X019410Y018265D01*
X019394Y018281D01*
X019005Y018281D01*
X018729Y018005D01*
X018729Y017616D01*
X019005Y017341D01*
X019394Y017341D01*
X019410Y017357D01*
X019410Y017265D01*
X019394Y017281D01*
X019005Y017281D01*
X018729Y017005D01*
X018729Y016616D01*
X019005Y016341D01*
X019394Y016341D01*
X019410Y016357D01*
X019410Y016265D01*
X019394Y016281D01*
X019005Y016281D01*
X018729Y016005D01*
X018729Y015616D01*
X019005Y015341D01*
X019394Y015341D01*
X019410Y015357D01*
X019410Y015265D01*
X019394Y015281D01*
X019005Y015281D01*
X018729Y015005D01*
X018729Y014616D01*
X019005Y014341D01*
X019394Y014341D01*
X019410Y014357D01*
X019410Y014265D01*
X019394Y014281D01*
X019005Y014281D01*
X018729Y014005D01*
X018729Y013616D01*
X019005Y013341D01*
X019394Y013341D01*
X019410Y013357D01*
X019410Y013265D01*
X019394Y013281D01*
X019005Y013281D01*
X018729Y013005D01*
X018729Y012616D01*
X019005Y012341D01*
X019394Y012341D01*
X019410Y012357D01*
X019410Y012265D01*
X019394Y012281D01*
X019005Y012281D01*
X018729Y012005D01*
X018729Y011616D01*
X019005Y011341D01*
X019394Y011341D01*
X019410Y011357D01*
X019410Y011265D01*
X019394Y011281D01*
X019005Y011281D01*
X018729Y011005D01*
X018729Y010616D01*
X019005Y010341D01*
X019394Y010341D01*
X019410Y010357D01*
X019410Y010265D01*
X019394Y010281D01*
X019005Y010281D01*
X018729Y010005D01*
X018729Y009616D01*
X019005Y009341D01*
X019394Y009341D01*
X019410Y009357D01*
X019410Y009265D01*
X019394Y009281D01*
X019005Y009281D01*
X018729Y009005D01*
X018729Y008616D01*
X019005Y008341D01*
X019394Y008341D01*
X019410Y008357D01*
X019410Y008265D01*
X019394Y008281D01*
X019005Y008281D01*
X018729Y008005D01*
X018729Y007616D01*
X019005Y007341D01*
X019394Y007341D01*
X019410Y007357D01*
X019410Y007265D01*
X019394Y007281D01*
X019005Y007281D01*
X018729Y007005D01*
X018729Y006616D01*
X019005Y006341D01*
X019394Y006341D01*
X019410Y006357D01*
X019410Y006265D01*
X019394Y006281D01*
X019005Y006281D01*
X018729Y006005D01*
X018729Y005616D01*
X019005Y005341D01*
X019394Y005341D01*
X019410Y005357D01*
X019410Y005265D01*
X019394Y005281D01*
X019005Y005281D01*
X018729Y005005D01*
X018729Y004616D01*
X019005Y004341D01*
X019394Y004341D01*
X019410Y004357D01*
X019410Y004265D01*
X019394Y004281D01*
X019005Y004281D01*
X018729Y004005D01*
X018729Y003616D01*
X018730Y003616D01*
X018627Y003616D01*
X018669Y003717D01*
X018669Y003904D01*
X018598Y004077D01*
X018466Y004209D01*
X018293Y004281D01*
X018106Y004281D01*
X017933Y004209D01*
X017801Y004077D01*
X017729Y003904D01*
X017729Y003717D01*
X017772Y003616D01*
X016753Y003616D01*
X016940Y003802D01*
X017045Y004057D01*
X017045Y004333D01*
X016940Y004588D01*
X016745Y004783D01*
X016490Y004889D01*
X016214Y004889D01*
X015959Y004783D01*
X015764Y004588D01*
X015658Y004333D01*
X015658Y004057D01*
X015764Y003802D01*
X015951Y003616D01*
X013406Y003616D01*
X013593Y003802D01*
X013699Y004057D01*
X013699Y004333D01*
X013593Y004588D01*
X013398Y004783D01*
X013143Y004889D01*
X012867Y004889D01*
X012613Y004783D01*
X012418Y004588D01*
X012312Y004333D01*
X012312Y004057D01*
X012418Y003802D01*
X012604Y003616D01*
X008936Y003616D01*
X008964Y003627D01*
X009042Y003672D01*
X009112Y003726D01*
X009175Y003789D01*
X009230Y003860D01*
X009274Y003937D01*
X009308Y004020D01*
X009331Y004106D01*
X009340Y004171D01*
X008731Y004171D01*
X008731Y004306D01*
X009340Y004306D01*
X009331Y004372D01*
X009308Y004458D01*
X009274Y004540D01*
X009230Y004617D01*
X009175Y004688D01*
X009112Y004751D01*
X009042Y004805D01*
X008964Y004850D01*
X008882Y004884D01*
X008796Y004907D01*
X008731Y004916D01*
X008731Y004306D01*
X008595Y004306D01*
X008595Y004171D01*
X007986Y004171D01*
X007995Y004106D01*
X008018Y004020D01*
X008052Y003937D01*
X008096Y003860D01*
X008151Y003789D01*
X008214Y003726D01*
X008284Y003672D01*
X008362Y003627D01*
X008390Y003616D01*
X005669Y003616D01*
X005669Y003616D01*
X005669Y004005D01*
X005394Y004281D01*
X005005Y004281D01*
X004729Y004005D01*
X004729Y003616D01*
X004730Y003616D01*
X004627Y003616D01*
X004669Y003717D01*
X004669Y003904D01*
X004598Y004077D01*
X004466Y004209D01*
X004293Y004281D01*
X004106Y004281D01*
X003989Y004232D01*
X004419Y004365D02*
X004980Y004365D01*
X005005Y004341D02*
X005394Y004341D01*
X005669Y004616D01*
X005669Y005005D01*
X005394Y005281D01*
X005005Y005281D01*
X004729Y005005D01*
X004729Y004616D01*
X005005Y004341D01*
X004931Y004207D02*
X004468Y004207D01*
X004610Y004048D02*
X004772Y004048D01*
X004729Y003890D02*
X004669Y003890D01*
X004669Y003731D02*
X004729Y003731D01*
X004822Y004524D02*
X004577Y004524D01*
X004669Y004682D02*
X004729Y004682D01*
X004729Y004841D02*
X004669Y004841D01*
X004669Y004999D02*
X004729Y004999D01*
X004882Y005158D02*
X004517Y005158D01*
X004528Y005475D02*
X004871Y005475D01*
X005005Y005341D02*
X005394Y005341D01*
X005669Y005616D01*
X005669Y006005D01*
X005394Y006281D01*
X005005Y006281D01*
X004729Y006005D01*
X004729Y005616D01*
X005005Y005341D01*
X004729Y005633D02*
X004669Y005633D01*
X004669Y005792D02*
X004729Y005792D01*
X004729Y005950D02*
X004669Y005950D01*
X004566Y006109D02*
X004833Y006109D01*
X004991Y006267D02*
X004408Y006267D01*
X004479Y006426D02*
X004920Y006426D01*
X005005Y006341D02*
X005394Y006341D01*
X005669Y006616D01*
X005669Y007005D01*
X005394Y007281D01*
X005005Y007281D01*
X004729Y007005D01*
X004729Y006616D01*
X005005Y006341D01*
X004761Y006584D02*
X004638Y006584D01*
X004669Y006743D02*
X004729Y006743D01*
X004729Y006901D02*
X004669Y006901D01*
X004615Y007060D02*
X004784Y007060D01*
X004942Y007218D02*
X004457Y007218D01*
X004430Y007377D02*
X004969Y007377D01*
X005005Y007341D02*
X005394Y007341D01*
X005669Y007616D01*
X005669Y008005D01*
X005394Y008281D01*
X005005Y008281D01*
X004729Y008005D01*
X004729Y007616D01*
X005005Y007341D01*
X004810Y007535D02*
X004589Y007535D01*
X004669Y007694D02*
X004729Y007694D01*
X004729Y007852D02*
X004669Y007852D01*
X004664Y008011D02*
X004735Y008011D01*
X004893Y008169D02*
X004506Y008169D01*
X004540Y008486D02*
X004859Y008486D01*
X004729Y008616D02*
X005005Y008341D01*
X005394Y008341D01*
X005669Y008616D01*
X005669Y009005D01*
X005394Y009281D01*
X005005Y009281D01*
X004729Y009005D01*
X004729Y008616D01*
X004729Y008645D02*
X004669Y008645D01*
X004669Y008803D02*
X004729Y008803D01*
X004729Y008962D02*
X004669Y008962D01*
X004555Y009120D02*
X004844Y009120D01*
X005003Y009279D02*
X004396Y009279D01*
X004491Y009437D02*
X004908Y009437D01*
X005005Y009341D02*
X005394Y009341D01*
X005669Y009616D01*
X005669Y010005D01*
X005394Y010281D01*
X005005Y010281D01*
X004729Y010005D01*
X004729Y009616D01*
X005005Y009341D01*
X004750Y009596D02*
X004649Y009596D01*
X004669Y009754D02*
X004729Y009754D01*
X004729Y009913D02*
X004669Y009913D01*
X004604Y010071D02*
X004795Y010071D01*
X004954Y010230D02*
X004445Y010230D01*
X004442Y010388D02*
X004957Y010388D01*
X005005Y010341D02*
X005394Y010341D01*
X005669Y010616D01*
X005669Y011005D01*
X005394Y011281D01*
X005005Y011281D01*
X004729Y011005D01*
X004729Y010616D01*
X005005Y010341D01*
X004799Y010547D02*
X004600Y010547D01*
X004669Y010705D02*
X004729Y010705D01*
X004729Y010864D02*
X004669Y010864D01*
X004653Y011022D02*
X004746Y011022D01*
X004905Y011181D02*
X004494Y011181D01*
X004551Y011498D02*
X004848Y011498D01*
X004729Y011616D02*
X005005Y011341D01*
X005394Y011341D01*
X005669Y011616D01*
X005669Y012005D01*
X005394Y012281D01*
X005005Y012281D01*
X004729Y012005D01*
X004729Y011616D01*
X004729Y011656D02*
X004669Y011656D01*
X004669Y011815D02*
X004729Y011815D01*
X004729Y011973D02*
X004669Y011973D01*
X004543Y012132D02*
X004856Y012132D01*
X005005Y012341D02*
X005394Y012341D01*
X005669Y012616D01*
X005669Y013005D01*
X005394Y013281D01*
X005005Y013281D01*
X004729Y013005D01*
X004729Y012616D01*
X005005Y012341D01*
X004897Y012449D02*
X004502Y012449D01*
X004661Y012607D02*
X004738Y012607D01*
X004729Y012766D02*
X004669Y012766D01*
X004669Y012924D02*
X004729Y012924D01*
X004807Y013083D02*
X004592Y013083D01*
X004434Y013241D02*
X004965Y013241D01*
X005005Y013341D02*
X005394Y013341D01*
X005669Y013616D01*
X005669Y014005D01*
X005394Y014281D01*
X005005Y014281D01*
X004729Y014005D01*
X004729Y013616D01*
X005005Y013341D01*
X004946Y013400D02*
X004453Y013400D01*
X004612Y013558D02*
X004787Y013558D01*
X004729Y013717D02*
X004669Y013717D01*
X004669Y013875D02*
X004729Y013875D01*
X004758Y014034D02*
X004641Y014034D01*
X004483Y014192D02*
X004916Y014192D01*
X005005Y014341D02*
X005394Y014341D01*
X005669Y014616D01*
X005669Y015005D01*
X005394Y015281D01*
X005005Y015281D01*
X004729Y015005D01*
X004729Y014616D01*
X005005Y014341D01*
X004995Y014351D02*
X004404Y014351D01*
X004563Y014509D02*
X004836Y014509D01*
X004729Y014668D02*
X004669Y014668D01*
X004669Y014826D02*
X004729Y014826D01*
X004729Y014985D02*
X004669Y014985D01*
X004532Y015143D02*
X004867Y015143D01*
X005013Y015361D02*
X004749Y015624D01*
X004749Y015801D01*
X005189Y015801D01*
X005189Y015821D01*
X004749Y015821D01*
X004749Y015997D01*
X005013Y016261D01*
X005189Y016261D01*
X005189Y015821D01*
X005209Y015821D01*
X005209Y016261D01*
X005386Y016261D01*
X005649Y015997D01*
X005649Y015821D01*
X005209Y015821D01*
X005209Y015801D01*
X005209Y015361D01*
X005386Y015361D01*
X005649Y015624D01*
X005649Y015801D01*
X005209Y015801D01*
X005189Y015801D01*
X005189Y015361D01*
X005013Y015361D01*
X004914Y015460D02*
X004514Y015460D01*
X004669Y015619D02*
X004755Y015619D01*
X004749Y015777D02*
X004669Y015777D01*
X004669Y015936D02*
X004749Y015936D01*
X004846Y016094D02*
X004581Y016094D01*
X004422Y016253D02*
X005005Y016253D01*
X005005Y016341D02*
X005394Y016341D01*
X005669Y016616D01*
X005669Y017005D01*
X005394Y017281D01*
X005005Y017281D01*
X004729Y017005D01*
X004729Y016616D01*
X005005Y016341D01*
X004934Y016411D02*
X004465Y016411D01*
X004623Y016570D02*
X004776Y016570D01*
X004729Y016728D02*
X004669Y016728D01*
X004669Y016887D02*
X004729Y016887D01*
X004769Y017045D02*
X004630Y017045D01*
X004471Y017204D02*
X004928Y017204D01*
X005005Y017341D02*
X005394Y017341D01*
X005669Y017616D01*
X005669Y018005D01*
X005394Y018281D01*
X005005Y018281D01*
X004729Y018005D01*
X004729Y017616D01*
X005005Y017341D01*
X004983Y017362D02*
X004416Y017362D01*
X004574Y017521D02*
X004825Y017521D01*
X004729Y017679D02*
X004669Y017679D01*
X004669Y017838D02*
X004729Y017838D01*
X004729Y017996D02*
X004669Y017996D01*
X004520Y018155D02*
X004879Y018155D01*
X005005Y018341D02*
X005394Y018341D01*
X005669Y018616D01*
X005669Y019005D01*
X005394Y019281D01*
X005005Y019281D01*
X004729Y019005D01*
X004729Y018616D01*
X005005Y018341D01*
X004874Y018472D02*
X004525Y018472D01*
X004669Y018630D02*
X004729Y018630D01*
X004729Y018789D02*
X004669Y018789D01*
X004669Y018947D02*
X004729Y018947D01*
X004830Y019106D02*
X004569Y019106D01*
X004411Y019264D02*
X004988Y019264D01*
X005013Y019361D02*
X004749Y019624D01*
X004749Y019801D01*
X005189Y019801D01*
X005189Y019821D01*
X004749Y019821D01*
X004749Y019997D01*
X005013Y020261D01*
X005189Y020261D01*
X005189Y019821D01*
X005209Y019821D01*
X005209Y020261D01*
X005386Y020261D01*
X005649Y019997D01*
X005649Y019821D01*
X005209Y019821D01*
X005209Y019801D01*
X005209Y019361D01*
X005386Y019361D01*
X005649Y019624D01*
X005649Y019801D01*
X005209Y019801D01*
X005189Y019801D01*
X005189Y019361D01*
X005013Y019361D01*
X004951Y019423D02*
X004476Y019423D01*
X004635Y019581D02*
X004793Y019581D01*
X004749Y019740D02*
X004669Y019740D01*
X004669Y019898D02*
X004749Y019898D01*
X004809Y020057D02*
X004618Y020057D01*
X004460Y020215D02*
X004967Y020215D01*
X005005Y020341D02*
X005394Y020341D01*
X005669Y020616D01*
X005669Y021005D01*
X005394Y021281D01*
X005005Y021281D01*
X004729Y021005D01*
X004729Y020616D01*
X005005Y020341D01*
X004972Y020374D02*
X004399Y020374D01*
X004209Y020374D02*
X004189Y020374D01*
X004189Y020532D02*
X004209Y020532D01*
X004209Y020691D02*
X004189Y020691D01*
X004209Y020821D02*
X004649Y020821D01*
X004649Y020997D01*
X004386Y021261D01*
X004209Y021261D01*
X004209Y020821D01*
X004209Y020849D02*
X004189Y020849D01*
X004189Y021008D02*
X004209Y021008D01*
X004209Y021166D02*
X004189Y021166D01*
X003989Y021325D02*
X006928Y021325D01*
X006928Y021267D02*
X006997Y021102D01*
X007124Y020975D01*
X007290Y020906D01*
X007469Y020906D01*
X007635Y020975D01*
X007762Y021102D01*
X007830Y021267D01*
X007830Y021447D01*
X007762Y021613D01*
X007635Y021739D01*
X007469Y021808D01*
X007290Y021808D01*
X007124Y021739D01*
X006997Y021613D01*
X006928Y021447D01*
X006928Y021267D01*
X006970Y021166D02*
X005509Y021166D01*
X005667Y021008D02*
X007091Y021008D01*
X006943Y021483D02*
X003989Y021483D01*
X003989Y021642D02*
X007026Y021642D01*
X007270Y021800D02*
X003989Y021800D01*
X003989Y021959D02*
X006696Y021959D01*
X006542Y022117D02*
X003989Y022117D01*
X003989Y022276D02*
X006478Y022276D01*
X006466Y022434D02*
X003989Y022434D01*
X004480Y021166D02*
X004890Y021166D01*
X004732Y021008D02*
X004639Y021008D01*
X004649Y020849D02*
X004729Y020849D01*
X004729Y020691D02*
X004649Y020691D01*
X004557Y020532D02*
X004813Y020532D01*
X005189Y020215D02*
X005209Y020215D01*
X005209Y020057D02*
X005189Y020057D01*
X005189Y019898D02*
X005209Y019898D01*
X005209Y019740D02*
X005189Y019740D01*
X005189Y019581D02*
X005209Y019581D01*
X005209Y019423D02*
X005189Y019423D01*
X005448Y019423D02*
X010184Y019423D01*
X010184Y019581D02*
X005606Y019581D01*
X005649Y019740D02*
X010184Y019740D01*
X010184Y019898D02*
X005649Y019898D01*
X005590Y020057D02*
X010106Y020057D01*
X010085Y020105D02*
X010143Y019966D01*
X010184Y019926D01*
X010184Y018727D01*
X010036Y018579D01*
X009978Y018579D01*
X009839Y018521D01*
X009733Y018415D01*
X009675Y018276D01*
X009675Y018265D01*
X009307Y018633D01*
X009204Y018676D01*
X007255Y018676D01*
X006932Y018998D01*
X006932Y019056D01*
X006874Y019195D01*
X006768Y019301D01*
X006629Y019359D01*
X006478Y019359D01*
X006339Y019301D01*
X006233Y019195D01*
X006175Y019056D01*
X006175Y018905D01*
X006233Y018766D01*
X006339Y018660D01*
X006478Y018602D01*
X006536Y018602D01*
X006901Y018237D01*
X006980Y018158D01*
X007083Y018116D01*
X009033Y018116D01*
X009516Y017632D01*
X009595Y017553D01*
X009698Y017511D01*
X010274Y017511D01*
X010377Y017553D01*
X011817Y018993D01*
X011896Y019072D01*
X012385Y019561D01*
X013439Y019561D01*
X013479Y019520D01*
X013618Y019462D01*
X013769Y019462D01*
X013908Y019520D01*
X014014Y019626D01*
X014072Y019765D01*
X014072Y019916D01*
X014014Y020055D01*
X013908Y020161D01*
X013769Y020219D01*
X013618Y020219D01*
X013479Y020161D01*
X013439Y020121D01*
X012213Y020121D01*
X012110Y020078D01*
X011778Y019746D01*
X011763Y019761D01*
X011624Y019819D01*
X011473Y019819D01*
X011334Y019761D01*
X011228Y019655D01*
X011170Y019516D01*
X011170Y019365D01*
X011228Y019226D01*
X011243Y019211D01*
X010744Y018712D01*
X010744Y019926D01*
X010784Y019966D01*
X010842Y020105D01*
X010842Y020256D01*
X010784Y020395D01*
X010678Y020501D01*
X010539Y020559D01*
X010388Y020559D01*
X010249Y020501D01*
X010143Y020395D01*
X010085Y020256D01*
X010085Y020105D01*
X010085Y020215D02*
X005431Y020215D01*
X005427Y020374D02*
X010134Y020374D01*
X010324Y020532D02*
X005586Y020532D01*
X005669Y020691D02*
X017749Y020691D01*
X017749Y020821D02*
X018189Y020821D01*
X018189Y021261D01*
X018013Y021261D01*
X017749Y020997D01*
X017749Y020821D01*
X017749Y020849D02*
X005669Y020849D01*
X005411Y019264D02*
X006302Y019264D01*
X006196Y019106D02*
X005569Y019106D01*
X005669Y018947D02*
X006175Y018947D01*
X006224Y018789D02*
X005669Y018789D01*
X005669Y018630D02*
X006412Y018630D01*
X006667Y018472D02*
X005525Y018472D01*
X005520Y018155D02*
X006989Y018155D01*
X006825Y018313D02*
X003989Y018313D01*
X003989Y020374D02*
X004000Y020374D01*
X005669Y017996D02*
X009152Y017996D01*
X009311Y017838D02*
X005669Y017838D01*
X005669Y017679D02*
X009469Y017679D01*
X009334Y017511D02*
X009259Y017436D01*
X009259Y015491D01*
X009259Y013841D01*
X009334Y013766D01*
X009209Y013736D01*
X009094Y013717D02*
X009369Y013717D01*
X009369Y013875D02*
X009094Y013875D01*
X009094Y014034D02*
X009369Y014034D01*
X009369Y014192D02*
X009094Y014192D01*
X009094Y014351D02*
X009369Y014351D01*
X009369Y014509D02*
X009094Y014509D01*
X009094Y014668D02*
X009369Y014668D01*
X009369Y014826D02*
X009094Y014826D01*
X009094Y014985D02*
X009369Y014985D01*
X009369Y015143D02*
X009094Y015143D01*
X009094Y015302D02*
X009369Y015302D01*
X009369Y015460D02*
X009094Y015460D01*
X009094Y015619D02*
X009369Y015619D01*
X009369Y015671D02*
X009369Y012234D01*
X009323Y012234D01*
X009184Y012176D01*
X009078Y012070D01*
X009020Y011931D01*
X009020Y011780D01*
X009078Y011641D01*
X009184Y011535D01*
X009323Y011477D01*
X009474Y011477D01*
X009613Y011535D01*
X009719Y011641D01*
X009777Y011780D01*
X009777Y011838D01*
X009886Y011947D01*
X009929Y012050D01*
X009929Y015671D01*
X009969Y015711D01*
X010027Y015850D01*
X010027Y016001D01*
X009969Y016140D01*
X009863Y016246D01*
X009724Y016304D01*
X009573Y016304D01*
X009434Y016246D01*
X009328Y016140D01*
X009270Y016001D01*
X009270Y015850D01*
X009328Y015711D01*
X009369Y015671D01*
X009301Y015777D02*
X009094Y015777D01*
X009094Y015936D02*
X009270Y015936D01*
X009309Y016094D02*
X009094Y016094D01*
X009094Y016253D02*
X009450Y016253D01*
X009134Y016351D02*
X009192Y016490D01*
X009192Y016641D01*
X009134Y016780D01*
X009028Y016886D01*
X008889Y016944D01*
X008738Y016944D01*
X008599Y016886D01*
X008493Y016780D01*
X008435Y016641D01*
X008435Y016490D01*
X008493Y016351D01*
X008534Y016311D01*
X008534Y013634D01*
X008514Y013626D01*
X008408Y013520D01*
X008350Y013381D01*
X008350Y013230D01*
X008408Y013091D01*
X008514Y012985D01*
X008653Y012927D01*
X008804Y012927D01*
X008943Y012985D01*
X009049Y013091D01*
X009107Y013230D01*
X009107Y013381D01*
X009094Y013412D01*
X009094Y016311D01*
X009134Y016351D01*
X009159Y016411D02*
X012399Y016411D01*
X012399Y016253D02*
X009847Y016253D01*
X009988Y016094D02*
X012399Y016094D01*
X012399Y015936D02*
X010027Y015936D01*
X009996Y015777D02*
X012399Y015777D01*
X012399Y015619D02*
X009929Y015619D01*
X009929Y015460D02*
X012399Y015460D01*
X012399Y015302D02*
X009929Y015302D01*
X009929Y015143D02*
X012399Y015143D01*
X012399Y014985D02*
X009929Y014985D01*
X009929Y014826D02*
X012399Y014826D01*
X012399Y014668D02*
X009929Y014668D01*
X009929Y014509D02*
X012399Y014509D01*
X012399Y014351D02*
X009929Y014351D01*
X009929Y014192D02*
X012399Y014192D01*
X012399Y014034D02*
X009929Y014034D01*
X009929Y013875D02*
X012399Y013875D01*
X012399Y013717D02*
X009929Y013717D01*
X009929Y013558D02*
X012399Y013558D01*
X012399Y013400D02*
X009929Y013400D01*
X009929Y013241D02*
X012399Y013241D01*
X012399Y013083D02*
X009929Y013083D01*
X009929Y012924D02*
X012399Y012924D01*
X012399Y012766D02*
X009929Y012766D01*
X009929Y012607D02*
X012399Y012607D01*
X012399Y012449D02*
X009929Y012449D01*
X009929Y012290D02*
X012399Y012290D01*
X012399Y012132D02*
X009929Y012132D01*
X009897Y011973D02*
X012399Y011973D01*
X012399Y011815D02*
X009777Y011815D01*
X009725Y011656D02*
X012399Y011656D01*
X012399Y011498D02*
X009522Y011498D01*
X009275Y011498D02*
X005551Y011498D01*
X005669Y011656D02*
X009072Y011656D01*
X009020Y011815D02*
X005669Y011815D01*
X005669Y011973D02*
X008487Y011973D01*
X008548Y011947D02*
X008699Y011947D01*
X008838Y012005D01*
X008944Y012111D01*
X009002Y012250D01*
X009002Y012401D01*
X008944Y012540D01*
X008838Y012646D01*
X008699Y012704D01*
X008641Y012704D01*
X008401Y012944D01*
X008401Y012944D01*
X008322Y013023D01*
X008219Y013066D01*
X006985Y013066D01*
X006929Y013122D01*
X006929Y016181D01*
X006969Y016221D01*
X007027Y016360D01*
X007027Y016511D01*
X006969Y016650D01*
X006863Y016756D01*
X006724Y016814D01*
X006573Y016814D01*
X006434Y016756D01*
X006328Y016650D01*
X006270Y016511D01*
X006270Y016360D01*
X006328Y016221D01*
X006369Y016181D01*
X006369Y012950D01*
X006411Y012847D01*
X006631Y012627D01*
X006710Y012548D01*
X006813Y012506D01*
X008048Y012506D01*
X008245Y012308D01*
X008245Y012250D01*
X008303Y012111D01*
X008409Y012005D01*
X008548Y011947D01*
X008761Y011973D02*
X009038Y011973D01*
X008952Y012132D02*
X009140Y012132D01*
X009002Y012290D02*
X009369Y012290D01*
X009369Y012449D02*
X008982Y012449D01*
X008877Y012607D02*
X009369Y012607D01*
X009369Y012766D02*
X008580Y012766D01*
X008421Y012924D02*
X009369Y012924D01*
X009369Y013083D02*
X009040Y013083D01*
X009107Y013241D02*
X009369Y013241D01*
X009369Y013400D02*
X009099Y013400D01*
X009094Y013558D02*
X009369Y013558D01*
X008814Y013391D02*
X008814Y016566D01*
X009192Y016570D02*
X012399Y016570D01*
X012399Y016728D02*
X009156Y016728D01*
X009027Y016887D02*
X012399Y016887D01*
X012399Y017045D02*
X005630Y017045D01*
X005669Y016887D02*
X008601Y016887D01*
X008472Y016728D02*
X006891Y016728D01*
X007002Y016570D02*
X008435Y016570D01*
X008468Y016411D02*
X007027Y016411D01*
X006982Y016253D02*
X008534Y016253D01*
X008534Y016094D02*
X006929Y016094D01*
X006929Y015936D02*
X008534Y015936D01*
X008534Y015777D02*
X006929Y015777D01*
X006929Y015619D02*
X008534Y015619D01*
X008534Y015460D02*
X006929Y015460D01*
X006929Y015302D02*
X008534Y015302D01*
X008534Y015143D02*
X006929Y015143D01*
X006929Y014985D02*
X008534Y014985D01*
X008534Y014826D02*
X006929Y014826D01*
X006929Y014668D02*
X008534Y014668D01*
X008534Y014509D02*
X006929Y014509D01*
X006929Y014351D02*
X008534Y014351D01*
X008534Y014192D02*
X006929Y014192D01*
X006929Y014034D02*
X008534Y014034D01*
X008534Y013875D02*
X006929Y013875D01*
X006929Y013717D02*
X008534Y013717D01*
X008446Y013558D02*
X006929Y013558D01*
X006929Y013400D02*
X008358Y013400D01*
X008350Y013241D02*
X006929Y013241D01*
X006968Y013083D02*
X008417Y013083D01*
X008729Y013306D02*
X008814Y013391D01*
X008164Y012786D02*
X008624Y012326D01*
X008245Y012290D02*
X003989Y012290D01*
X003989Y011339D02*
X012399Y011339D01*
X012399Y011181D02*
X005494Y011181D01*
X005653Y011022D02*
X012399Y011022D01*
X012399Y010864D02*
X005669Y010864D01*
X005669Y010705D02*
X012399Y010705D01*
X012399Y010547D02*
X005600Y010547D01*
X005442Y010388D02*
X012399Y010388D01*
X012399Y010230D02*
X005445Y010230D01*
X005604Y010071D02*
X012399Y010071D01*
X012399Y009913D02*
X005669Y009913D01*
X005669Y009754D02*
X012399Y009754D01*
X012399Y009600D02*
X012441Y009497D01*
X014454Y007485D01*
X014454Y006245D01*
X014196Y006139D01*
X013956Y005899D01*
X013826Y005585D01*
X013826Y005246D01*
X013956Y004933D01*
X014196Y004693D01*
X014509Y004563D01*
X014848Y004563D01*
X015162Y004693D01*
X015402Y004933D01*
X015531Y005246D01*
X015531Y005585D01*
X015402Y005899D01*
X015162Y006139D01*
X015014Y006200D01*
X015014Y007656D01*
X014971Y007759D01*
X014892Y007838D01*
X012959Y009772D01*
X012959Y018861D01*
X012999Y018901D01*
X013057Y019040D01*
X013057Y019191D01*
X012999Y019330D01*
X012893Y019436D01*
X012754Y019494D01*
X012603Y019494D01*
X012464Y019436D01*
X012358Y019330D01*
X012300Y019191D01*
X012300Y019040D01*
X012358Y018901D01*
X012399Y018861D01*
X012399Y009600D01*
X012400Y009596D02*
X005649Y009596D01*
X005491Y009437D02*
X012501Y009437D01*
X012660Y009279D02*
X005396Y009279D01*
X005555Y009120D02*
X012818Y009120D01*
X012977Y008962D02*
X005669Y008962D01*
X005669Y008803D02*
X013135Y008803D01*
X013294Y008645D02*
X005669Y008645D01*
X005540Y008486D02*
X013452Y008486D01*
X013611Y008328D02*
X003989Y008328D01*
X003989Y009279D02*
X004003Y009279D01*
X005506Y008169D02*
X013769Y008169D01*
X013928Y008011D02*
X005664Y008011D01*
X005669Y007852D02*
X014086Y007852D01*
X014245Y007694D02*
X013363Y007694D01*
X013385Y007691D02*
X013302Y007702D01*
X013302Y006952D01*
X014051Y006952D01*
X014040Y007035D01*
X014012Y007141D01*
X013970Y007241D01*
X013916Y007336D01*
X013849Y007423D01*
X013772Y007500D01*
X013686Y007566D01*
X013591Y007621D01*
X013490Y007663D01*
X013385Y007691D01*
X013302Y007694D02*
X013142Y007694D01*
X013142Y007702D02*
X013059Y007691D01*
X012954Y007663D01*
X012853Y007621D01*
X012758Y007566D01*
X012672Y007500D01*
X012594Y007423D01*
X012528Y007336D01*
X012473Y007241D01*
X012432Y007141D01*
X012403Y007035D01*
X012392Y006952D01*
X013142Y006952D01*
X013142Y006792D01*
X013302Y006792D01*
X013302Y006043D01*
X013385Y006054D01*
X013490Y006082D01*
X013591Y006124D01*
X013686Y006178D01*
X013772Y006245D01*
X013849Y006322D01*
X013916Y006409D01*
X013970Y006503D01*
X014012Y006604D01*
X014040Y006709D01*
X014051Y006792D01*
X013302Y006792D01*
X013302Y006952D01*
X013142Y006952D01*
X013142Y007702D01*
X013080Y007694D02*
X005669Y007694D01*
X005589Y007535D02*
X012718Y007535D01*
X012559Y007377D02*
X005430Y007377D01*
X005457Y007218D02*
X012464Y007218D01*
X012410Y007060D02*
X005615Y007060D01*
X005669Y006901D02*
X013142Y006901D01*
X013142Y006792D02*
X012392Y006792D01*
X012403Y006709D01*
X012432Y006604D01*
X012473Y006503D01*
X012528Y006409D01*
X012594Y006322D01*
X012672Y006245D01*
X012758Y006178D01*
X012853Y006124D01*
X012954Y006082D01*
X013059Y006054D01*
X013142Y006043D01*
X013142Y006792D01*
X013142Y006743D02*
X013302Y006743D01*
X013302Y006901D02*
X014454Y006901D01*
X014454Y006743D02*
X014045Y006743D01*
X014004Y006584D02*
X014454Y006584D01*
X014454Y006426D02*
X013926Y006426D01*
X013794Y006267D02*
X014454Y006267D01*
X014166Y006109D02*
X013554Y006109D01*
X013302Y006109D02*
X013142Y006109D01*
X013142Y006267D02*
X013302Y006267D01*
X013302Y006426D02*
X013142Y006426D01*
X013142Y006584D02*
X013302Y006584D01*
X013302Y007060D02*
X013142Y007060D01*
X013142Y007218D02*
X013302Y007218D01*
X013302Y007377D02*
X013142Y007377D01*
X013142Y007535D02*
X013302Y007535D01*
X013726Y007535D02*
X014403Y007535D01*
X014454Y007377D02*
X013885Y007377D01*
X013980Y007218D02*
X014454Y007218D01*
X014454Y007060D02*
X014034Y007060D01*
X014734Y007601D02*
X014734Y005471D01*
X014679Y005416D01*
X015192Y006109D02*
X015803Y006109D01*
X015766Y006124D02*
X015867Y006082D01*
X015972Y006054D01*
X016055Y006043D01*
X016055Y006792D01*
X015306Y006792D01*
X015317Y006709D01*
X015345Y006604D01*
X015387Y006503D01*
X015441Y006409D01*
X015508Y006322D01*
X015585Y006245D01*
X015672Y006178D01*
X015766Y006124D01*
X015563Y006267D02*
X015014Y006267D01*
X015014Y006426D02*
X015432Y006426D01*
X015353Y006584D02*
X015014Y006584D01*
X015014Y006743D02*
X015312Y006743D01*
X015306Y006952D02*
X016055Y006952D01*
X016055Y006792D01*
X016215Y006792D01*
X016215Y006043D01*
X016298Y006054D01*
X016404Y006082D01*
X016504Y006124D01*
X016599Y006178D01*
X016686Y006245D01*
X016763Y006322D01*
X016829Y006409D01*
X016884Y006503D01*
X016926Y006604D01*
X016954Y006709D01*
X016965Y006792D01*
X016215Y006792D01*
X016215Y006952D01*
X016055Y006952D01*
X016055Y007702D01*
X015972Y007691D01*
X015867Y007663D01*
X015766Y007621D01*
X015672Y007566D01*
X015585Y007500D01*
X015508Y007423D01*
X015441Y007336D01*
X015387Y007241D01*
X015345Y007141D01*
X015317Y007035D01*
X015306Y006952D01*
X015323Y007060D02*
X015014Y007060D01*
X015014Y007218D02*
X015377Y007218D01*
X015473Y007377D02*
X015014Y007377D01*
X015014Y007535D02*
X015631Y007535D01*
X015994Y007694D02*
X014998Y007694D01*
X014878Y007852D02*
X017729Y007852D01*
X017729Y008005D02*
X017729Y007616D01*
X018005Y007341D01*
X018394Y007341D01*
X018669Y007616D01*
X018669Y008005D01*
X018394Y008281D01*
X018005Y008281D01*
X017729Y008005D01*
X017735Y008011D02*
X014720Y008011D01*
X014561Y008169D02*
X017893Y008169D01*
X018005Y008341D02*
X018394Y008341D01*
X018669Y008616D01*
X018669Y009005D01*
X018394Y009281D01*
X018005Y009281D01*
X017729Y009005D01*
X017729Y008616D01*
X018005Y008341D01*
X017859Y008486D02*
X014244Y008486D01*
X014403Y008328D02*
X019410Y008328D01*
X018893Y008169D02*
X018506Y008169D01*
X018664Y008011D02*
X018735Y008011D01*
X018729Y007852D02*
X018669Y007852D01*
X018669Y007694D02*
X018729Y007694D01*
X018810Y007535D02*
X018589Y007535D01*
X018430Y007377D02*
X018969Y007377D01*
X018942Y007218D02*
X018457Y007218D01*
X018394Y007281D02*
X018669Y007005D01*
X018669Y006616D01*
X018394Y006341D01*
X018005Y006341D01*
X017729Y006616D01*
X017729Y007005D01*
X018005Y007281D01*
X018394Y007281D01*
X018615Y007060D02*
X018784Y007060D01*
X018729Y006901D02*
X018669Y006901D01*
X018669Y006743D02*
X018729Y006743D01*
X018761Y006584D02*
X018638Y006584D01*
X018479Y006426D02*
X018920Y006426D01*
X018991Y006267D02*
X018408Y006267D01*
X018394Y006281D02*
X018005Y006281D01*
X017729Y006005D01*
X017729Y005616D01*
X018005Y005341D01*
X018394Y005341D01*
X018669Y005616D01*
X018669Y006005D01*
X018394Y006281D01*
X018566Y006109D02*
X018833Y006109D01*
X018729Y005950D02*
X018669Y005950D01*
X018669Y005792D02*
X018729Y005792D01*
X018729Y005633D02*
X018669Y005633D01*
X018528Y005475D02*
X018871Y005475D01*
X018882Y005158D02*
X018517Y005158D01*
X018394Y005281D02*
X018669Y005005D01*
X018669Y004616D01*
X018394Y004341D01*
X018005Y004341D01*
X017729Y004616D01*
X017729Y005005D01*
X018005Y005281D01*
X018394Y005281D01*
X018669Y004999D02*
X018729Y004999D01*
X018729Y004841D02*
X018669Y004841D01*
X018669Y004682D02*
X018729Y004682D01*
X018822Y004524D02*
X018577Y004524D01*
X018419Y004365D02*
X018980Y004365D01*
X018931Y004207D02*
X018468Y004207D01*
X018610Y004048D02*
X018772Y004048D01*
X018729Y003890D02*
X018669Y003890D01*
X018669Y003731D02*
X018729Y003731D01*
X017931Y004207D02*
X017045Y004207D01*
X017032Y004365D02*
X017980Y004365D01*
X017822Y004524D02*
X016966Y004524D01*
X016845Y004682D02*
X017729Y004682D01*
X017729Y004841D02*
X016605Y004841D01*
X016098Y004841D02*
X015310Y004841D01*
X015429Y004999D02*
X017729Y004999D01*
X017882Y005158D02*
X015495Y005158D01*
X015531Y005316D02*
X019410Y005316D01*
X019408Y006267D02*
X019410Y006267D01*
X017991Y006267D02*
X016708Y006267D01*
X016839Y006426D02*
X017920Y006426D01*
X017761Y006584D02*
X016917Y006584D01*
X016958Y006743D02*
X017729Y006743D01*
X017729Y006901D02*
X016215Y006901D01*
X016215Y006952D02*
X016965Y006952D01*
X016954Y007035D01*
X016926Y007141D01*
X016884Y007241D01*
X016829Y007336D01*
X016763Y007423D01*
X016686Y007500D01*
X016599Y007566D01*
X016504Y007621D01*
X016404Y007663D01*
X016298Y007691D01*
X016215Y007702D01*
X016215Y006952D01*
X016215Y007060D02*
X016055Y007060D01*
X016055Y007218D02*
X016215Y007218D01*
X016215Y007377D02*
X016055Y007377D01*
X016055Y007535D02*
X016215Y007535D01*
X016215Y007694D02*
X016055Y007694D01*
X016277Y007694D02*
X017729Y007694D01*
X017810Y007535D02*
X016639Y007535D01*
X016798Y007377D02*
X017969Y007377D01*
X017942Y007218D02*
X016893Y007218D01*
X016947Y007060D02*
X017784Y007060D01*
X017833Y006109D02*
X016468Y006109D01*
X016215Y006109D02*
X016055Y006109D01*
X016055Y006267D02*
X016215Y006267D01*
X016215Y006426D02*
X016055Y006426D01*
X016055Y006584D02*
X016215Y006584D01*
X016215Y006743D02*
X016055Y006743D01*
X016055Y006901D02*
X015014Y006901D01*
X014734Y007601D02*
X012679Y009656D01*
X012679Y019116D01*
X013018Y018947D02*
X017729Y018947D01*
X017729Y019005D02*
X017729Y018616D01*
X018005Y018341D01*
X018394Y018341D01*
X018669Y018616D01*
X018669Y019005D01*
X018394Y019281D01*
X018005Y019281D01*
X017729Y019005D01*
X017830Y019106D02*
X013057Y019106D01*
X013026Y019264D02*
X017988Y019264D01*
X018005Y019341D02*
X018394Y019341D01*
X018669Y019616D01*
X018669Y020005D01*
X018394Y020281D01*
X018005Y020281D01*
X017729Y020005D01*
X017729Y019616D01*
X018005Y019341D01*
X017923Y019423D02*
X012906Y019423D01*
X012451Y019423D02*
X012247Y019423D01*
X012331Y019264D02*
X012088Y019264D01*
X011930Y019106D02*
X012300Y019106D01*
X012339Y018947D02*
X011771Y018947D01*
X011613Y018789D02*
X012399Y018789D01*
X012399Y018630D02*
X011454Y018630D01*
X011296Y018472D02*
X012399Y018472D01*
X012399Y018313D02*
X011137Y018313D01*
X010979Y018155D02*
X012399Y018155D01*
X012399Y017996D02*
X010820Y017996D01*
X010662Y017838D02*
X012399Y017838D01*
X012399Y017679D02*
X010503Y017679D01*
X010298Y017521D02*
X012399Y017521D01*
X012399Y017362D02*
X005416Y017362D01*
X005471Y017204D02*
X012399Y017204D01*
X012959Y017204D02*
X017928Y017204D01*
X018005Y017281D02*
X017729Y017005D01*
X017729Y016616D01*
X018005Y016341D01*
X018394Y016341D01*
X018669Y016616D01*
X018669Y017005D01*
X018394Y017281D01*
X018005Y017281D01*
X018005Y017341D02*
X018394Y017341D01*
X018669Y017616D01*
X018669Y018005D01*
X018394Y018281D01*
X018005Y018281D01*
X017729Y018005D01*
X017729Y017616D01*
X018005Y017341D01*
X017983Y017362D02*
X012959Y017362D01*
X012959Y017521D02*
X017825Y017521D01*
X017729Y017679D02*
X012959Y017679D01*
X012959Y017838D02*
X017729Y017838D01*
X017729Y017996D02*
X012959Y017996D01*
X012959Y018155D02*
X017879Y018155D01*
X017874Y018472D02*
X012959Y018472D01*
X012959Y018630D02*
X017729Y018630D01*
X017729Y018789D02*
X012959Y018789D01*
X012959Y018313D02*
X019410Y018313D01*
X018879Y018155D02*
X018520Y018155D01*
X018669Y017996D02*
X018729Y017996D01*
X018729Y017838D02*
X018669Y017838D01*
X018669Y017679D02*
X018729Y017679D01*
X018825Y017521D02*
X018574Y017521D01*
X018416Y017362D02*
X018983Y017362D01*
X018928Y017204D02*
X018471Y017204D01*
X018630Y017045D02*
X018769Y017045D01*
X018729Y016887D02*
X018669Y016887D01*
X018669Y016728D02*
X018729Y016728D01*
X018776Y016570D02*
X018623Y016570D01*
X018465Y016411D02*
X018934Y016411D01*
X018977Y016253D02*
X018422Y016253D01*
X018394Y016281D02*
X018005Y016281D01*
X017729Y016005D01*
X017729Y015616D01*
X018005Y015341D01*
X018394Y015341D01*
X018669Y015616D01*
X018669Y016005D01*
X018394Y016281D01*
X018581Y016094D02*
X018818Y016094D01*
X018729Y015936D02*
X018669Y015936D01*
X018669Y015777D02*
X018729Y015777D01*
X018729Y015619D02*
X018669Y015619D01*
X018514Y015460D02*
X018885Y015460D01*
X018867Y015143D02*
X018532Y015143D01*
X018669Y015005D02*
X018394Y015281D01*
X018005Y015281D01*
X017729Y015005D01*
X017729Y014616D01*
X018005Y014341D01*
X018394Y014341D01*
X018669Y014616D01*
X018669Y015005D01*
X018669Y014985D02*
X018729Y014985D01*
X018729Y014826D02*
X018669Y014826D01*
X018669Y014668D02*
X018729Y014668D01*
X018836Y014509D02*
X018563Y014509D01*
X018404Y014351D02*
X018995Y014351D01*
X018916Y014192D02*
X018483Y014192D01*
X018394Y014281D02*
X018005Y014281D01*
X017729Y014005D01*
X017729Y013616D01*
X018005Y013341D01*
X018394Y013341D01*
X018669Y013616D01*
X018669Y014005D01*
X018394Y014281D01*
X018641Y014034D02*
X018758Y014034D01*
X018729Y013875D02*
X018669Y013875D01*
X018669Y013717D02*
X018729Y013717D01*
X018787Y013558D02*
X018612Y013558D01*
X018453Y013400D02*
X018946Y013400D01*
X018965Y013241D02*
X018434Y013241D01*
X018394Y013281D02*
X018669Y013005D01*
X018669Y012616D01*
X018394Y012341D01*
X018005Y012341D01*
X017729Y012616D01*
X017729Y013005D01*
X018005Y013281D01*
X018394Y013281D01*
X018592Y013083D02*
X018807Y013083D01*
X018729Y012924D02*
X018669Y012924D01*
X018669Y012766D02*
X018729Y012766D01*
X018738Y012607D02*
X018661Y012607D01*
X018502Y012449D02*
X018897Y012449D01*
X018856Y012132D02*
X018543Y012132D01*
X018669Y012005D02*
X018394Y012281D01*
X018005Y012281D01*
X017729Y012005D01*
X017729Y011616D01*
X018005Y011341D01*
X018394Y011341D01*
X018669Y011616D01*
X018669Y012005D01*
X018669Y011973D02*
X018729Y011973D01*
X018729Y011815D02*
X018669Y011815D01*
X018669Y011656D02*
X018729Y011656D01*
X018848Y011498D02*
X018551Y011498D01*
X018386Y011261D02*
X018209Y011261D01*
X018209Y010821D01*
X018189Y010821D01*
X018189Y010801D01*
X017749Y010801D01*
X017749Y010624D01*
X018013Y010361D01*
X018189Y010361D01*
X018189Y010801D01*
X018209Y010801D01*
X018209Y010361D01*
X018386Y010361D01*
X018649Y010624D01*
X018649Y010801D01*
X018209Y010801D01*
X018209Y010821D01*
X018649Y010821D01*
X018649Y010997D01*
X018386Y011261D01*
X018466Y011181D02*
X018905Y011181D01*
X018746Y011022D02*
X018624Y011022D01*
X018649Y010864D02*
X018729Y010864D01*
X018729Y010705D02*
X018649Y010705D01*
X018572Y010547D02*
X018799Y010547D01*
X018957Y010388D02*
X018413Y010388D01*
X018394Y010281D02*
X018005Y010281D01*
X017729Y010005D01*
X017729Y009616D01*
X018005Y009341D01*
X018394Y009341D01*
X018669Y009616D01*
X018669Y010005D01*
X018394Y010281D01*
X018445Y010230D02*
X018954Y010230D01*
X018795Y010071D02*
X018604Y010071D01*
X018669Y009913D02*
X018729Y009913D01*
X018729Y009754D02*
X018669Y009754D01*
X018649Y009596D02*
X018750Y009596D01*
X018908Y009437D02*
X018491Y009437D01*
X018396Y009279D02*
X019003Y009279D01*
X018844Y009120D02*
X018555Y009120D01*
X018669Y008962D02*
X018729Y008962D01*
X018729Y008803D02*
X018669Y008803D01*
X018669Y008645D02*
X018729Y008645D01*
X018859Y008486D02*
X018540Y008486D01*
X017844Y009120D02*
X013610Y009120D01*
X013769Y008962D02*
X017729Y008962D01*
X017729Y008803D02*
X013927Y008803D01*
X014086Y008645D02*
X017729Y008645D01*
X018003Y009279D02*
X013452Y009279D01*
X013293Y009437D02*
X017908Y009437D01*
X017750Y009596D02*
X013135Y009596D01*
X012976Y009754D02*
X017729Y009754D01*
X017729Y009913D02*
X012959Y009913D01*
X012959Y010071D02*
X017795Y010071D01*
X017954Y010230D02*
X012959Y010230D01*
X012959Y010388D02*
X017986Y010388D01*
X018189Y010388D02*
X018209Y010388D01*
X018209Y010547D02*
X018189Y010547D01*
X018189Y010705D02*
X018209Y010705D01*
X018189Y010821D02*
X017749Y010821D01*
X017749Y010997D01*
X018013Y011261D01*
X018189Y011261D01*
X018189Y010821D01*
X018189Y010864D02*
X018209Y010864D01*
X018209Y011022D02*
X018189Y011022D01*
X018189Y011181D02*
X018209Y011181D01*
X017933Y011181D02*
X012959Y011181D01*
X012959Y011339D02*
X019410Y011339D01*
X019410Y012290D02*
X012959Y012290D01*
X012959Y012132D02*
X017856Y012132D01*
X017729Y011973D02*
X012959Y011973D01*
X012959Y011815D02*
X017729Y011815D01*
X017729Y011656D02*
X012959Y011656D01*
X012959Y011498D02*
X017848Y011498D01*
X017774Y011022D02*
X012959Y011022D01*
X012959Y010864D02*
X017749Y010864D01*
X017749Y010705D02*
X012959Y010705D01*
X012959Y010547D02*
X017827Y010547D01*
X017897Y012449D02*
X012959Y012449D01*
X012959Y012607D02*
X017738Y012607D01*
X017729Y012766D02*
X012959Y012766D01*
X012959Y012924D02*
X017729Y012924D01*
X017807Y013083D02*
X012959Y013083D01*
X012959Y013241D02*
X017965Y013241D01*
X017946Y013400D02*
X012959Y013400D01*
X012959Y013558D02*
X017787Y013558D01*
X017729Y013717D02*
X012959Y013717D01*
X012959Y013875D02*
X017729Y013875D01*
X017758Y014034D02*
X012959Y014034D01*
X012959Y014192D02*
X017916Y014192D01*
X017995Y014351D02*
X012959Y014351D01*
X012959Y014509D02*
X017836Y014509D01*
X017729Y014668D02*
X012959Y014668D01*
X012959Y014826D02*
X017729Y014826D01*
X017729Y014985D02*
X012959Y014985D01*
X012959Y015143D02*
X017867Y015143D01*
X017885Y015460D02*
X012959Y015460D01*
X012959Y015302D02*
X019410Y015302D01*
X019404Y014351D02*
X019410Y014351D01*
X017977Y016253D02*
X012959Y016253D01*
X012959Y016411D02*
X017934Y016411D01*
X017776Y016570D02*
X012959Y016570D01*
X012959Y016728D02*
X017729Y016728D01*
X017729Y016887D02*
X012959Y016887D01*
X012959Y017045D02*
X017769Y017045D01*
X017818Y016094D02*
X012959Y016094D01*
X012959Y015936D02*
X017729Y015936D01*
X017729Y015777D02*
X012959Y015777D01*
X012959Y015619D02*
X017729Y015619D01*
X018525Y018472D02*
X018874Y018472D01*
X018729Y018630D02*
X018669Y018630D01*
X018669Y018789D02*
X018729Y018789D01*
X018729Y018947D02*
X018669Y018947D01*
X018569Y019106D02*
X018830Y019106D01*
X018988Y019264D02*
X018411Y019264D01*
X018476Y019423D02*
X018923Y019423D01*
X018764Y019581D02*
X018635Y019581D01*
X018669Y019740D02*
X018729Y019740D01*
X018729Y019898D02*
X018669Y019898D01*
X018618Y020057D02*
X018781Y020057D01*
X018939Y020215D02*
X018460Y020215D01*
X018399Y020374D02*
X018972Y020374D01*
X018813Y020532D02*
X018557Y020532D01*
X018649Y020691D02*
X018729Y020691D01*
X018729Y020849D02*
X018649Y020849D01*
X018639Y021008D02*
X018732Y021008D01*
X018890Y021166D02*
X018480Y021166D01*
X018209Y021166D02*
X018189Y021166D01*
X018189Y021008D02*
X018209Y021008D01*
X018209Y020849D02*
X018189Y020849D01*
X018199Y020811D02*
X018199Y020811D01*
X018189Y020691D02*
X018209Y020691D01*
X018209Y020532D02*
X018189Y020532D01*
X018189Y020374D02*
X018209Y020374D01*
X018000Y020374D02*
X010793Y020374D01*
X010842Y020215D02*
X013610Y020215D01*
X013777Y020215D02*
X017939Y020215D01*
X017781Y020057D02*
X014012Y020057D01*
X014072Y019898D02*
X017729Y019898D01*
X017729Y019740D02*
X014061Y019740D01*
X013969Y019581D02*
X017764Y019581D01*
X017842Y020532D02*
X010603Y020532D01*
X010464Y020181D02*
X010464Y018611D01*
X010054Y018201D01*
X010219Y017791D02*
X011659Y019231D01*
X011549Y019341D01*
X011549Y019441D01*
X011659Y019231D02*
X012269Y019841D01*
X013694Y019841D01*
X012089Y020057D02*
X010821Y020057D01*
X010744Y019898D02*
X011930Y019898D01*
X011313Y019740D02*
X010744Y019740D01*
X010744Y019581D02*
X011198Y019581D01*
X011170Y019423D02*
X010744Y019423D01*
X010744Y019264D02*
X011212Y019264D01*
X011138Y019106D02*
X010744Y019106D01*
X010744Y018947D02*
X010979Y018947D01*
X010821Y018789D02*
X010744Y018789D01*
X010184Y018789D02*
X007142Y018789D01*
X006983Y018947D02*
X010184Y018947D01*
X010184Y019106D02*
X006911Y019106D01*
X006805Y019264D02*
X010184Y019264D01*
X010087Y018630D02*
X009310Y018630D01*
X009469Y018472D02*
X009790Y018472D01*
X009691Y018313D02*
X009627Y018313D01*
X009149Y018396D02*
X009754Y017791D01*
X010219Y017791D01*
X009674Y017521D02*
X005574Y017521D01*
X005669Y016728D02*
X006406Y016728D01*
X006295Y016570D02*
X005623Y016570D01*
X005465Y016411D02*
X006270Y016411D01*
X006315Y016253D02*
X005394Y016253D01*
X005209Y016253D02*
X005189Y016253D01*
X005189Y016094D02*
X005209Y016094D01*
X005209Y015936D02*
X005189Y015936D01*
X005189Y015777D02*
X005209Y015777D01*
X005209Y015619D02*
X005189Y015619D01*
X005189Y015460D02*
X005209Y015460D01*
X005485Y015460D02*
X006369Y015460D01*
X006369Y015302D02*
X003989Y015302D01*
X003989Y014351D02*
X003995Y014351D01*
X005404Y014351D02*
X006369Y014351D01*
X006369Y014509D02*
X005563Y014509D01*
X005669Y014668D02*
X006369Y014668D01*
X006369Y014826D02*
X005669Y014826D01*
X005669Y014985D02*
X006369Y014985D01*
X006369Y015143D02*
X005532Y015143D01*
X005644Y015619D02*
X006369Y015619D01*
X006369Y015777D02*
X005649Y015777D01*
X005649Y015936D02*
X006369Y015936D01*
X006369Y016094D02*
X005552Y016094D01*
X006649Y016436D02*
X006649Y013006D01*
X006869Y012786D01*
X008164Y012786D01*
X008105Y012449D02*
X005502Y012449D01*
X005661Y012607D02*
X006651Y012607D01*
X006493Y012766D02*
X005669Y012766D01*
X005669Y012924D02*
X006379Y012924D01*
X006369Y013083D02*
X005592Y013083D01*
X005434Y013241D02*
X006369Y013241D01*
X006369Y013400D02*
X005453Y013400D01*
X005612Y013558D02*
X006369Y013558D01*
X006369Y013717D02*
X005669Y013717D01*
X005669Y013875D02*
X006369Y013875D01*
X006369Y014034D02*
X005641Y014034D01*
X005483Y014192D02*
X006369Y014192D01*
X005543Y012132D02*
X008295Y012132D01*
X009399Y011856D02*
X009649Y012106D01*
X009649Y015926D01*
X009149Y018396D02*
X007139Y018396D01*
X006554Y018981D01*
X007668Y021008D02*
X009060Y021008D01*
X009092Y020975D02*
X009258Y020906D01*
X009438Y020906D01*
X009603Y020975D01*
X009730Y021102D01*
X009799Y021267D01*
X009799Y021447D01*
X009730Y021613D01*
X009603Y021739D01*
X009438Y021808D01*
X009258Y021808D01*
X009092Y021739D01*
X008966Y021613D01*
X008897Y021447D01*
X008897Y021267D01*
X008966Y021102D01*
X009092Y020975D01*
X008939Y021166D02*
X007788Y021166D01*
X007830Y021325D02*
X008897Y021325D01*
X008912Y021483D02*
X007815Y021483D01*
X007733Y021642D02*
X008995Y021642D01*
X009239Y021800D02*
X007488Y021800D01*
X007275Y021959D02*
X009452Y021959D01*
X009469Y021946D02*
X009542Y021909D01*
X009620Y021884D01*
X009701Y021871D01*
X009708Y021871D01*
X009708Y022357D01*
X009222Y022357D01*
X009222Y022350D01*
X009235Y022269D01*
X009260Y022191D01*
X009297Y022118D01*
X009345Y022052D01*
X009403Y021994D01*
X009469Y021946D01*
X009457Y021800D02*
X017873Y021800D01*
X017897Y021890D02*
X017897Y021890D01*
X017965Y021959D02*
X010031Y021959D01*
X010185Y022117D02*
X018103Y022117D01*
X017997Y022010D02*
X017997Y022010D01*
X017981Y021990D02*
X017981Y021990D01*
X018086Y022276D02*
X010249Y022276D01*
X010261Y022434D02*
X017969Y022434D01*
X017892Y021642D02*
X009701Y021642D01*
X009784Y021483D02*
X018013Y021483D01*
X018157Y021325D02*
X009799Y021325D01*
X009757Y021166D02*
X017918Y021166D01*
X017760Y021008D02*
X009636Y021008D01*
X009708Y021959D02*
X009775Y021959D01*
X009775Y022117D02*
X009708Y022117D01*
X009708Y022276D02*
X009775Y022276D01*
X009298Y022117D02*
X007429Y022117D01*
X007493Y022276D02*
X009234Y022276D01*
X009222Y022434D02*
X007505Y022434D01*
X007019Y022276D02*
X006952Y022276D01*
X006952Y022117D02*
X007019Y022117D01*
X007019Y021959D02*
X006952Y021959D01*
X006783Y006850D02*
X006527Y006850D01*
X006291Y006752D01*
X006110Y006571D01*
X006012Y006335D01*
X006012Y006079D01*
X006110Y005843D01*
X006291Y005662D01*
X006527Y005564D01*
X006783Y005564D01*
X007019Y005662D01*
X007187Y005829D01*
X007354Y005662D01*
X007590Y005564D01*
X007846Y005564D01*
X008082Y005662D01*
X008238Y005818D01*
X008337Y005719D01*
X008549Y005632D01*
X008777Y005632D01*
X008989Y005719D01*
X009088Y005818D01*
X009244Y005662D01*
X009480Y005564D01*
X009736Y005564D01*
X009972Y005662D01*
X010139Y005829D01*
X010307Y005662D01*
X010543Y005564D01*
X010799Y005564D01*
X011035Y005662D01*
X011216Y005843D01*
X011314Y006079D01*
X011314Y006335D01*
X011216Y006571D01*
X011035Y006752D01*
X010799Y006850D01*
X010543Y006850D01*
X010307Y006752D01*
X010139Y006585D01*
X009972Y006752D01*
X009736Y006850D01*
X009480Y006850D01*
X009244Y006752D01*
X009088Y006596D01*
X008989Y006695D01*
X008777Y006782D01*
X008549Y006782D01*
X008337Y006695D01*
X008238Y006596D01*
X008082Y006752D01*
X007846Y006850D01*
X007590Y006850D01*
X007354Y006752D01*
X007187Y006585D01*
X007019Y006752D01*
X006783Y006850D01*
X007029Y006743D02*
X007344Y006743D01*
X007224Y005792D02*
X007149Y005792D01*
X006949Y005633D02*
X007424Y005633D01*
X008012Y005633D02*
X008545Y005633D01*
X008780Y005633D02*
X009314Y005633D01*
X009114Y005792D02*
X009061Y005792D01*
X008980Y004841D02*
X012752Y004841D01*
X012512Y004682D02*
X011002Y004682D01*
X010957Y004726D02*
X010746Y004814D01*
X010517Y004814D01*
X010306Y004726D01*
X010144Y004564D01*
X010056Y004353D01*
X010056Y004124D01*
X010144Y003913D01*
X010306Y003751D01*
X010517Y003663D01*
X010746Y003663D01*
X010957Y003751D01*
X011119Y003913D01*
X011207Y004124D01*
X011207Y004353D01*
X011119Y004564D01*
X010957Y004726D01*
X011136Y004524D02*
X012391Y004524D01*
X012325Y004365D02*
X011202Y004365D01*
X011207Y004207D02*
X012312Y004207D01*
X012316Y004048D02*
X011175Y004048D01*
X011096Y003890D02*
X012381Y003890D01*
X012489Y003731D02*
X010910Y003731D01*
X010353Y003731D02*
X009117Y003731D01*
X009247Y003890D02*
X010167Y003890D01*
X010088Y004048D02*
X009316Y004048D01*
X009332Y004365D02*
X010061Y004365D01*
X010056Y004207D02*
X008731Y004207D01*
X008595Y004207D02*
X007270Y004207D01*
X007270Y004124D02*
X007182Y003913D01*
X007020Y003751D01*
X006809Y003663D01*
X006580Y003663D01*
X006369Y003751D01*
X006207Y003913D01*
X006119Y004124D01*
X006119Y004353D01*
X006207Y004564D01*
X006369Y004726D01*
X006580Y004814D01*
X006809Y004814D01*
X007020Y004726D01*
X007182Y004564D01*
X007270Y004353D01*
X007270Y004124D01*
X007238Y004048D02*
X008010Y004048D01*
X008079Y003890D02*
X007159Y003890D01*
X006973Y003731D02*
X008209Y003731D01*
X007986Y004306D02*
X008595Y004306D01*
X008595Y004916D01*
X008530Y004907D01*
X008444Y004884D01*
X008362Y004850D01*
X008284Y004805D01*
X008214Y004751D01*
X008151Y004688D01*
X008096Y004617D01*
X008052Y004540D01*
X008018Y004458D01*
X007995Y004372D01*
X007986Y004306D01*
X007994Y004365D02*
X007265Y004365D01*
X007199Y004524D02*
X008045Y004524D01*
X008146Y004682D02*
X007064Y004682D01*
X006416Y003731D02*
X005669Y003731D01*
X005669Y003890D02*
X006230Y003890D01*
X006151Y004048D02*
X005627Y004048D01*
X005468Y004207D02*
X006119Y004207D01*
X006124Y004365D02*
X005419Y004365D01*
X005577Y004524D02*
X006190Y004524D01*
X006324Y004682D02*
X005669Y004682D01*
X005669Y004841D02*
X008346Y004841D01*
X008595Y004841D02*
X008731Y004841D01*
X008731Y004682D02*
X008595Y004682D01*
X008595Y004524D02*
X008731Y004524D01*
X008731Y004365D02*
X008595Y004365D01*
X009180Y004682D02*
X010261Y004682D01*
X010127Y004524D02*
X009281Y004524D01*
X009902Y005633D02*
X010377Y005633D01*
X010177Y005792D02*
X010102Y005792D01*
X009982Y006743D02*
X010297Y006743D01*
X011045Y006743D02*
X012399Y006743D01*
X012440Y006584D02*
X011203Y006584D01*
X011276Y006426D02*
X012518Y006426D01*
X012649Y006267D02*
X011314Y006267D01*
X011314Y006109D02*
X012889Y006109D01*
X013259Y004841D02*
X014048Y004841D01*
X013928Y004999D02*
X005669Y004999D01*
X005517Y005158D02*
X013862Y005158D01*
X013826Y005316D02*
X003989Y005316D01*
X003989Y006267D02*
X003991Y006267D01*
X005408Y006267D02*
X006012Y006267D01*
X006012Y006109D02*
X005566Y006109D01*
X005669Y005950D02*
X006066Y005950D01*
X006161Y005792D02*
X005669Y005792D01*
X005669Y005633D02*
X006361Y005633D01*
X006050Y006426D02*
X005479Y006426D01*
X005638Y006584D02*
X006123Y006584D01*
X006281Y006743D02*
X005669Y006743D01*
X005528Y005475D02*
X013826Y005475D01*
X013846Y005633D02*
X010965Y005633D01*
X011165Y005792D02*
X013911Y005792D01*
X014007Y005950D02*
X011260Y005950D01*
X009234Y006743D02*
X008873Y006743D01*
X008453Y006743D02*
X008092Y006743D01*
X008212Y005792D02*
X008265Y005792D01*
X013499Y004682D02*
X014221Y004682D01*
X013685Y004365D02*
X015672Y004365D01*
X015658Y004207D02*
X013699Y004207D01*
X013695Y004048D02*
X015662Y004048D01*
X015728Y003890D02*
X013629Y003890D01*
X013522Y003731D02*
X015835Y003731D01*
X015737Y004524D02*
X013620Y004524D01*
X015136Y004682D02*
X015858Y004682D01*
X015531Y005475D02*
X017871Y005475D01*
X017729Y005633D02*
X015512Y005633D01*
X015446Y005792D02*
X017729Y005792D01*
X017729Y005950D02*
X015350Y005950D01*
X016976Y003890D02*
X017729Y003890D01*
X017729Y003731D02*
X016868Y003731D01*
X017041Y004048D02*
X017789Y004048D01*
X019396Y009279D02*
X019410Y009279D01*
X019410Y021325D02*
X018860Y021325D01*
X018957Y021421D02*
X018957Y021421D01*
X019005Y021483D02*
X019410Y021483D01*
X019410Y021642D02*
X019125Y021642D01*
X019145Y021677D02*
X019145Y021677D01*
X019145Y021800D02*
X019410Y021800D01*
X019410Y021959D02*
X019052Y021959D01*
X018918Y022117D02*
X019410Y022117D01*
X019410Y022276D02*
X018931Y022276D01*
X018925Y022269D02*
X018925Y022269D01*
X018925Y022269D01*
X018921Y022261D02*
X018921Y022261D01*
X018949Y022301D02*
X018949Y022301D01*
X018965Y022321D02*
X018965Y022321D01*
X019009Y022381D02*
X019009Y022381D01*
X019025Y022401D02*
X019025Y022401D01*
X019049Y022434D02*
X019410Y022434D01*
X018861Y022181D02*
X018861Y022181D01*
X018845Y022161D02*
X018845Y022161D01*
X019041Y021557D02*
X019041Y021557D01*
D11*
X018199Y003811D03*
X004199Y003811D03*
D12*
X004199Y004811D03*
X004199Y005811D03*
X004199Y006811D03*
X004199Y007811D03*
X004199Y008811D03*
X004199Y009811D03*
X004199Y010811D03*
X004199Y011811D03*
X004199Y012811D03*
X004199Y013811D03*
X004199Y014811D03*
X004199Y015811D03*
X004199Y016811D03*
X004199Y017811D03*
X004199Y018811D03*
X004199Y019811D03*
X004199Y020811D03*
X005199Y020811D03*
X005199Y019811D03*
X005199Y018811D03*
X005199Y017811D03*
X005199Y016811D03*
X005199Y015811D03*
X005199Y014811D03*
X005199Y013811D03*
X005199Y012811D03*
X005199Y011811D03*
X005199Y010811D03*
X005199Y009811D03*
X005199Y008811D03*
X005199Y007811D03*
X005199Y006811D03*
X005199Y005811D03*
X005199Y004811D03*
X005199Y003811D03*
X018199Y004811D03*
X018199Y005811D03*
X018199Y006811D03*
X018199Y007811D03*
X018199Y008811D03*
X018199Y009811D03*
X018199Y010811D03*
X018199Y011811D03*
X018199Y012811D03*
X018199Y013811D03*
X018199Y014811D03*
X018199Y015811D03*
X018199Y016811D03*
X018199Y017811D03*
X018199Y018811D03*
X018199Y019811D03*
X018199Y020811D03*
X019199Y020811D03*
X019199Y019811D03*
X019199Y018811D03*
X019199Y017811D03*
X019199Y016811D03*
X019199Y015811D03*
X019199Y014811D03*
X019199Y013811D03*
X019199Y012811D03*
X019199Y011811D03*
X019199Y010811D03*
X019199Y009811D03*
X019199Y008811D03*
X019199Y007811D03*
X019199Y006811D03*
X019199Y005811D03*
X019199Y004811D03*
X019199Y003811D03*
D13*
X018509Y021458D03*
X018505Y021970D03*
X018509Y022270D03*
X018509Y022274D03*
D14*
X018509Y021462D03*
D15*
X018509Y021466D03*
D16*
X018509Y021470D03*
X018533Y021954D03*
D17*
X018509Y022334D03*
X018509Y022338D03*
X018509Y022594D03*
X018509Y021474D03*
D18*
X018509Y021478D03*
D19*
X018509Y021482D03*
X018509Y022354D03*
X018509Y022590D03*
D20*
X018509Y021486D03*
D21*
X018509Y021490D03*
D22*
X018509Y021494D03*
D23*
X018509Y021498D03*
X018509Y022582D03*
D24*
X018509Y022390D03*
X018509Y021502D03*
D25*
X018509Y021506D03*
D26*
X018509Y021510D03*
X018509Y022402D03*
D27*
X018509Y022574D03*
X018509Y021514D03*
D28*
X018509Y021518D03*
X018509Y022410D03*
X018509Y022414D03*
D29*
X018509Y022418D03*
X018509Y021522D03*
D30*
X018509Y021526D03*
D31*
X018509Y021530D03*
X018509Y022422D03*
X018509Y022570D03*
D32*
X018509Y022430D03*
X018509Y021534D03*
D33*
X018509Y021538D03*
X018509Y022434D03*
D34*
X018509Y022438D03*
X018509Y021542D03*
D35*
X018509Y021546D03*
D36*
X018509Y021550D03*
X018509Y022442D03*
X018509Y022562D03*
D37*
X018509Y021558D03*
X018509Y021554D03*
D38*
X018509Y021562D03*
X018509Y022558D03*
D39*
X018509Y021566D03*
D40*
X018509Y021570D03*
D41*
X018509Y021574D03*
X018509Y021578D03*
D42*
X018509Y021582D03*
X018509Y022550D03*
D43*
X018509Y021586D03*
D44*
X018509Y021590D03*
X018509Y021594D03*
D45*
X018509Y021598D03*
X018509Y021602D03*
D46*
X018509Y021606D03*
D47*
X018509Y021610D03*
X018509Y022542D03*
D48*
X018509Y021618D03*
X018509Y021614D03*
D49*
X018509Y021622D03*
X018509Y021630D03*
X018509Y022538D03*
D50*
X018509Y021626D03*
D51*
X018509Y021634D03*
X018509Y021638D03*
X018509Y022502D03*
X018509Y022534D03*
D52*
X018509Y022530D03*
X018509Y022510D03*
X018509Y021642D03*
D53*
X018509Y021646D03*
X018509Y022506D03*
D54*
X018509Y022514D03*
X018505Y021882D03*
X018509Y021658D03*
X018509Y021654D03*
X018509Y021650D03*
D55*
X018509Y021662D03*
X018509Y021878D03*
X018509Y022518D03*
X018509Y022522D03*
D56*
X018509Y021666D03*
D57*
X018509Y021670D03*
X018509Y021674D03*
X018509Y021874D03*
D58*
X018509Y021682D03*
X018509Y021678D03*
D59*
X018507Y021686D03*
D60*
X018507Y021690D03*
X018507Y021694D03*
D61*
X018507Y021698D03*
X018507Y021702D03*
D62*
X018509Y021706D03*
D63*
X018509Y021710D03*
D64*
X018511Y021714D03*
D65*
X018509Y021718D03*
X018509Y021810D03*
D66*
X018509Y021722D03*
D67*
X018509Y021726D03*
D68*
X018509Y021730D03*
X018509Y021798D03*
D69*
X018509Y021794D03*
X018509Y021734D03*
D70*
X018509Y021738D03*
X018509Y021790D03*
D71*
X018511Y021742D03*
D72*
X018509Y021746D03*
D73*
X018509Y021750D03*
X018509Y021778D03*
X018509Y021782D03*
D74*
X018511Y021774D03*
X018511Y021758D03*
X018511Y021754D03*
D75*
X018509Y021762D03*
X018509Y021770D03*
D76*
X018509Y021766D03*
D77*
X018511Y021786D03*
D78*
X018509Y021802D03*
D79*
X018509Y021806D03*
D80*
X018519Y021842D03*
X018515Y021854D03*
D81*
X018517Y021846D03*
D82*
X018517Y021850D03*
D83*
X018515Y021858D03*
X018515Y021862D03*
D84*
X018513Y021866D03*
D85*
X018511Y021870D03*
D86*
X018503Y021886D03*
D87*
X018503Y021890D03*
X018503Y021894D03*
D88*
X018403Y021898D03*
D89*
X018735Y021914D03*
X018739Y021902D03*
X018739Y021898D03*
D90*
X018401Y021902D03*
D91*
X018401Y021906D03*
D92*
X018737Y021906D03*
D93*
X018401Y021910D03*
D94*
X018737Y021910D03*
D95*
X018397Y021914D03*
D96*
X018395Y021918D03*
D97*
X018617Y022294D03*
X018621Y022298D03*
X018697Y021922D03*
X018701Y021918D03*
D98*
X018807Y021918D03*
D99*
X018509Y022330D03*
X018393Y021922D03*
D100*
X018509Y022070D03*
X018825Y021922D03*
D101*
X018391Y021926D03*
D102*
X018347Y022366D03*
X018691Y021926D03*
D103*
X018381Y021930D03*
X018397Y022454D03*
D104*
X018509Y022154D03*
X018509Y021998D03*
X018689Y021930D03*
X018629Y022314D03*
D105*
X018375Y021934D03*
D106*
X018683Y021934D03*
X018631Y022318D03*
D107*
X018441Y022374D03*
X018377Y021938D03*
D108*
X018677Y021938D03*
D109*
X018379Y021942D03*
D110*
X018507Y021994D03*
X018671Y021942D03*
D111*
X018385Y021946D03*
X018509Y022606D03*
D112*
X018627Y022326D03*
X018663Y021946D03*
D113*
X018391Y021950D03*
D114*
X018645Y021950D03*
D115*
X018509Y022114D03*
X018509Y022118D03*
X018281Y021954D03*
D116*
X018283Y021958D03*
X018383Y021982D03*
D117*
X018531Y021958D03*
D118*
X018527Y021962D03*
D119*
X018523Y021966D03*
X018403Y022446D03*
D120*
X018675Y021970D03*
D121*
X018503Y021974D03*
D122*
X018383Y021978D03*
D123*
X018537Y021978D03*
X018509Y022222D03*
X018309Y022490D03*
X018509Y022614D03*
D124*
X018321Y022470D03*
X018317Y022474D03*
X018537Y021982D03*
D125*
X018379Y021986D03*
D126*
X018507Y021986D03*
D127*
X018621Y021986D03*
D128*
X018379Y021990D03*
D129*
X018507Y021990D03*
D130*
X018509Y022094D03*
X018625Y021990D03*
D131*
X018377Y021994D03*
D132*
X018507Y022018D03*
X018627Y021994D03*
D133*
X018633Y022002D03*
X018377Y021998D03*
D134*
X018631Y021998D03*
D135*
X018375Y022002D03*
D136*
X018507Y022002D03*
X018351Y022358D03*
X018683Y022382D03*
D137*
X018507Y022006D03*
D138*
X018637Y022006D03*
D139*
X018507Y022010D03*
D140*
X018507Y022014D03*
D141*
X018509Y022066D03*
D142*
X018509Y022074D03*
D143*
X018509Y022078D03*
D144*
X018509Y022082D03*
D145*
X018509Y022086D03*
D146*
X018509Y022090D03*
D147*
X018509Y022098D03*
X018509Y022102D03*
D148*
X018509Y022106D03*
D149*
X018509Y022110D03*
D150*
X018509Y022122D03*
D151*
X018509Y022126D03*
D152*
X018509Y022130D03*
X018509Y022134D03*
D153*
X018509Y022138D03*
D154*
X018509Y022142D03*
X018685Y022378D03*
D155*
X018507Y022146D03*
D156*
X018509Y022150D03*
X018625Y022302D03*
X018629Y022310D03*
X018349Y022362D03*
D157*
X018509Y022158D03*
X018629Y022322D03*
D158*
X018509Y022162D03*
D159*
X018509Y022166D03*
D160*
X018509Y022170D03*
D161*
X018509Y022174D03*
X018509Y022178D03*
D162*
X018509Y022182D03*
D163*
X018509Y022186D03*
D164*
X018509Y022190D03*
X018509Y022194D03*
D165*
X018509Y022198D03*
X018437Y022294D03*
X018433Y022298D03*
X018429Y022302D03*
D166*
X018425Y022314D03*
X018509Y022202D03*
D167*
X018509Y022206D03*
D168*
X018509Y022210D03*
D169*
X018509Y022214D03*
D170*
X018509Y022218D03*
X018313Y022482D03*
D171*
X018509Y022226D03*
D172*
X018509Y022230D03*
D173*
X018509Y022234D03*
D174*
X018509Y022238D03*
X018509Y022242D03*
D175*
X018509Y022246D03*
D176*
X018509Y022250D03*
X018509Y022610D03*
D177*
X018509Y022258D03*
X018509Y022254D03*
D178*
X018509Y022262D03*
D179*
X018509Y022266D03*
D180*
X018509Y022278D03*
D181*
X018509Y022282D03*
D182*
X018509Y022286D03*
D183*
X018509Y022290D03*
D184*
X018429Y022306D03*
D185*
X018625Y022306D03*
D186*
X018695Y022450D03*
X018427Y022310D03*
D187*
X018425Y022318D03*
X018425Y022322D03*
D188*
X018427Y022326D03*
D189*
X018509Y022342D03*
D190*
X018509Y022346D03*
D191*
X018511Y022350D03*
D192*
X018577Y022358D03*
D193*
X018519Y022362D03*
X018515Y022370D03*
D194*
X018677Y022362D03*
X018681Y022370D03*
D195*
X018517Y022366D03*
D196*
X018681Y022366D03*
D197*
X018347Y022370D03*
D198*
X018683Y022374D03*
D199*
X018439Y022378D03*
D200*
X018441Y022382D03*
D201*
X018509Y022386D03*
D202*
X018509Y022394D03*
X018509Y022398D03*
X018509Y022578D03*
D203*
X018509Y022406D03*
D204*
X018509Y022426D03*
D205*
X018689Y022446D03*
D206*
X018639Y022474D03*
X018639Y022478D03*
X018399Y022450D03*
D207*
X018697Y022454D03*
D208*
X018395Y022458D03*
D209*
X018699Y022458D03*
D210*
X018397Y022462D03*
D211*
X018695Y022462D03*
D212*
X018509Y022466D03*
D213*
X018635Y022470D03*
X018643Y022482D03*
D214*
X018315Y022478D03*
D215*
X018311Y022486D03*
D216*
X018645Y022486D03*
D217*
X018645Y022490D03*
X018645Y022494D03*
D218*
X018311Y022494D03*
D219*
X018311Y022498D03*
D220*
X018645Y022498D03*
D221*
X018509Y022526D03*
D222*
X018509Y022546D03*
D223*
X018511Y022554D03*
D224*
X018509Y022566D03*
D225*
X018509Y022586D03*
D226*
X018509Y022598D03*
D227*
X018509Y022602D03*
D228*
X018507Y022618D03*
D229*
X018511Y022622D03*
D230*
X008663Y004239D03*
D231*
X009608Y006207D03*
X010671Y006207D03*
X007718Y006207D03*
X006655Y006207D03*
D232*
X006399Y004239D02*
X006401Y004273D01*
X006407Y004307D01*
X006417Y004340D01*
X006430Y004371D01*
X006448Y004401D01*
X006468Y004429D01*
X006492Y004454D01*
X006518Y004476D01*
X006546Y004494D01*
X006577Y004510D01*
X006609Y004522D01*
X006643Y004530D01*
X006677Y004534D01*
X006711Y004534D01*
X006745Y004530D01*
X006779Y004522D01*
X006811Y004510D01*
X006841Y004494D01*
X006870Y004476D01*
X006896Y004454D01*
X006920Y004429D01*
X006940Y004401D01*
X006958Y004371D01*
X006971Y004340D01*
X006981Y004307D01*
X006987Y004273D01*
X006989Y004239D01*
X006987Y004205D01*
X006981Y004171D01*
X006971Y004138D01*
X006958Y004107D01*
X006940Y004077D01*
X006920Y004049D01*
X006896Y004024D01*
X006870Y004002D01*
X006842Y003984D01*
X006811Y003968D01*
X006779Y003956D01*
X006745Y003948D01*
X006711Y003944D01*
X006677Y003944D01*
X006643Y003948D01*
X006609Y003956D01*
X006577Y003968D01*
X006546Y003984D01*
X006518Y004002D01*
X006492Y004024D01*
X006468Y004049D01*
X006448Y004077D01*
X006430Y004107D01*
X006417Y004138D01*
X006407Y004171D01*
X006401Y004205D01*
X006399Y004239D01*
X008368Y006207D02*
X008370Y006241D01*
X008376Y006275D01*
X008386Y006308D01*
X008399Y006339D01*
X008417Y006369D01*
X008437Y006397D01*
X008461Y006422D01*
X008487Y006444D01*
X008515Y006462D01*
X008546Y006478D01*
X008578Y006490D01*
X008612Y006498D01*
X008646Y006502D01*
X008680Y006502D01*
X008714Y006498D01*
X008748Y006490D01*
X008780Y006478D01*
X008810Y006462D01*
X008839Y006444D01*
X008865Y006422D01*
X008889Y006397D01*
X008909Y006369D01*
X008927Y006339D01*
X008940Y006308D01*
X008950Y006275D01*
X008956Y006241D01*
X008958Y006207D01*
X008956Y006173D01*
X008950Y006139D01*
X008940Y006106D01*
X008927Y006075D01*
X008909Y006045D01*
X008889Y006017D01*
X008865Y005992D01*
X008839Y005970D01*
X008811Y005952D01*
X008780Y005936D01*
X008748Y005924D01*
X008714Y005916D01*
X008680Y005912D01*
X008646Y005912D01*
X008612Y005916D01*
X008578Y005924D01*
X008546Y005936D01*
X008515Y005952D01*
X008487Y005970D01*
X008461Y005992D01*
X008437Y006017D01*
X008417Y006045D01*
X008399Y006075D01*
X008386Y006106D01*
X008376Y006139D01*
X008370Y006173D01*
X008368Y006207D01*
X010336Y004239D02*
X010338Y004273D01*
X010344Y004307D01*
X010354Y004340D01*
X010367Y004371D01*
X010385Y004401D01*
X010405Y004429D01*
X010429Y004454D01*
X010455Y004476D01*
X010483Y004494D01*
X010514Y004510D01*
X010546Y004522D01*
X010580Y004530D01*
X010614Y004534D01*
X010648Y004534D01*
X010682Y004530D01*
X010716Y004522D01*
X010748Y004510D01*
X010778Y004494D01*
X010807Y004476D01*
X010833Y004454D01*
X010857Y004429D01*
X010877Y004401D01*
X010895Y004371D01*
X010908Y004340D01*
X010918Y004307D01*
X010924Y004273D01*
X010926Y004239D01*
X010924Y004205D01*
X010918Y004171D01*
X010908Y004138D01*
X010895Y004107D01*
X010877Y004077D01*
X010857Y004049D01*
X010833Y004024D01*
X010807Y004002D01*
X010779Y003984D01*
X010748Y003968D01*
X010716Y003956D01*
X010682Y003948D01*
X010648Y003944D01*
X010614Y003944D01*
X010580Y003948D01*
X010546Y003956D01*
X010514Y003968D01*
X010483Y003984D01*
X010455Y004002D01*
X010429Y004024D01*
X010405Y004049D01*
X010385Y004077D01*
X010367Y004107D01*
X010354Y004138D01*
X010344Y004171D01*
X010338Y004205D01*
X010336Y004239D01*
X012592Y004195D02*
X012594Y004235D01*
X012600Y004276D01*
X012610Y004315D01*
X012623Y004353D01*
X012641Y004390D01*
X012662Y004424D01*
X012686Y004457D01*
X012713Y004487D01*
X012743Y004514D01*
X012776Y004538D01*
X012810Y004559D01*
X012847Y004577D01*
X012885Y004590D01*
X012924Y004600D01*
X012965Y004606D01*
X013005Y004608D01*
X013045Y004606D01*
X013086Y004600D01*
X013125Y004590D01*
X013163Y004577D01*
X013200Y004559D01*
X013234Y004538D01*
X013267Y004514D01*
X013297Y004487D01*
X013324Y004457D01*
X013348Y004424D01*
X013369Y004390D01*
X013387Y004353D01*
X013400Y004315D01*
X013410Y004276D01*
X013416Y004235D01*
X013418Y004195D01*
X013416Y004155D01*
X013410Y004114D01*
X013400Y004075D01*
X013387Y004037D01*
X013369Y004000D01*
X013348Y003966D01*
X013324Y003933D01*
X013297Y003903D01*
X013267Y003876D01*
X013234Y003852D01*
X013200Y003831D01*
X013163Y003813D01*
X013125Y003800D01*
X013086Y003790D01*
X013045Y003784D01*
X013005Y003782D01*
X012965Y003784D01*
X012924Y003790D01*
X012885Y003800D01*
X012847Y003813D01*
X012810Y003831D01*
X012776Y003852D01*
X012743Y003876D01*
X012713Y003903D01*
X012686Y003933D01*
X012662Y003966D01*
X012641Y004000D01*
X012623Y004037D01*
X012610Y004075D01*
X012600Y004114D01*
X012594Y004155D01*
X012592Y004195D01*
X015939Y004195D02*
X015941Y004235D01*
X015947Y004276D01*
X015957Y004315D01*
X015970Y004353D01*
X015988Y004390D01*
X016009Y004424D01*
X016033Y004457D01*
X016060Y004487D01*
X016090Y004514D01*
X016123Y004538D01*
X016157Y004559D01*
X016194Y004577D01*
X016232Y004590D01*
X016271Y004600D01*
X016312Y004606D01*
X016352Y004608D01*
X016392Y004606D01*
X016433Y004600D01*
X016472Y004590D01*
X016510Y004577D01*
X016547Y004559D01*
X016581Y004538D01*
X016614Y004514D01*
X016644Y004487D01*
X016671Y004457D01*
X016695Y004424D01*
X016716Y004390D01*
X016734Y004353D01*
X016747Y004315D01*
X016757Y004276D01*
X016763Y004235D01*
X016765Y004195D01*
X016763Y004155D01*
X016757Y004114D01*
X016747Y004075D01*
X016734Y004037D01*
X016716Y004000D01*
X016695Y003966D01*
X016671Y003933D01*
X016644Y003903D01*
X016614Y003876D01*
X016581Y003852D01*
X016547Y003831D01*
X016510Y003813D01*
X016472Y003800D01*
X016433Y003790D01*
X016392Y003784D01*
X016352Y003782D01*
X016312Y003784D01*
X016271Y003790D01*
X016232Y003800D01*
X016194Y003813D01*
X016157Y003831D01*
X016123Y003852D01*
X016090Y003876D01*
X016060Y003903D01*
X016033Y003933D01*
X016009Y003966D01*
X015988Y004000D01*
X015970Y004037D01*
X015957Y004075D01*
X015947Y004114D01*
X015941Y004155D01*
X015939Y004195D01*
D233*
X014679Y005416D03*
X016135Y006872D03*
X013222Y006872D03*
D234*
X009742Y022391D03*
X006986Y022391D03*
D235*
X007379Y021357D03*
X009348Y021357D03*
D236*
X010464Y020181D03*
X011549Y019441D03*
X012679Y019116D03*
X013694Y019841D03*
X010054Y018201D03*
X009334Y017511D03*
X008814Y016566D03*
X009649Y015926D03*
X009259Y015491D03*
X009209Y013736D03*
X008729Y013306D03*
X008624Y012326D03*
X009399Y011856D03*
X006649Y016436D03*
X006554Y018981D03*
M02*
